if (_typeface_js && _typeface_js.loadFace) _typeface_js.loadFace({"glyphs":{"Ő":{"x_min":21.34375,"x_max":507.375,"ha":534,"o":"m 191 0 q 107 45 142 3 q 51 153 71 86 q 24 303 31 219 q 25 473 17 386 q 56 643 33 560 q 117 792 80 726 q 206 899 154 858 q 326 944 259 941 q 423 893 385 938 q 482 779 462 849 q 506 624 503 710 q 497 449 510 538 q 459 277 485 360 q 393 130 432 193 q 303 30 354 66 q 191 0 252 -5 m 317 882 q 240 848 276 880 q 176 762 204 815 q 126 642 147 709 q 94 503 105 575 q 83 361 84 431 q 94 231 82 290 q 129 130 105 172 q 192 73 153 88 q 280 98 240 69 q 352 178 320 127 q 405 297 383 229 q 438 437 427 365 q 448 582 448 510 q 433 716 447 655 q 390 821 419 777 q 317 882 362 865 m 289 997 q 256 993 267 990 q 240 1004 245 997 q 234 1020 234 1012 q 233 1032 233 1028 l 325 1156 q 352 1153 343 1156 q 373 1131 362 1150 l 289 997 m 405 984 q 382 983 390 979 q 369 994 374 987 q 359 1009 363 1000 q 350 1019 355 1017 l 442 1143 q 469 1140 460 1143 q 489 1118 479 1137 l 405 984 "},"Ž":{"x_min":20.34375,"x_max":827.59375,"ha":845,"o":"m 248 -49 q 150 -18 176 -47 q 128 55 124 10 q 155 155 131 100 q 204 260 179 210 q 249 353 230 311 q 263 416 268 395 q 213 410 238 420 q 166 391 188 401 q 129 382 145 382 q 107 405 113 382 q 121 445 107 431 q 157 467 135 459 q 205 480 179 475 q 257 490 231 484 q 302 508 282 497 q 332 539 322 519 q 366 616 348 576 q 401 697 385 656 q 427 781 417 739 q 438 866 438 824 q 307 858 364 870 q 206 826 250 846 q 126 785 161 806 q 62 752 92 764 q 35 760 47 752 q 20 783 23 768 q 58 827 28 805 q 129 868 88 848 q 219 903 170 888 q 315 929 268 919 q 401 943 362 939 q 465 939 440 946 q 501 909 492 931 q 508 855 511 886 q 495 785 505 824 q 470 705 484 747 q 442 621 457 663 q 420 539 428 579 q 583 566 511 554 q 732 583 655 577 q 722 528 736 546 q 683 500 709 509 q 622 488 657 490 q 547 481 587 485 q 464 468 507 477 q 382 439 421 459 q 337 351 366 404 q 278 243 307 299 q 225 134 248 188 q 200 43 203 81 q 286 18 233 20 q 401 31 339 17 q 530 70 463 44 q 654 126 596 96 q 755 190 712 157 q 816 252 798 223 q 817 172 838 210 q 747 103 796 135 q 630 45 698 71 q 492 0 562 18 q 356 -32 421 -19 q 248 -49 291 -44 m 369 996 q 348 974 358 977 q 321 972 339 972 l 198 1121 q 204 1139 202 1129 q 210 1156 206 1149 q 222 1163 214 1163 q 247 1149 230 1163 l 332 1039 l 422 1148 q 455 1167 445 1175 q 470 1132 466 1159 l 369 996 "},"Á":{"x_min":12.203125,"x_max":740.625,"ha":779,"o":"m 12 -82 q 27 -27 12 -63 q 63 47 43 8 q 101 121 84 87 q 123 172 119 156 q 138 228 126 186 q 166 327 150 270 q 200 447 181 383 q 233 568 218 511 q 261 667 249 625 q 276 724 272 710 q 291 792 283 749 q 313 876 299 835 q 347 945 326 916 q 401 975 368 975 q 421 966 412 975 q 438 947 431 958 q 451 925 446 937 q 457 905 455 914 q 505 714 485 793 q 540 584 526 636 q 564 503 554 533 q 579 460 573 474 q 586 442 584 446 q 590 439 588 439 q 636 461 614 453 q 686 466 659 469 q 674 430 686 444 q 647 404 661 416 q 621 377 633 392 q 610 341 610 363 q 630 249 610 293 q 675 161 651 205 q 720 75 699 118 q 740 -13 740 32 q 684 -17 706 -30 q 644 28 661 -3 q 615 104 628 59 q 588 193 603 149 q 552 274 572 237 q 503 331 533 312 q 475 323 499 331 q 418 303 451 316 q 347 273 385 290 q 276 238 309 256 q 219 204 242 221 q 189 172 195 187 l 101 -94 q 82 -116 94 -113 q 56 -119 70 -119 q 25 -110 39 -119 q 12 -82 12 -102 m 234 305 q 282 316 248 309 q 360 337 317 324 q 446 369 402 350 q 519 417 489 389 q 505 474 515 435 q 482 560 495 512 q 454 661 469 608 q 425 760 439 714 q 398 842 411 806 q 377 889 385 877 l 234 305 m 384 1018 q 358 1005 367 1004 q 343 1014 348 1006 q 335 1033 338 1022 q 328 1053 332 1045 l 420 1177 q 447 1174 438 1177 q 468 1152 457 1171 l 384 1018 "},"ĥ":{"x_min":44.5625,"x_max":688.875,"ha":712,"o":"m 106 2 q 87 201 93 111 q 78 370 81 291 q 74 522 75 450 q 71 665 73 594 q 62 810 68 736 q 44 969 56 884 q 75 990 54 983 q 112 994 97 996 l 151 261 q 171 338 157 290 q 205 442 185 386 q 252 554 226 497 q 309 656 277 610 q 375 731 340 702 q 450 760 410 760 q 530 708 494 756 q 591 585 565 659 q 635 425 616 512 q 665 257 653 337 q 682 114 676 177 q 688 25 687 51 q 655 29 669 8 q 629 97 641 51 q 605 207 616 143 q 582 340 593 271 q 557 476 570 409 q 526 594 543 542 q 486 674 508 645 q 436 697 465 704 q 362 616 398 675 q 295 480 326 557 q 237 320 264 404 q 193 166 211 237 q 167 49 176 96 q 161 0 158 2 q 145 -10 155 -8 q 125 -12 135 -13 q 110 -8 116 -12 q 106 2 104 -4 m 406 1152 q 427 1174 417 1171 q 454 1177 436 1177 l 551 1045 q 545 1025 547 1037 q 537 1006 542 1014 q 522 997 531 997 q 496 1010 512 996 l 436 1083 l 387 1004 q 352 990 372 985 q 322 1012 332 995 l 406 1152 "},"Î":{"x_min":-43.3125,"x_max":185.9375,"ha":178,"o":"m 44 89 q 40 160 42 112 q 36 271 38 208 q 32 408 34 334 q 29 554 30 481 q 27 696 28 627 q 28 817 26 765 q 31 902 29 869 q 38 936 33 934 l 76 936 q 81 803 80 885 q 82 625 82 720 q 82 435 82 531 q 87 261 83 340 q 99 132 91 182 q 123 78 108 81 q 126 53 123 67 q 129 27 129 40 q 123 5 129 14 q 99 -3 117 -3 q 76 8 86 -3 q 60 35 67 20 q 49 66 53 51 q 44 89 45 81 m 40 1167 q 61 1189 51 1186 q 88 1192 70 1192 l 185 1060 q 179 1040 181 1052 q 171 1021 176 1029 q 156 1012 165 1012 q 130 1025 146 1011 l 70 1098 l 21 1019 q -13 1005 6 1000 q -43 1027 -33 1010 l 40 1167 "},"e":{"x_min":29.84375,"x_max":496.125,"ha":533,"o":"m 29 170 q 42 289 29 216 q 76 443 54 363 q 130 604 99 524 q 201 744 162 684 q 284 836 240 805 q 379 851 329 867 q 407 834 389 852 q 436 777 425 816 q 443 679 447 738 q 406 538 439 620 q 303 352 373 456 q 111 118 233 247 q 169 74 135 80 q 241 80 203 67 q 317 123 279 94 q 387 185 355 152 q 444 249 420 217 q 477 300 467 281 q 495 249 500 280 q 465 185 489 219 q 404 118 442 151 q 326 59 367 85 q 246 17 286 33 q 180 5 207 2 q 124 19 151 5 q 76 56 97 33 q 42 109 55 79 q 29 170 29 139 m 341 775 q 282 739 313 775 q 223 648 252 703 q 170 527 195 593 q 127 400 145 462 q 101 290 109 338 q 97 222 93 242 q 155 258 119 220 q 229 355 191 296 q 301 484 267 414 q 354 616 335 554 q 373 723 374 679 q 341 775 373 767 "},"ļ":{"x_min":27.125,"x_max":173.390625,"ha":201,"o":"m 84 960 q 109 552 100 710 q 124 299 119 393 q 130 163 128 206 q 132 102 131 120 q 137 76 134 84 q 146 46 139 69 q 141 22 149 33 q 122 4 134 10 q 96 2 111 -1 q 70 21 82 5 l 27 965 q 35 999 28 986 q 52 1013 43 1011 q 69 1002 61 1014 q 84 960 78 990 m 115 -341 q 110 -342 116 -340 q 96 -347 104 -344 q 82 -352 89 -349 q 75 -354 75 -355 q 54 -335 60 -362 q 51 -266 48 -307 q 65 -179 55 -225 q 91 -102 75 -132 q 127 -66 106 -71 q 173 -101 148 -61 l 115 -341 "},"Ĕ":{"x_min":41.921875,"x_max":782.4375,"ha":800,"o":"m 42 163 q 61 253 40 208 q 108 336 81 298 q 157 406 134 375 q 184 452 180 436 q 158 456 182 454 q 108 468 134 458 q 61 499 81 478 q 45 556 40 519 q 79 681 53 614 q 148 805 105 748 q 246 898 191 861 q 368 936 302 936 q 420 915 397 934 q 455 874 444 896 q 462 834 466 853 q 431 815 458 816 q 385 868 420 850 q 309 878 349 886 q 245 842 279 871 q 181 772 211 813 q 130 686 151 732 q 104 602 108 641 q 117 537 100 564 q 184 509 135 511 q 255 527 220 509 q 322 566 290 545 q 385 605 355 587 q 444 625 416 623 q 457 624 450 625 q 471 621 465 623 q 484 614 478 619 q 489 600 489 610 q 461 555 489 579 q 391 506 433 532 q 300 448 349 480 q 208 377 250 416 q 138 292 166 338 q 111 188 111 245 q 123 127 111 151 q 157 89 135 102 q 207 70 178 75 q 266 65 235 65 q 409 90 341 65 q 538 157 477 116 q 654 250 600 199 q 756 355 709 302 l 782 355 q 754 275 782 317 q 682 193 726 233 q 583 118 638 154 q 472 55 527 82 q 368 12 417 28 q 287 -3 319 -3 q 205 4 248 -3 q 125 31 162 11 q 65 83 89 51 q 42 163 42 115 m 214 1091 q 253 1038 232 1052 q 296 1025 274 1023 q 339 1038 318 1026 q 379 1062 360 1049 q 410 1084 397 1075 q 428 1091 423 1094 q 447 1084 447 1099 q 430 1047 446 1069 q 385 1002 413 1025 q 322 974 356 980 q 248 987 287 968 q 172 1064 208 1006 l 214 1091 "},"ò":{"x_min":23.0625,"x_max":454.546875,"ha":467,"o":"m 23 246 q 59 539 35 422 q 118 727 84 656 q 193 825 153 797 q 279 848 234 853 q 372 808 335 845 q 429 712 409 772 q 453 577 450 652 q 446 423 457 502 q 411 268 435 344 q 349 133 386 192 q 263 36 311 73 q 157 -4 215 -1 q 80 21 107 -4 q 40 86 52 47 q 25 168 27 124 q 23 246 23 211 m 279 792 q 218 764 246 794 q 166 682 189 733 q 124 564 142 630 q 96 427 107 497 q 83 291 85 357 q 88 173 81 225 q 111 92 94 121 q 158 64 128 62 q 264 130 218 73 q 339 266 310 187 q 381 436 368 345 q 388 605 394 527 q 355 735 382 683 q 279 792 328 787 m 160 1044 q 180 1066 171 1063 q 208 1069 190 1069 l 300 945 q 293 925 296 937 q 285 906 290 914 q 270 897 279 898 q 244 910 260 896 l 160 1044 "},"ţ":{"x_min":-26.984375,"x_max":538.1875,"ha":458,"o":"m 129 688 q 63 681 95 688 q -3 667 31 673 q -15 679 -9 667 q -26 726 -21 691 q 11 735 -9 732 q 54 744 32 739 q 95 757 76 749 q 129 778 115 764 l 129 983 q 133 999 129 989 q 147 1016 138 1008 q 168 1027 155 1023 q 195 1027 180 1032 l 197 789 l 538 854 q 530 827 538 839 q 512 805 523 815 q 489 789 501 796 q 467 781 477 783 q 401 764 439 772 q 324 748 363 756 q 251 730 285 740 q 195 711 216 721 l 195 21 q 185 6 195 11 q 164 -2 176 1 q 142 -6 153 -5 q 129 -7 131 -7 l 129 688 l 129 688 m 132 -341 q 127 -342 133 -340 q 113 -347 121 -344 q 99 -352 106 -349 q 92 -354 92 -355 q 71 -335 77 -362 q 68 -266 65 -307 q 82 -179 72 -225 q 108 -102 92 -132 q 144 -66 123 -71 q 190 -101 165 -61 l 132 -341 "},"^":{"x_min":88.171875,"x_max":332.328125,"ha":388,"o":"m 179 731 q 199 753 189 750 q 226 756 208 756 l 332 586 q 325 566 328 578 q 317 547 322 555 q 302 538 311 538 q 276 551 293 537 l 208 662 l 154 572 q 145 546 151 557 q 129 530 138 534 q 109 530 120 526 q 88 549 99 534 l 179 731 "},"í":{"x_min":33.5625,"x_max":181.765625,"ha":209,"o":"m 97 825 q 139 628 123 736 q 163 411 154 519 q 175 203 172 302 q 181 38 179 104 q 166 6 181 11 q 126 5 150 1 q 96 403 108 203 q 52 801 84 603 l 97 825 m 89 871 q 63 858 72 857 q 48 867 53 859 q 40 886 43 875 q 33 906 37 898 l 125 1030 q 152 1027 143 1030 q 173 1005 162 1024 l 89 871 "},"ˆ":{"x_min":40.6875,"x_max":269.9375,"ha":296,"o":"m 124 1007 q 145 1029 135 1026 q 172 1032 154 1032 l 269 900 q 263 880 265 892 q 255 861 260 869 q 240 852 249 852 q 214 865 230 851 l 154 938 l 105 859 q 70 845 90 840 q 40 867 50 850 l 124 1007 "},"ū":{"x_min":32.640625,"x_max":500.6875,"ha":533,"o":"m 166 -2 q 114 27 137 -9 q 77 129 92 65 q 53 274 62 192 q 41 438 44 355 q 37 595 37 521 q 40 721 37 670 q 44 736 40 725 q 55 757 47 747 q 77 771 63 766 q 113 770 92 777 q 109 731 112 763 q 105 649 107 698 q 103 541 104 601 q 104 420 103 481 q 109 300 105 359 q 122 194 113 241 q 141 118 130 148 q 170 84 153 88 q 241 133 204 89 q 311 244 278 177 q 371 391 344 310 q 413 552 398 472 q 429 706 428 633 q 409 828 430 778 q 417 835 411 831 q 430 843 423 839 q 443 849 436 846 q 453 852 450 852 q 481 831 472 852 q 495 784 491 811 q 499 731 499 757 q 500 696 500 705 q 491 599 501 662 q 461 462 481 537 q 413 309 442 388 q 345 164 383 230 q 263 52 307 97 q 166 -2 218 6 m 32 904 q 38 933 32 915 q 50 959 43 952 l 495 944 l 499 886 l 32 904 "},"Ẅ":{"x_min":9.25,"x_max":1222.15625,"ha":1267,"o":"m 607 615 q 575 543 595 591 q 533 436 556 495 q 487 315 511 378 q 443 196 463 252 q 406 96 423 139 q 382 33 390 52 q 370 6 377 17 q 343 0 364 -5 q 259 231 298 109 q 180 470 219 352 q 100 693 141 587 q 12 878 59 798 q 14 904 5 892 q 33 923 23 916 q 117 792 80 864 q 184 644 154 720 q 238 491 214 568 q 281 345 261 415 q 318 220 301 276 q 351 128 335 164 q 444 354 405 248 q 514 540 484 459 q 569 671 545 621 q 618 729 594 721 q 621 729 619 729 q 625 728 622 728 q 630 727 628 727 q 655 685 647 720 q 674 596 664 649 q 698 475 685 542 q 736 339 712 408 q 798 202 760 269 q 896 82 836 135 q 929 184 914 116 q 961 336 945 252 q 991 512 976 420 q 1024 687 1006 604 q 1064 833 1043 769 q 1110 926 1085 897 q 1151 933 1132 935 q 1184 923 1170 931 q 1208 904 1199 915 q 1222 883 1218 892 l 1222 884 q 1175 887 1192 888 q 1147 877 1158 887 q 1129 847 1136 868 q 1110 793 1121 827 l 940 -1 q 931 -1 938 -1 q 916 -4 925 -2 q 896 -7 907 -5 q 785 121 831 46 q 706 281 739 196 q 649 453 672 366 q 607 615 626 539 m 519 963 q 513 999 508 979 q 531 1032 518 1020 q 561 1046 544 1045 q 595 1024 579 1047 q 603 988 607 1009 q 584 955 598 968 q 552 941 571 942 q 519 963 534 940 m 694 968 q 687 1002 683 982 q 704 1036 691 1022 q 735 1051 717 1049 q 770 1029 754 1052 q 782 993 784 1014 q 767 958 780 972 q 734 943 754 944 q 694 968 714 942 "},"ȷ":{"x_min":-218.6875,"x_max":239,"ha":266,"o":"m -216 -465 q -216 -441 -220 -451 q -205 -425 -212 -431 q -190 -420 -197 -420 q -180 -427 -182 -420 q -48 -491 -112 -480 q 64 -486 15 -503 q 142 -432 112 -470 q 174 -344 172 -393 q 168 -235 172 -303 q 158 -82 164 -166 q 144 99 152 2 q 127 290 136 195 q 110 473 119 385 q 95 631 102 561 q 82 746 88 701 q 73 800 76 790 q 79 809 73 804 q 93 818 84 813 q 114 825 103 823 q 136 824 125 827 q 159 660 146 756 q 182 453 171 564 q 203 225 192 343 q 220 -1 213 108 q 232 -205 228 -111 q 239 -363 237 -299 q 211 -468 239 -428 q 138 -529 183 -508 q 40 -552 93 -549 q -64 -543 -13 -554 q -156 -512 -114 -533 q -216 -465 -197 -492 "},"ņ":{"x_min":45,"x_max":564.1875,"ha":601,"o":"m 111 400 q 115 472 109 428 q 135 568 121 517 q 170 670 148 619 q 218 761 191 721 q 280 826 246 802 q 355 848 314 850 q 433 817 402 848 q 483 744 465 787 q 510 655 501 701 q 523 579 519 609 q 528 517 527 560 q 531 418 530 473 q 534 303 532 363 q 540 189 536 243 q 549 96 543 136 q 564 41 554 56 q 553 17 565 28 q 524 0 540 5 q 493 -2 508 -6 q 474 19 478 0 q 455 161 459 80 q 450 329 451 243 q 448 497 448 415 q 439 644 447 579 q 411 745 431 708 q 355 779 391 783 q 282 741 314 776 q 226 649 250 706 q 184 522 201 593 q 155 377 167 451 q 135 234 143 303 q 122 112 127 164 q 114 29 117 59 q 108 6 111 0 q 93 5 104 6 q 71 5 82 4 q 53 9 61 6 q 45 22 45 13 l 45 689 q 60 747 45 721 q 111 774 75 774 l 111 400 m 201 -341 q 196 -342 202 -340 q 182 -347 190 -344 q 168 -352 175 -349 q 161 -354 161 -355 q 140 -335 146 -362 q 137 -266 134 -307 q 151 -179 141 -225 q 177 -102 161 -132 q 213 -66 192 -71 q 259 -101 234 -61 l 201 -341 "},"ỳ":{"x_min":25.375,"x_max":628.21875,"ha":712,"o":"m 428 -553 q 362 -550 398 -553 q 294 -542 326 -548 q 236 -526 261 -536 q 203 -498 211 -516 q 199 -486 196 -496 q 210 -468 201 -477 q 229 -455 218 -460 q 252 -455 241 -449 q 402 -487 343 -497 q 494 -439 461 -478 q 543 -341 528 -401 q 562 -222 558 -281 q 561 -114 565 -163 q 556 -45 557 -64 q 549 50 553 -9 q 540 182 545 110 q 530 331 535 254 q 518 479 524 408 q 507 611 512 551 q 497 708 501 671 q 448 555 475 637 q 391 391 421 472 q 328 234 360 309 q 263 104 295 159 q 198 19 230 49 q 139 0 166 -10 q 77 53 101 9 q 39 161 52 96 q 25 309 26 226 q 30 481 24 392 q 49 664 36 571 q 79 842 62 757 q 120 840 101 849 q 146 798 139 830 q 109 635 121 718 q 94 473 97 552 q 94 325 90 395 q 108 204 98 256 q 132 121 117 152 q 162 89 146 91 q 201 132 178 91 q 252 239 225 174 q 309 386 279 305 q 368 547 338 467 q 425 700 397 628 q 475 818 452 772 q 503 842 484 841 q 542 841 522 844 q 554 734 547 800 q 568 588 561 667 q 584 422 576 509 q 598 256 592 335 q 609 109 604 176 q 618 3 615 42 q 623 -89 619 -37 q 628 -196 627 -140 q 621 -309 628 -253 q 592 -413 613 -365 q 531 -499 570 -462 q 428 -553 492 -536 m 234 1063 q 254 1085 245 1082 q 282 1088 264 1088 l 374 964 q 367 944 370 956 q 359 925 364 933 q 344 916 353 917 q 318 929 334 915 l 234 1063 "},"č":{"x_min":39.4375,"x_max":535.875,"ha":578,"o":"m 166 0 q 83 44 112 5 q 44 145 54 84 q 42 281 35 206 q 70 435 50 356 q 121 588 90 514 q 187 722 151 663 q 261 818 223 781 q 336 856 299 854 q 421 826 387 854 q 467 756 454 797 q 476 669 481 715 q 447 589 472 623 q 420 610 427 594 q 412 648 413 627 q 411 692 411 669 q 407 734 412 715 q 388 766 402 754 q 344 779 374 779 q 281 745 311 779 q 225 660 250 712 q 177 546 199 609 q 141 422 155 483 q 118 312 126 362 q 109 236 109 261 q 109 190 109 219 q 113 133 108 161 q 133 85 119 105 q 177 65 147 65 q 272 98 222 65 q 371 177 322 131 q 463 273 420 223 q 534 355 505 322 q 524 274 539 315 q 482 193 510 233 q 415 119 454 154 q 334 58 377 85 q 248 16 291 32 q 166 0 204 0 m 369 957 q 348 935 358 938 q 321 933 339 933 l 198 1082 q 204 1100 202 1090 q 210 1117 206 1110 q 222 1124 214 1124 q 247 1110 230 1124 l 332 1000 l 422 1109 q 455 1128 445 1136 q 470 1093 466 1120 l 369 957 "},"’":{"x_min":93.59375,"x_max":200.75,"ha":244,"o":"m 93 584 q 109 644 99 613 q 124 714 119 676 q 124 794 130 751 q 94 889 119 838 q 109 916 94 908 q 139 925 123 925 q 186 855 172 900 q 200 758 200 811 q 188 654 200 706 q 154 564 176 602 q 142 554 151 557 q 122 554 132 551 q 102 564 111 557 q 93 584 93 572 "},"-":{"x_min":50.59375,"x_max":526.296875,"ha":572,"o":"m 526 376 q 454 370 501 376 q 349 358 406 363 q 234 351 293 353 q 132 355 176 348 q 65 378 88 361 q 55 429 42 395 l 526 448 l 526 376 l 526 376 "},"Q":{"x_min":20.28125,"x_max":678.15625,"ha":689,"o":"m 455 198 q 417 137 436 169 q 370 78 397 105 q 303 33 343 51 q 206 15 264 15 q 138 43 168 19 q 88 103 109 67 q 52 184 66 139 q 30 273 37 229 q 20 358 23 317 q 23 431 18 400 q 54 610 28 519 q 125 774 79 701 q 236 893 170 847 q 389 940 302 940 q 499 874 459 919 q 558 769 539 828 q 575 640 576 709 q 563 503 575 571 q 533 376 552 436 q 497 274 515 316 q 503 261 497 269 q 529 228 509 252 q 584 160 549 204 q 678 42 619 116 q 646 0 664 6 q 608 7 627 -5 q 567 47 588 20 q 526 103 546 74 q 487 159 505 133 q 455 198 469 185 m 94 357 q 99 277 94 325 q 120 187 104 230 q 163 114 136 145 q 236 84 191 84 q 296 105 264 84 q 354 155 328 126 q 397 217 380 184 q 414 275 414 250 q 405 304 414 288 q 384 336 396 320 q 361 367 373 352 q 344 397 350 382 q 374 395 361 397 q 401 390 388 394 q 426 377 414 386 q 456 352 439 368 q 485 433 472 386 q 504 534 498 481 q 508 640 510 587 q 492 741 506 694 q 450 825 477 789 q 380 881 423 862 q 310 863 344 881 q 258 815 277 846 l 281 792 q 209 768 239 793 q 158 703 179 743 q 125 613 137 663 q 105 515 112 564 q 96 424 98 466 q 94 357 94 382 "},"M":{"x_min":24.734375,"x_max":850.15625,"ha":860,"o":"m 647 803 q 635 763 643 789 q 616 704 627 737 q 593 634 605 671 q 569 565 581 598 q 549 507 557 533 q 536 469 540 481 q 506 377 524 434 q 464 265 488 320 q 406 172 439 211 q 327 134 373 134 q 246 160 279 134 q 187 223 212 185 q 145 303 163 260 q 114 381 127 345 l 109 48 q 85 6 109 13 q 41 25 62 0 q 32 395 34 199 q 24 785 30 591 q 26 811 24 796 q 46 826 27 826 q 78 799 66 836 q 100 699 89 762 q 125 556 111 636 q 163 404 140 477 q 226 274 187 330 q 324 200 264 218 q 387 248 358 208 q 441 350 415 288 q 490 488 467 412 q 538 646 514 564 q 589 809 563 728 q 647 959 616 889 q 699 951 685 971 q 713 892 712 931 l 848 135 q 849 103 848 124 q 848 60 850 82 q 840 20 846 37 q 817 0 833 2 q 796 48 807 1 q 775 168 785 94 q 751 333 764 242 q 722 513 738 424 q 688 679 707 602 q 647 803 670 756 "},"œ":{"x_min":17.984375,"x_max":692.828125,"ha":700,"o":"m 19 249 q 27 416 14 331 q 64 577 39 501 q 126 712 89 653 q 208 800 164 771 q 304 818 253 828 q 409 747 355 808 q 488 825 446 799 q 576 836 530 851 q 604 820 586 838 q 633 763 622 801 q 640 665 644 724 q 602 524 636 606 q 499 337 569 442 q 307 104 430 233 q 366 59 332 66 q 438 66 400 52 q 514 109 476 80 q 584 170 552 138 q 640 235 617 203 q 674 286 664 267 q 691 235 697 265 q 662 170 686 204 q 601 103 638 137 q 523 44 564 70 q 443 3 482 19 q 377 -10 404 -12 q 321 4 348 -10 q 272 42 294 19 q 157 -4 218 0 q 88 31 113 4 q 47 97 62 59 q 26 176 32 135 q 19 249 20 217 m 226 155 q 237 270 226 200 q 269 418 249 340 q 319 574 289 496 q 386 713 349 652 q 296 750 338 752 q 218 714 254 747 q 154 623 182 680 q 109 499 126 567 q 84 362 91 432 q 81 231 76 291 q 105 125 86 170 q 158 65 124 80 q 197 77 178 67 q 235 101 216 86 q 226 155 226 126 m 538 760 q 487 725 514 760 q 434 636 461 690 q 384 517 408 582 q 341 391 360 452 q 310 281 322 330 q 297 212 298 232 q 351 247 317 210 q 421 343 385 285 q 492 471 458 401 q 545 602 526 541 q 566 707 565 663 q 538 760 568 751 "},"ě":{"x_min":29.84375,"x_max":496.125,"ha":533,"o":"m 29 170 q 42 289 29 216 q 76 443 54 363 q 130 604 99 524 q 201 744 162 684 q 284 836 240 805 q 379 851 329 867 q 407 834 389 852 q 436 777 425 816 q 443 679 447 738 q 406 538 439 620 q 303 352 373 456 q 111 118 233 247 q 169 74 135 80 q 241 80 203 67 q 317 123 279 94 q 387 185 355 152 q 444 249 420 217 q 477 300 467 281 q 495 249 500 280 q 465 185 489 219 q 404 118 442 151 q 326 59 367 85 q 246 17 286 33 q 180 5 207 2 q 124 19 151 5 q 76 56 97 33 q 42 109 55 79 q 29 170 29 139 m 341 775 q 282 739 313 775 q 223 648 252 703 q 170 527 195 593 q 127 400 145 462 q 101 290 109 338 q 97 222 93 242 q 155 258 119 220 q 229 355 191 296 q 301 484 267 414 q 354 616 335 554 q 373 723 374 679 q 341 775 373 767 m 335 928 q 314 906 324 909 q 287 904 305 904 l 164 1053 q 170 1071 168 1061 q 176 1088 172 1081 q 188 1095 180 1095 q 213 1081 196 1095 l 298 971 l 388 1080 q 421 1099 411 1107 q 436 1064 432 1091 l 335 928 "},"ũ":{"x_min":3.703125,"x_max":557.125,"ha":533,"o":"m 166 -2 q 114 27 137 -9 q 77 129 92 65 q 53 274 62 192 q 41 438 44 355 q 37 595 37 521 q 40 721 37 670 q 44 736 40 725 q 55 757 47 747 q 77 771 63 766 q 113 770 92 777 q 109 731 112 763 q 105 649 107 698 q 103 541 104 601 q 104 420 103 481 q 109 300 105 359 q 122 194 113 241 q 141 118 130 148 q 170 84 153 88 q 241 133 204 89 q 311 244 278 177 q 371 391 344 310 q 413 552 398 472 q 429 706 428 633 q 409 828 430 778 q 417 835 411 831 q 430 843 423 839 q 443 849 436 846 q 453 852 450 852 q 481 831 472 852 q 495 784 491 811 q 499 731 499 757 q 500 696 500 705 q 491 599 501 662 q 461 462 481 537 q 413 309 442 388 q 345 164 383 230 q 263 52 307 97 q 166 -2 218 6 m 3 937 q 8 974 3 949 q 25 1023 13 998 q 57 1065 37 1047 q 108 1084 78 1084 q 177 1066 147 1084 q 235 1028 207 1048 q 295 989 264 1007 q 367 972 326 972 q 425 983 399 970 q 471 1016 451 996 q 504 1057 490 1035 q 527 1094 519 1079 q 537 1090 531 1095 q 548 1078 543 1085 q 556 1062 554 1071 q 554 1050 558 1054 q 536 1006 554 1028 q 490 966 517 984 q 431 937 463 949 q 372 926 399 926 q 243 960 300 927 q 125 1038 186 992 q 83 1022 97 1039 q 64 981 70 1005 q 55 933 57 958 q 47 897 52 909 q 15 913 28 897 q 3 937 3 929 "},"ŭ":{"x_min":37.984375,"x_max":500.6875,"ha":533,"o":"m 166 -2 q 114 27 137 -9 q 77 129 92 65 q 53 274 62 192 q 41 438 44 355 q 37 595 37 521 q 40 721 37 670 q 44 736 40 725 q 55 757 47 747 q 77 771 63 766 q 113 770 92 777 q 109 731 112 763 q 105 649 107 698 q 103 541 104 601 q 104 420 103 481 q 109 300 105 359 q 122 194 113 241 q 141 118 130 148 q 170 84 153 88 q 241 133 204 89 q 311 244 278 177 q 371 391 344 310 q 413 552 398 472 q 429 706 428 633 q 409 828 430 778 q 417 835 411 831 q 430 843 423 839 q 443 849 436 846 q 453 852 450 852 q 481 831 472 852 q 495 784 491 811 q 499 731 499 757 q 500 696 500 705 q 491 599 501 662 q 461 462 481 537 q 413 309 442 388 q 345 164 383 230 q 263 52 307 97 q 166 -2 218 6 m 153 1007 q 192 954 171 968 q 235 941 213 939 q 278 954 257 942 q 318 978 299 965 q 349 1000 336 991 q 367 1007 362 1010 q 386 1000 386 1015 q 369 963 385 985 q 324 918 352 941 q 261 890 295 896 q 187 903 226 884 q 111 980 147 922 l 153 1007 "},"{":{"x_min":43,"x_max":495.09375,"ha":601,"o":"m 209 -88 q 245 7 222 -36 q 292 93 269 51 q 334 177 315 135 q 358 268 353 219 q 343 353 358 318 q 305 411 328 387 q 256 450 282 435 q 207 475 231 465 q 169 496 184 486 q 155 518 155 505 q 180 550 156 542 q 233 565 205 558 q 283 585 262 572 q 303 631 305 599 q 244 671 286 642 q 157 735 202 699 q 77 806 112 770 q 43 867 43 842 q 64 959 43 912 q 122 1044 85 1006 q 208 1106 158 1082 q 318 1131 259 1131 q 444 1101 393 1131 q 495 1008 495 1071 q 470 999 480 1000 q 455 1001 461 999 q 446 1010 448 1004 q 440 1020 443 1015 q 421 1049 436 1037 q 386 1069 405 1061 q 347 1081 367 1077 q 314 1086 328 1086 q 229 1069 268 1086 q 160 1024 189 1052 q 115 961 131 996 q 99 888 99 926 q 142 816 109 847 q 215 759 175 786 q 299 704 256 732 q 374 645 342 677 q 376 630 374 642 q 379 615 379 618 q 368 581 379 592 q 344 563 358 570 q 313 547 330 555 q 283 524 296 539 q 375 420 336 474 q 429 287 414 366 q 416 185 434 231 q 370 96 397 139 q 311 9 342 54 q 263 -88 281 -35 q 296 -141 271 -124 q 353 -162 320 -158 q 421 -163 385 -166 q 484 -155 456 -160 q 461 -182 476 -170 q 427 -201 446 -193 q 389 -212 408 -208 q 351 -217 369 -217 q 296 -205 321 -217 q 250 -175 270 -193 q 220 -134 231 -157 q 209 -88 209 -111 "},"#":{"x_min":18.171875,"x_max":800.609375,"ha":836,"o":"m 285 203 q 170 168 220 179 q 87 160 119 158 q 42 171 54 161 q 41 198 30 181 l 282 275 l 263 531 q 224 512 252 524 q 165 484 197 499 q 104 458 133 470 q 64 442 76 446 q 24 461 33 442 q 19 508 15 480 q 146 553 84 530 q 263 619 208 576 l 263 820 q 271 834 263 828 q 288 843 278 839 q 307 849 297 847 q 323 849 317 850 l 331 637 q 355 642 336 637 q 395 653 373 647 q 435 666 416 660 q 457 675 453 672 q 465 771 468 727 q 460 847 461 815 q 469 895 458 878 q 521 910 480 912 q 522 856 521 878 q 522 811 522 834 q 523 761 522 788 q 524 697 524 735 l 771 774 q 793 751 783 765 q 800 721 802 737 l 534 619 l 553 366 q 674 393 614 374 q 795 417 733 412 q 780 369 795 385 q 735 343 765 354 q 662 322 705 333 q 564 287 620 311 l 575 13 q 545 10 556 2 q 526 40 533 18 q 516 90 519 61 q 510 153 513 120 q 504 217 507 185 q 494 271 501 248 l 342 214 q 345 195 343 217 q 345 141 346 173 q 342 71 345 108 q 332 8 339 35 q 314 -28 326 -17 q 285 -18 302 -39 l 285 203 m 331 553 l 345 298 l 478 341 l 469 602 l 331 553 "},"Ê":{"x_min":41.921875,"x_max":782.4375,"ha":800,"o":"m 42 163 q 61 253 40 208 q 108 336 81 298 q 157 406 134 375 q 184 452 180 436 q 158 456 182 454 q 108 468 134 458 q 61 499 81 478 q 45 556 40 519 q 79 681 53 614 q 148 805 105 748 q 246 898 191 861 q 368 936 302 936 q 420 915 397 934 q 455 874 444 896 q 462 834 466 853 q 431 815 458 816 q 385 868 420 850 q 309 878 349 886 q 245 842 279 871 q 181 772 211 813 q 130 686 151 732 q 104 602 108 641 q 117 537 100 564 q 184 509 135 511 q 255 527 220 509 q 322 566 290 545 q 385 605 355 587 q 444 625 416 623 q 457 624 450 625 q 471 621 465 623 q 484 614 478 619 q 489 600 489 610 q 461 555 489 579 q 391 506 433 532 q 300 448 349 480 q 208 377 250 416 q 138 292 166 338 q 111 188 111 245 q 123 127 111 151 q 157 89 135 102 q 207 70 178 75 q 266 65 235 65 q 409 90 341 65 q 538 157 477 116 q 654 250 600 199 q 756 355 709 302 l 782 355 q 754 275 782 317 q 682 193 726 233 q 583 118 638 154 q 472 55 527 82 q 368 12 417 28 q 287 -3 319 -3 q 205 4 248 -3 q 125 31 162 11 q 65 83 89 51 q 42 163 42 115 m 303 1129 q 324 1151 314 1148 q 351 1154 333 1154 l 448 1022 q 442 1002 444 1014 q 434 983 439 991 q 419 974 428 974 q 393 987 409 973 l 333 1060 l 284 981 q 249 967 269 962 q 219 989 229 972 l 303 1129 "},")":{"x_min":-3.15625,"x_max":334,"ha":350,"o":"m 118 -68 q 81 -59 95 -68 q 62 -40 68 -51 q 58 -19 57 -30 q 65 -3 58 -9 q 158 12 119 -3 q 221 60 197 28 q 256 144 245 93 q 269 268 267 196 q 260 393 269 322 q 235 539 251 464 q 197 686 218 614 q 148 819 175 759 q 90 918 121 878 q 27 965 60 957 q 10 980 19 965 q -1 1012 1 995 q 0 1041 -5 1029 q 19 1048 3 1053 q 123 1000 77 1048 q 203 878 168 953 q 263 710 239 802 q 303 529 287 618 q 326 364 319 440 q 334 246 334 288 q 321 118 334 177 q 281 17 308 59 q 214 -47 255 -24 q 118 -68 172 -70 "},"ș":{"x_min":32.8125,"x_max":482.671875,"ha":511,"o":"m 260 -3 q 177 5 216 0 q 107 22 138 11 q 56 49 76 33 q 32 89 36 66 q 83 83 57 89 q 136 69 109 77 q 190 55 162 61 q 246 49 218 49 q 304 56 273 49 q 361 79 336 63 q 404 119 387 95 q 421 177 421 143 q 395 263 421 222 q 328 343 368 304 q 242 422 288 382 q 156 502 196 461 q 90 588 116 544 q 64 683 64 633 q 85 751 64 720 q 138 802 107 781 q 207 835 170 823 q 277 848 245 848 q 328 842 302 850 q 372 815 353 834 q 400 769 391 797 q 399 706 409 741 q 389 673 395 683 q 374 665 382 664 q 358 675 367 667 q 340 694 349 683 q 339 728 340 710 q 334 760 338 745 q 320 783 330 774 q 290 792 310 792 q 235 783 264 792 q 184 760 207 775 q 145 722 161 744 q 130 669 130 699 q 149 608 123 644 q 218 531 176 573 q 310 443 260 489 q 401 349 360 397 q 465 252 441 300 q 479 159 489 204 q 457 79 475 110 q 409 28 439 47 q 341 3 379 10 q 260 -3 303 -3 m 159 -341 q 154 -342 160 -340 q 140 -347 148 -344 q 126 -352 133 -349 q 119 -354 119 -355 q 98 -335 104 -362 q 95 -266 92 -307 q 109 -179 99 -225 q 135 -102 119 -132 q 171 -66 150 -71 q 217 -101 192 -61 l 159 -341 "},"Å":{"x_min":12.203125,"x_max":740.625,"ha":779,"o":"m 12 -82 q 27 -27 12 -63 q 63 47 43 8 q 101 121 84 87 q 123 172 119 156 q 138 228 126 186 q 166 327 150 270 q 200 447 181 383 q 233 568 218 511 q 261 667 249 625 q 276 724 272 710 q 291 792 283 749 q 313 876 299 835 q 347 945 326 916 q 401 975 368 975 q 421 966 412 975 q 438 947 431 958 q 451 925 446 937 q 457 905 455 914 q 505 714 485 793 q 540 584 526 636 q 564 503 554 533 q 579 460 573 474 q 586 442 584 446 q 590 439 588 439 q 636 461 614 453 q 686 466 659 469 q 674 430 686 444 q 647 404 661 416 q 621 377 633 392 q 610 341 610 363 q 630 249 610 293 q 675 161 651 205 q 720 75 699 118 q 740 -13 740 32 q 684 -17 706 -30 q 644 28 661 -3 q 615 104 628 59 q 588 193 603 149 q 552 274 572 237 q 503 331 533 312 q 475 323 499 331 q 418 303 451 316 q 347 273 385 290 q 276 238 309 256 q 219 204 242 221 q 189 172 195 187 l 101 -94 q 82 -116 94 -113 q 56 -119 70 -119 q 25 -110 39 -119 q 12 -82 12 -102 m 234 305 q 282 316 248 309 q 360 337 317 324 q 446 369 402 350 q 519 417 489 389 q 505 474 515 435 q 482 560 495 512 q 454 661 469 608 q 425 760 439 714 q 398 842 411 806 q 377 889 385 877 l 234 305 m 357 1028 q 292 1042 314 1029 q 265 1075 269 1056 q 273 1115 261 1094 q 307 1153 284 1136 q 359 1179 329 1170 q 425 1183 390 1189 q 491 1143 475 1170 q 494 1089 507 1116 q 446 1044 482 1063 q 357 1028 410 1025 m 402 1145 q 351 1136 372 1146 q 322 1113 330 1127 q 322 1084 314 1098 q 359 1061 330 1070 q 419 1075 397 1063 q 447 1102 441 1088 q 441 1128 452 1116 q 402 1145 429 1140 "},"¸":{"x_min":80.65625,"x_max":343,"ha":369,"o":"m 83 -233 q 82 -207 78 -218 q 94 -191 86 -196 q 112 -189 102 -187 q 127 -203 121 -192 q 164 -256 138 -237 q 218 -279 190 -275 q 267 -271 245 -283 q 294 -229 289 -259 q 281 -182 294 -200 q 249 -149 268 -164 q 208 -123 230 -135 q 166 -95 185 -111 q 134 -59 147 -80 q 122 -5 122 -37 q 121 46 112 32 q 143 57 130 61 q 166 35 155 54 q 169 -13 176 16 q 206 -52 178 -33 q 264 -95 234 -71 q 317 -149 294 -119 q 343 -221 341 -179 q 310 -312 340 -284 q 239 -339 280 -340 q 155 -309 199 -337 q 83 -233 112 -282 "},"a":{"x_min":22.703125,"x_max":793.890625,"ha":738,"o":"m 134 -3 q 63 32 88 -1 q 28 123 37 67 q 25 250 18 178 q 48 398 31 322 q 94 549 66 474 q 155 685 122 623 q 229 791 189 747 q 309 849 268 835 q 366 836 343 849 q 406 801 390 823 q 433 752 423 779 q 450 697 443 725 q 459 733 451 709 q 476 777 466 758 q 498 804 486 797 q 520 789 510 811 q 496 543 503 646 q 491 368 489 440 q 501 252 492 296 q 527 181 511 207 q 565 143 543 155 q 613 124 587 131 q 676 130 649 117 q 722 165 702 143 q 758 210 743 186 q 789 246 774 233 q 788 185 798 218 q 753 125 777 153 q 695 80 729 97 q 622 64 660 63 q 526 96 564 64 q 467 174 489 127 q 435 276 444 222 q 423 378 425 330 q 383 274 408 338 q 324 148 359 210 q 242 41 290 86 q 134 -3 195 -3 m 311 789 q 266 758 291 787 q 214 681 241 729 q 162 571 187 633 q 117 445 137 510 q 86 316 97 380 q 75 198 74 251 q 93 109 77 146 q 145 61 109 72 q 198 79 169 56 q 254 143 226 102 q 307 239 282 184 q 356 354 333 295 q 394 473 378 414 q 417 582 409 532 q 412 642 417 607 q 394 710 406 677 q 362 765 382 742 q 311 789 341 789 "},"Ę":{"x_min":41.921875,"x_max":782.4375,"ha":800,"o":"m 42 163 q 61 253 40 208 q 108 336 81 298 q 157 406 134 375 q 184 452 180 436 q 158 456 182 454 q 108 468 134 458 q 61 499 81 478 q 45 556 40 519 q 79 681 53 614 q 148 805 105 748 q 246 898 191 861 q 368 936 302 936 q 420 915 397 934 q 455 874 444 896 q 462 834 466 853 q 431 815 458 816 q 385 868 420 850 q 309 878 349 886 q 245 842 279 871 q 181 772 211 813 q 130 686 151 732 q 104 602 108 641 q 117 537 100 564 q 184 509 135 511 q 255 527 220 509 q 322 566 290 545 q 385 605 355 587 q 444 625 416 623 q 457 624 450 625 q 471 621 465 623 q 484 614 478 619 q 489 600 489 610 q 461 555 489 579 q 391 506 433 532 q 300 448 349 480 q 208 377 250 416 q 138 292 166 338 q 111 188 111 245 q 123 127 111 151 q 157 89 135 102 q 207 70 178 75 q 266 65 235 65 q 409 90 341 65 q 538 157 477 116 q 654 250 600 199 q 756 355 709 302 l 782 355 q 754 275 782 317 q 682 193 726 233 q 583 118 638 154 q 472 55 527 82 q 368 12 417 28 q 287 -3 319 -3 q 205 4 248 -3 q 125 31 162 11 q 65 83 89 51 q 42 163 42 115 m 675 -45 q 622 -74 655 -66 q 556 -77 589 -83 q 501 -49 524 -71 q 477 16 477 -26 q 482 44 477 24 q 495 85 486 64 q 520 125 505 106 q 559 151 536 144 l 586 127 q 546 84 562 111 q 528 31 530 57 q 539 -13 526 5 q 583 -32 552 -32 q 626 -30 608 -32 q 675 -45 644 -28 "},"=":{"x_min":74.953125,"x_max":624.171875,"ha":712,"o":"m 105 423 q 75 452 77 434 q 84 480 73 470 l 569 510 q 584 504 573 510 q 600 490 595 499 q 596 469 604 481 q 556 444 588 458 l 105 423 m 124 244 q 104 258 109 249 q 98 275 99 267 q 101 293 97 284 q 111 306 105 302 l 596 336 q 610 330 600 336 q 623 313 619 324 q 617 291 626 303 q 575 265 607 279 l 124 244 "},"˚":{"x_min":16.5625,"x_max":252.234375,"ha":266,"o":"m 109 857 q 44 871 66 858 q 17 904 21 885 q 25 944 13 923 q 59 982 36 965 q 111 1008 81 999 q 177 1012 142 1018 q 243 972 227 999 q 246 918 259 945 q 198 873 234 892 q 109 857 162 854 m 154 974 q 103 965 124 975 q 74 942 82 956 q 74 913 66 927 q 111 890 82 899 q 171 904 149 892 q 199 931 193 917 q 193 957 204 945 q 154 974 181 969 "},"ú":{"x_min":37.984375,"x_max":500.6875,"ha":533,"o":"m 166 -2 q 114 27 137 -9 q 77 129 92 65 q 53 274 62 192 q 41 438 44 355 q 37 595 37 521 q 40 721 37 670 q 44 736 40 725 q 55 757 47 747 q 77 771 63 766 q 113 770 92 777 q 109 731 112 763 q 105 649 107 698 q 103 541 104 601 q 104 420 103 481 q 109 300 105 359 q 122 194 113 241 q 141 118 130 148 q 170 84 153 88 q 241 133 204 89 q 311 244 278 177 q 371 391 344 310 q 413 552 398 472 q 429 706 428 633 q 409 828 430 778 q 417 835 411 831 q 430 843 423 839 q 443 849 436 846 q 453 852 450 852 q 481 831 472 852 q 495 784 491 811 q 499 731 499 757 q 500 696 500 705 q 491 599 501 662 q 461 462 481 537 q 413 309 442 388 q 345 164 383 230 q 263 52 307 97 q 166 -2 218 6 m 262 909 q 236 896 245 895 q 221 905 226 897 q 213 924 216 913 q 206 944 210 936 l 298 1068 q 325 1065 316 1068 q 346 1043 335 1062 l 262 909 "},"¯":{"x_min":17.640625,"x_max":484.25,"ha":511,"o":"m 17 912 q 23 941 17 923 q 35 967 28 960 l 480 952 l 484 894 l 17 912 "},"Z":{"x_min":20.34375,"x_max":827.59375,"ha":845,"o":"m 248 -49 q 150 -18 176 -47 q 128 55 124 10 q 155 155 131 100 q 204 260 179 210 q 249 353 230 311 q 263 416 268 395 q 213 410 238 420 q 166 391 188 401 q 129 382 145 382 q 107 405 113 382 q 121 445 107 431 q 157 467 135 459 q 205 480 179 475 q 257 490 231 484 q 302 508 282 497 q 332 539 322 519 q 366 616 348 576 q 401 697 385 656 q 427 781 417 739 q 438 866 438 824 q 307 858 364 870 q 206 826 250 846 q 126 785 161 806 q 62 752 92 764 q 35 760 47 752 q 20 783 23 768 q 58 827 28 805 q 129 868 88 848 q 219 903 170 888 q 315 929 268 919 q 401 943 362 939 q 465 939 440 946 q 501 909 492 931 q 508 855 511 886 q 495 785 505 824 q 470 705 484 747 q 442 621 457 663 q 420 539 428 579 q 583 566 511 554 q 732 583 655 577 q 722 528 736 546 q 683 500 709 509 q 622 488 657 490 q 547 481 587 485 q 464 468 507 477 q 382 439 421 459 q 337 351 366 404 q 278 243 307 299 q 225 134 248 188 q 200 43 203 81 q 286 18 233 20 q 401 31 339 17 q 530 70 463 44 q 654 126 596 96 q 755 190 712 157 q 816 252 798 223 q 817 172 838 210 q 747 103 796 135 q 630 45 698 71 q 492 0 562 18 q 356 -32 421 -19 q 248 -49 291 -44 "},"":{"x_min":95.765625,"x_max":218.390625,"ha":362,"o":"m 160 -341 q 155 -342 161 -340 q 141 -347 149 -344 q 127 -352 134 -349 q 120 -354 120 -355 q 99 -335 105 -362 q 96 -266 93 -307 q 110 -179 100 -225 q 136 -102 120 -132 q 172 -66 151 -71 q 218 -101 193 -61 l 160 -341 "},"u":{"x_min":37.984375,"x_max":500.6875,"ha":515,"o":"m 166 -2 q 114 27 137 -9 q 77 129 92 65 q 53 274 62 192 q 41 438 44 355 q 37 595 37 521 q 40 721 37 670 q 44 736 40 725 q 55 757 47 747 q 77 771 63 766 q 113 770 92 777 q 109 731 112 763 q 105 649 107 698 q 103 541 104 601 q 104 420 103 481 q 109 300 105 359 q 122 194 113 241 q 141 118 130 148 q 170 84 153 88 q 241 133 204 89 q 311 244 278 177 q 371 391 344 310 q 413 552 398 472 q 429 706 428 633 q 409 828 430 778 q 417 835 411 831 q 430 843 423 839 q 443 849 436 846 q 453 852 450 852 q 481 831 472 852 q 495 784 491 811 q 499 731 499 757 q 500 696 500 705 q 491 599 501 662 q 461 462 481 537 q 413 309 442 388 q 345 164 383 230 q 263 52 307 97 q 166 -2 218 6 "},"k":{"x_min":24.3125,"x_max":650.9375,"ha":657,"o":"m 65 -8 q 58 247 65 127 q 44 484 51 367 q 31 724 37 602 q 24 984 24 846 q 41 1007 29 1003 q 64 1007 52 1011 q 85 991 77 1002 q 92 971 93 980 l 128 374 q 190 448 161 401 q 247 552 219 496 q 304 666 276 609 q 360 773 331 724 q 377 778 368 779 q 392 770 386 777 q 402 753 399 763 q 401 735 405 743 q 389 690 401 718 q 360 626 378 661 q 320 552 342 591 q 275 474 298 512 q 233 402 253 436 q 200 344 213 368 q 266 305 224 329 q 358 255 308 282 q 458 201 407 229 q 549 149 508 173 q 618 110 590 126 q 646 90 645 94 q 650 75 652 84 q 643 59 649 66 q 626 47 637 51 q 601 46 615 43 q 510 84 547 65 q 445 122 474 103 q 390 160 416 141 q 331 199 364 179 q 253 240 299 219 q 142 284 208 261 l 142 -4 q 132 -20 142 -13 q 110 -29 123 -27 q 85 -26 98 -31 q 65 -8 73 -21 "},"Ù":{"x_min":11.453125,"x_max":577.46875,"ha":623,"o":"m 181 5 q 90 104 124 46 q 38 230 55 161 q 16 374 21 298 q 11 525 10 449 q 14 673 12 601 q 13 810 16 746 q 37 829 23 823 q 67 833 52 836 q 72 707 73 774 q 70 569 71 640 q 71 427 69 498 q 86 291 74 355 q 122 171 97 226 q 189 76 146 115 q 302 91 250 57 q 394 192 354 125 q 461 351 434 259 q 503 540 489 443 q 516 728 518 636 q 499 887 515 819 q 470 817 482 834 q 448 806 457 800 q 438 835 440 812 q 442 882 436 857 q 461 928 447 907 q 499 954 474 949 q 552 885 533 937 q 575 759 571 833 q 571 596 580 685 q 541 419 562 507 q 484 250 519 331 q 404 109 450 168 q 303 20 359 50 q 181 5 248 -9 m 183 1101 q 203 1123 194 1120 q 231 1126 213 1126 l 323 1002 q 316 982 319 994 q 308 963 313 971 q 293 954 302 955 q 267 967 283 953 l 183 1101 "},"Ů":{"x_min":11.453125,"x_max":577.46875,"ha":623,"o":"m 181 5 q 90 104 124 46 q 38 230 55 161 q 16 374 21 298 q 11 525 10 449 q 14 673 12 601 q 13 810 16 746 q 37 829 23 823 q 67 833 52 836 q 72 707 73 774 q 70 569 71 640 q 71 427 69 498 q 86 291 74 355 q 122 171 97 226 q 189 76 146 115 q 302 91 250 57 q 394 192 354 125 q 461 351 434 259 q 503 540 489 443 q 516 728 518 636 q 499 887 515 819 q 470 817 482 834 q 448 806 457 800 q 438 835 440 812 q 442 882 436 857 q 461 928 447 907 q 499 954 474 949 q 552 885 533 937 q 575 759 571 833 q 571 596 580 685 q 541 419 562 507 q 484 250 519 331 q 404 109 450 168 q 303 20 359 50 q 181 5 248 -9 m 235 933 q 170 947 192 934 q 143 980 147 961 q 151 1020 139 999 q 185 1058 162 1041 q 237 1084 207 1075 q 303 1088 268 1094 q 369 1048 353 1075 q 372 994 385 1021 q 324 949 360 968 q 235 933 288 930 m 280 1050 q 229 1041 250 1051 q 200 1018 208 1032 q 200 989 192 1003 q 237 966 208 975 q 297 980 275 968 q 325 1007 319 993 q 319 1033 330 1021 q 280 1050 307 1045 "},"Ş":{"x_min":19,"x_max":622,"ha":644,"o":"m 172 69 q 176 75 172 70 q 187 86 181 80 q 198 97 193 92 q 203 103 203 101 q 269 63 242 70 q 336 57 296 57 q 410 74 371 57 q 483 120 450 92 q 538 184 516 149 q 560 256 560 219 q 520 339 560 309 q 419 390 480 370 q 289 426 359 411 q 159 462 219 441 q 59 514 99 483 q 19 598 19 545 q 42 717 19 656 q 107 825 66 777 q 201 904 148 873 q 314 935 255 935 q 382 921 352 935 q 431 883 411 907 q 462 828 451 860 q 473 761 473 797 q 472 715 473 736 q 467 672 470 693 q 459 628 464 651 q 447 579 454 606 q 443 575 446 576 q 436 575 439 575 q 407 597 412 575 q 403 651 401 618 q 408 723 405 685 q 404 794 411 761 q 375 849 397 827 q 304 871 352 871 q 224 849 263 871 q 154 795 184 828 q 105 718 123 761 q 87 632 87 675 q 126 557 87 587 q 225 505 166 527 q 354 465 284 484 q 483 424 424 447 q 582 369 542 401 q 622 288 622 337 q 599 187 622 238 q 539 93 577 135 q 453 24 501 51 q 355 -3 405 -3 q 306 0 337 -3 q 245 12 275 3 q 193 33 215 20 q 172 69 172 47 m 208 -237 q 207 -211 203 -222 q 219 -195 211 -200 q 237 -193 227 -191 q 252 -207 246 -196 q 289 -260 263 -241 q 343 -283 315 -279 q 392 -275 370 -287 q 419 -233 414 -263 q 406 -186 419 -204 q 374 -153 393 -168 q 333 -127 355 -139 q 291 -99 310 -115 q 259 -63 272 -84 q 247 -9 247 -41 q 246 42 237 28 q 268 53 255 57 q 291 31 280 50 q 294 -17 301 12 q 331 -56 303 -37 q 389 -99 359 -75 q 442 -153 419 -123 q 468 -225 466 -183 q 435 -316 465 -288 q 364 -343 405 -344 q 280 -313 324 -341 q 208 -237 237 -286 "},"é":{"x_min":29.84375,"x_max":496.125,"ha":533,"o":"m 29 170 q 42 289 29 216 q 76 443 54 363 q 130 604 99 524 q 201 744 162 684 q 284 836 240 805 q 379 851 329 867 q 407 834 389 852 q 436 777 425 816 q 443 679 447 738 q 406 538 439 620 q 303 352 373 456 q 111 118 233 247 q 169 74 135 80 q 241 80 203 67 q 317 123 279 94 q 387 185 355 152 q 444 249 420 217 q 477 300 467 281 q 495 249 500 280 q 465 185 489 219 q 404 118 442 151 q 326 59 367 85 q 246 17 286 33 q 180 5 207 2 q 124 19 151 5 q 76 56 97 33 q 42 109 55 79 q 29 170 29 139 m 341 775 q 282 739 313 775 q 223 648 252 703 q 170 527 195 593 q 127 400 145 462 q 101 290 109 338 q 97 222 93 242 q 155 258 119 220 q 229 355 191 296 q 301 484 267 414 q 354 616 335 554 q 373 723 374 679 q 341 775 373 767 m 282 923 q 256 910 265 909 q 241 919 246 911 q 233 938 236 927 q 226 958 230 950 l 318 1082 q 345 1079 336 1082 q 366 1057 355 1076 l 282 923 "},"B":{"x_min":25.578125,"x_max":829,"ha":890,"o":"m 206 97 q 187 410 195 257 q 161 720 178 563 q 140 698 146 710 q 130 676 135 686 q 115 659 124 666 q 86 652 106 652 q 66 653 77 652 q 46 657 55 654 q 31 668 37 660 q 25 687 25 675 q 26 692 25 689 q 28 698 28 696 q 96 763 73 736 q 138 811 119 791 q 180 846 157 831 q 250 876 204 861 q 322 905 282 890 q 404 932 362 921 q 490 949 447 944 q 568 947 533 955 q 633 917 604 940 q 675 852 661 895 q 646 763 671 812 q 586 664 621 713 q 513 570 552 614 q 446 498 474 526 q 509 497 470 496 q 590 495 548 498 q 674 486 632 493 q 752 462 717 479 q 807 416 786 445 q 829 343 829 388 q 789 198 829 267 q 688 78 750 130 q 552 -3 626 27 q 406 -35 477 -35 q 342 -26 374 -35 q 283 -2 310 -18 q 235 38 256 13 q 206 97 215 63 m 272 97 q 353 38 304 53 q 457 33 402 24 q 567 70 512 42 q 667 139 622 99 q 739 227 711 179 q 767 323 767 275 q 745 394 767 367 q 692 434 724 420 q 622 451 660 447 q 550 456 584 456 q 513 454 538 456 q 456 449 488 453 q 393 437 425 445 q 333 416 360 428 q 289 386 306 404 q 272 343 272 367 l 272 97 m 585 876 q 540 897 570 894 q 474 893 510 899 q 398 872 437 886 q 323 842 358 859 q 262 811 288 826 q 227 784 236 795 l 251 476 q 259 463 251 471 q 273 455 267 455 q 335 478 300 455 q 408 537 370 501 q 481 619 445 574 q 545 708 517 663 q 590 792 573 753 q 607 855 607 830 q 598 866 607 857 q 585 876 590 874 "},"…":{"x_min":27.71875,"x_max":418.3125,"ha":448,"o":"m 108 92 q 118 67 115 86 q 115 30 122 47 q 90 6 109 13 q 35 16 71 -1 q 29 57 24 37 q 46 88 33 77 q 75 102 58 100 q 108 92 92 104 m 257 92 q 267 67 264 86 q 265 30 271 47 q 240 6 259 13 q 184 16 221 -1 q 178 57 173 37 q 195 88 183 77 q 224 102 207 100 q 257 92 241 104 m 406 92 q 417 67 413 86 q 414 30 420 47 q 389 6 408 13 q 333 16 370 -1 q 327 57 322 37 q 344 88 332 77 q 373 102 356 100 q 406 92 390 104 "},"ē":{"x_min":29.84375,"x_max":526.25,"ha":533,"o":"m 29 170 q 42 289 29 216 q 76 443 54 363 q 130 604 99 524 q 201 744 162 684 q 284 836 240 805 q 379 851 329 867 q 407 834 389 852 q 436 777 425 816 q 443 679 447 738 q 406 538 439 620 q 303 352 373 456 q 111 118 233 247 q 169 74 135 80 q 241 80 203 67 q 317 123 279 94 q 387 185 355 152 q 444 249 420 217 q 477 300 467 281 q 495 249 500 280 q 465 185 489 219 q 404 118 442 151 q 326 59 367 85 q 246 17 286 33 q 180 5 207 2 q 124 19 151 5 q 76 56 97 33 q 42 109 55 79 q 29 170 29 139 m 341 775 q 282 739 313 775 q 223 648 252 703 q 170 527 195 593 q 127 400 145 462 q 101 290 109 338 q 97 222 93 242 q 155 258 119 220 q 229 355 191 296 q 301 484 267 414 q 354 616 335 554 q 373 723 374 679 q 341 775 373 767 m 59 927 q 65 956 59 938 q 77 982 70 975 l 522 967 l 526 909 l 59 927 "},"H":{"x_min":42.15625,"x_max":621.234375,"ha":667,"o":"m 87 301 q 47 305 55 297 q 45 333 38 313 q 67 347 50 339 q 89 355 84 355 q 106 500 102 421 q 112 657 111 579 q 114 809 114 736 q 117 935 114 881 q 158 946 144 945 q 178 940 172 946 q 185 923 185 934 q 185 897 185 911 q 181 704 185 796 q 177 511 177 613 q 177 489 177 504 q 177 455 177 473 q 178 421 178 438 q 178 400 178 405 q 225 421 192 408 q 297 451 258 435 q 378 486 336 467 q 455 523 420 504 q 512 561 489 542 q 534 598 534 580 q 525 765 534 679 q 515 935 515 851 q 553 950 536 963 q 578 889 571 938 q 583 832 579 873 q 591 746 587 792 q 597 658 594 699 q 601 600 599 617 q 619 588 616 600 q 619 561 622 576 q 610 531 616 546 q 601 511 603 516 l 608 10 q 593 0 608 4 q 548 -5 578 -2 l 532 486 q 438 467 494 486 q 329 421 382 448 q 232 364 275 394 q 178 311 190 333 q 178 271 176 301 q 182 209 180 242 q 186 145 184 176 q 187 103 187 115 q 169 29 187 61 q 134 0 152 -2 q 119 67 125 20 q 107 163 112 113 q 97 253 102 212 q 87 301 92 294 "},"î":{"x_min":-8.3125,"x_max":220.9375,"ha":209,"o":"m 97 825 q 139 628 123 736 q 163 411 154 519 q 175 203 172 302 q 181 38 179 104 q 166 6 181 11 q 126 5 150 1 q 96 403 108 203 q 52 801 84 603 l 97 825 m 75 1007 q 96 1029 86 1026 q 123 1032 105 1032 l 220 900 q 214 880 216 892 q 206 861 211 869 q 191 852 200 852 q 165 865 181 851 l 105 938 l 56 859 q 21 845 41 840 q -8 867 1 850 l 75 1007 "},"−":{"x_min":50.59375,"x_max":526.296875,"ha":572,"o":"m 526 376 q 454 370 501 376 q 349 358 406 363 q 234 351 293 353 q 132 355 176 348 q 65 378 88 361 q 55 429 42 395 l 526 448 l 526 376 l 526 376 "},"¥":{"x_min":21.5,"x_max":571.0625,"ha":578,"o":"m 420 328 q 417 294 417 311 q 415 260 416 277 q 444 262 431 261 q 465 263 458 263 q 493 262 476 263 q 526 261 510 261 q 556 260 543 261 q 571 260 569 260 l 571 193 l 520 184 q 458 181 485 182 q 408 181 431 181 q 404 116 405 148 q 400 52 402 85 l 400 44 q 391 33 397 40 q 378 20 385 27 q 364 7 371 13 q 355 0 358 1 q 349 -1 352 -1 q 345 -3 348 -3 l 344 -3 q 337 -1 340 -3 q 333 0 335 -1 q 319 11 328 2 q 310 21 310 20 l 310 175 q 238 161 278 169 q 128 134 199 152 q 116 131 126 134 q 95 123 107 127 q 74 116 84 119 q 62 112 65 112 q 48 118 52 112 q 41 131 43 123 q 38 146 39 138 q 37 159 37 154 q 63 193 37 178 q 128 218 89 207 q 217 237 168 229 q 311 251 265 246 l 311 327 q 260 324 279 326 q 223 320 241 322 q 184 316 206 318 q 124 314 162 314 q 93 316 109 314 q 71 339 77 319 q 122 389 96 375 q 177 405 147 403 q 240 402 207 407 q 309 394 272 396 q 279 430 298 407 q 241 481 260 454 q 204 534 222 507 q 177 578 187 560 q 149 633 165 599 q 115 704 132 667 q 80 778 97 742 q 48 845 62 815 q 27 894 35 875 q 21 913 20 913 l 78 930 q 123 829 96 892 q 183 698 150 765 q 254 574 215 632 q 333 489 293 515 q 349 580 340 519 q 370 713 359 641 q 396 855 382 784 q 429 976 411 926 q 469 1043 447 1025 q 518 1025 491 1061 q 484 849 497 926 q 460 700 470 772 q 442 557 450 629 q 425 395 434 484 q 476 395 453 395 q 507 396 500 396 q 516 381 516 396 q 516 355 516 366 l 420 328 "},"Ĥ":{"x_min":42.15625,"x_max":621.234375,"ha":667,"o":"m 87 301 q 47 305 55 297 q 45 333 38 313 q 67 347 50 339 q 89 355 84 355 q 106 500 102 421 q 112 657 111 579 q 114 809 114 736 q 117 935 114 881 q 158 946 144 945 q 178 940 172 946 q 185 923 185 934 q 185 897 185 911 q 181 704 185 796 q 177 511 177 613 q 177 489 177 504 q 177 455 177 473 q 178 421 178 438 q 178 400 178 405 q 225 421 192 408 q 297 451 258 435 q 378 486 336 467 q 455 523 420 504 q 512 561 489 542 q 534 598 534 580 q 525 765 534 679 q 515 935 515 851 q 553 950 536 963 q 578 889 571 938 q 583 832 579 873 q 591 746 587 792 q 597 658 594 699 q 601 600 599 617 q 619 588 616 600 q 619 561 622 576 q 610 531 616 546 q 601 511 603 516 l 608 10 q 593 0 608 4 q 548 -5 578 -2 l 532 486 q 438 467 494 486 q 329 421 382 448 q 232 364 275 394 q 178 311 190 333 q 178 271 176 301 q 182 209 180 242 q 186 145 184 176 q 187 103 187 115 q 169 29 187 61 q 134 0 152 -2 q 119 67 125 20 q 107 163 112 113 q 97 253 102 212 q 87 301 92 294 m 291 1208 q 312 1230 302 1227 q 339 1233 321 1233 l 436 1101 q 430 1081 432 1093 q 422 1062 427 1070 q 407 1053 416 1053 q 381 1066 397 1052 l 321 1139 l 272 1060 q 237 1046 257 1041 q 207 1068 217 1051 l 291 1208 "},"U":{"x_min":11.453125,"x_max":577.46875,"ha":623,"o":"m 181 5 q 90 104 124 46 q 38 230 55 161 q 16 374 21 298 q 11 525 10 449 q 14 673 12 601 q 13 810 16 746 q 37 829 23 823 q 67 833 52 836 q 72 707 73 774 q 70 569 71 640 q 71 427 69 498 q 86 291 74 355 q 122 171 97 226 q 189 76 146 115 q 302 91 250 57 q 394 192 354 125 q 461 351 434 259 q 503 540 489 443 q 516 728 518 636 q 499 887 515 819 q 470 817 482 834 q 448 806 457 800 q 438 835 440 812 q 442 882 436 857 q 461 928 447 907 q 499 954 474 949 q 552 885 533 937 q 575 759 571 833 q 571 596 580 685 q 541 419 562 507 q 484 250 519 331 q 404 109 450 168 q 303 20 359 50 q 181 5 248 -9 "},"Ñ":{"x_min":17.90625,"x_max":686.484375,"ha":779,"o":"m 56 669 q 18 740 19 708 q 31 797 16 773 q 68 834 46 820 q 100 850 89 848 q 131 837 122 850 q 143 804 141 825 q 143 759 146 784 q 139 709 141 734 q 139 661 138 683 q 150 624 141 639 q 197 555 171 601 q 256 453 223 510 q 327 334 289 396 q 411 215 366 271 q 508 117 457 160 q 618 57 560 74 l 595 912 q 605 928 595 923 q 628 936 615 934 q 653 940 641 939 q 666 941 664 941 q 648 673 649 804 q 653 432 647 543 q 669 231 659 320 q 686 88 679 142 q 685 59 686 74 q 680 30 685 43 q 666 7 675 16 q 639 -1 656 -1 q 534 38 590 -1 q 427 131 478 77 q 331 242 375 186 q 261 335 287 299 q 231 381 253 345 q 183 457 209 416 q 137 533 158 497 q 110 581 116 569 l 116 53 q 119 10 116 22 q 101 -1 122 -1 q 89 0 96 -1 q 74 2 81 0 q 61 9 66 4 q 56 23 56 13 l 56 669 l 56 669 m 93 1006 q 98 1043 93 1018 q 115 1092 103 1067 q 147 1134 127 1116 q 198 1153 168 1153 q 267 1135 237 1153 q 325 1097 297 1117 q 385 1058 354 1076 q 457 1041 416 1041 q 515 1052 489 1039 q 561 1085 541 1065 q 594 1126 580 1104 q 617 1163 609 1148 q 627 1159 621 1164 q 638 1147 633 1154 q 646 1131 644 1140 q 644 1119 648 1123 q 626 1075 644 1097 q 580 1035 607 1053 q 521 1006 553 1018 q 462 995 489 995 q 333 1029 390 996 q 215 1107 276 1061 q 173 1091 187 1108 q 154 1050 160 1074 q 145 1002 147 1027 q 137 966 142 978 q 105 982 118 966 q 93 1006 93 998 "},"F":{"x_min":41,"x_max":676.828125,"ha":689,"o":"m 58 267 q 65 301 58 287 q 84 327 73 316 q 108 348 96 339 q 130 368 120 358 l 134 713 q 97 682 114 699 q 68 656 80 664 q 48 655 55 648 q 41 699 41 663 q 49 725 41 706 q 71 768 58 744 q 101 818 84 792 q 135 866 118 845 q 166 900 152 887 q 190 911 180 912 l 190 845 q 415 917 297 897 q 654 925 533 937 q 675 906 670 921 q 671 878 679 892 q 612 876 654 878 q 517 868 569 874 q 409 852 465 862 q 307 826 354 842 q 230 786 260 809 q 201 733 201 763 l 201 378 q 374 435 285 398 q 572 520 464 472 q 575 507 571 514 q 576 491 579 501 q 556 466 572 481 q 499 428 540 451 q 387 372 459 405 q 204 293 316 339 q 204 239 204 278 q 206 156 205 200 q 206 73 206 112 q 204 21 206 35 q 175 -8 195 -5 q 134 21 154 -12 l 134 267 l 58 267 "},"ĵ":{"x_min":-218.6875,"x_max":250.9375,"ha":346,"o":"m -216 -465 q -216 -441 -220 -451 q -205 -425 -212 -431 q -190 -420 -197 -420 q -180 -427 -182 -420 q -48 -491 -112 -480 q 64 -486 15 -503 q 142 -432 112 -470 q 174 -344 172 -393 q 168 -235 172 -303 q 158 -82 164 -166 q 144 99 152 2 q 127 290 136 195 q 110 473 119 385 q 95 631 102 561 q 82 746 88 701 q 73 800 76 790 q 79 809 73 804 q 93 818 84 813 q 114 825 103 823 q 136 824 125 827 q 159 660 146 756 q 182 453 171 564 q 203 225 192 343 q 220 -1 213 108 q 232 -205 228 -111 q 239 -363 237 -299 q 211 -468 239 -428 q 138 -529 183 -508 q 40 -552 93 -549 q -64 -543 -13 -554 q -156 -512 -114 -533 q -216 -465 -197 -492 m 105 1109 q 126 1131 116 1128 q 153 1134 135 1134 l 250 1002 q 244 982 246 994 q 236 963 241 971 q 221 954 230 954 q 195 967 211 953 l 135 1040 l 86 961 q 51 947 71 942 q 21 969 31 952 l 105 1109 "},"ā":{"x_min":22.703125,"x_max":793.890625,"ha":738,"o":"m 134 -3 q 63 32 88 -1 q 28 123 37 67 q 25 250 18 178 q 48 398 31 322 q 94 549 66 474 q 155 685 122 623 q 229 791 189 747 q 309 849 268 835 q 366 836 343 849 q 406 801 390 823 q 433 752 423 779 q 450 697 443 725 q 459 733 451 709 q 476 777 466 758 q 498 804 486 797 q 520 789 510 811 q 496 543 503 646 q 491 368 489 440 q 501 252 492 296 q 527 181 511 207 q 565 143 543 155 q 613 124 587 131 q 676 130 649 117 q 722 165 702 143 q 758 210 743 186 q 789 246 774 233 q 788 185 798 218 q 753 125 777 153 q 695 80 729 97 q 622 64 660 63 q 526 96 564 64 q 467 174 489 127 q 435 276 444 222 q 423 378 425 330 q 383 274 408 338 q 324 148 359 210 q 242 41 290 86 q 134 -3 195 -3 m 311 789 q 266 758 291 787 q 214 681 241 729 q 162 571 187 633 q 117 445 137 510 q 86 316 97 380 q 75 198 74 251 q 93 109 77 146 q 145 61 109 72 q 198 79 169 56 q 254 143 226 102 q 307 239 282 184 q 356 354 333 295 q 394 473 378 414 q 417 582 409 532 q 412 642 417 607 q 394 710 406 677 q 362 765 382 742 q 311 789 341 789 m 81 966 q 87 995 81 977 q 99 1021 92 1014 l 544 1006 l 548 948 l 81 966 "},"Ĩ":{"x_min":-156.296875,"x_max":397.125,"ha":178,"o":"m 44 89 q 40 160 42 112 q 36 271 38 208 q 32 408 34 334 q 29 554 30 481 q 27 696 28 627 q 28 817 26 765 q 31 902 29 869 q 38 936 33 934 l 76 936 q 81 803 80 885 q 82 625 82 720 q 82 435 82 531 q 87 261 83 340 q 99 132 91 182 q 123 78 108 81 q 126 53 123 67 q 129 27 129 40 q 123 5 129 14 q 99 -3 117 -3 q 76 8 86 -3 q 60 35 67 20 q 49 66 53 51 q 44 89 45 81 m -156 1025 q -151 1062 -156 1037 q -134 1111 -146 1086 q -102 1153 -122 1135 q -51 1172 -81 1172 q 17 1154 -12 1172 q 75 1116 47 1136 q 135 1077 104 1095 q 207 1060 166 1060 q 265 1071 239 1058 q 311 1104 291 1084 q 344 1145 330 1123 q 367 1182 359 1167 q 377 1178 371 1183 q 388 1166 383 1173 q 396 1150 394 1159 q 394 1138 398 1142 q 376 1094 394 1116 q 330 1054 357 1072 q 271 1025 303 1037 q 212 1014 239 1014 q 83 1048 140 1015 q -34 1126 26 1080 q -76 1110 -62 1127 q -95 1069 -89 1093 q -104 1021 -102 1046 q -112 985 -107 997 q -144 1001 -131 985 q -156 1025 -156 1017 "},"ă":{"x_min":22.703125,"x_max":793.890625,"ha":738,"o":"m 134 -3 q 63 32 88 -1 q 28 123 37 67 q 25 250 18 178 q 48 398 31 322 q 94 549 66 474 q 155 685 122 623 q 229 791 189 747 q 309 849 268 835 q 366 836 343 849 q 406 801 390 823 q 433 752 423 779 q 450 697 443 725 q 459 733 451 709 q 476 777 466 758 q 498 804 486 797 q 520 789 510 811 q 496 543 503 646 q 491 368 489 440 q 501 252 492 296 q 527 181 511 207 q 565 143 543 155 q 613 124 587 131 q 676 130 649 117 q 722 165 702 143 q 758 210 743 186 q 789 246 774 233 q 788 185 798 218 q 753 125 777 153 q 695 80 729 97 q 622 64 660 63 q 526 96 564 64 q 467 174 489 127 q 435 276 444 222 q 423 378 425 330 q 383 274 408 338 q 324 148 359 210 q 242 41 290 86 q 134 -3 195 -3 m 311 789 q 266 758 291 787 q 214 681 241 729 q 162 571 187 633 q 117 445 137 510 q 86 316 97 380 q 75 198 74 251 q 93 109 77 146 q 145 61 109 72 q 198 79 169 56 q 254 143 226 102 q 307 239 282 184 q 356 354 333 295 q 394 473 378 414 q 417 582 409 532 q 412 642 417 607 q 394 710 406 677 q 362 765 382 742 q 311 789 341 789 m 194 1095 q 233 1042 212 1056 q 276 1029 254 1027 q 319 1042 298 1030 q 359 1066 340 1053 q 390 1088 377 1079 q 408 1095 403 1098 q 427 1088 427 1103 q 410 1051 426 1073 q 365 1006 393 1029 q 302 978 336 984 q 228 991 267 972 q 152 1068 188 1010 l 194 1095 "},"*":{"x_min":66.421875,"x_max":715.515625,"ha":754,"o":"m 223 360 q 191 368 201 354 q 177 405 180 382 q 193 443 177 417 q 230 495 210 468 q 269 543 250 521 q 291 572 287 565 l 112 572 q 96 580 104 572 q 81 599 88 588 q 70 620 74 609 q 66 637 66 631 l 203 637 q 125 718 155 676 q 95 811 95 760 q 153 795 130 811 q 196 759 176 779 q 239 719 217 739 q 296 691 262 699 l 296 893 l 362 893 l 367 736 q 397 762 380 743 q 433 800 414 781 q 472 836 452 820 q 511 851 492 851 q 524 822 520 831 q 522 801 528 813 q 496 765 516 789 q 439 691 477 741 q 479 701 448 694 q 544 714 509 707 q 608 728 579 721 q 648 737 638 734 q 671 736 659 737 q 695 729 684 734 q 711 715 705 724 q 714 692 717 706 q 576 655 650 677 q 439 596 501 633 q 494 570 467 581 q 541 546 520 559 q 574 515 562 534 q 587 463 587 496 q 533 474 557 463 q 487 497 509 485 q 442 520 465 509 q 390 531 418 531 l 390 315 q 379 299 390 303 q 355 295 368 295 q 330 302 343 296 q 313 315 317 307 l 325 487 l 223 360 "},"å":{"x_min":22.703125,"x_max":793.890625,"ha":738,"o":"m 134 -3 q 63 32 88 -1 q 28 123 37 67 q 25 250 18 178 q 48 398 31 322 q 94 549 66 474 q 155 685 122 623 q 229 791 189 747 q 309 849 268 835 q 366 836 343 849 q 406 801 390 823 q 433 752 423 779 q 450 697 443 725 q 459 733 451 709 q 476 777 466 758 q 498 804 486 797 q 520 789 510 811 q 496 543 503 646 q 491 368 489 440 q 501 252 492 296 q 527 181 511 207 q 565 143 543 155 q 613 124 587 131 q 676 130 649 117 q 722 165 702 143 q 758 210 743 186 q 789 246 774 233 q 788 185 798 218 q 753 125 777 153 q 695 80 729 97 q 622 64 660 63 q 526 96 564 64 q 467 174 489 127 q 435 276 444 222 q 423 378 425 330 q 383 274 408 338 q 324 148 359 210 q 242 41 290 86 q 134 -3 195 -3 m 311 789 q 266 758 291 787 q 214 681 241 729 q 162 571 187 633 q 117 445 137 510 q 86 316 97 380 q 75 198 74 251 q 93 109 77 146 q 145 61 109 72 q 198 79 169 56 q 254 143 226 102 q 307 239 282 184 q 356 354 333 295 q 394 473 378 414 q 417 582 409 532 q 412 642 417 607 q 394 710 406 677 q 362 765 382 742 q 311 789 341 789 m 262 922 q 197 936 219 923 q 170 969 174 950 q 178 1009 166 988 q 212 1047 189 1030 q 264 1073 234 1064 q 330 1077 295 1083 q 396 1037 380 1064 q 399 983 412 1010 q 351 938 387 957 q 262 922 315 919 m 307 1039 q 256 1030 277 1040 q 227 1007 235 1021 q 227 978 219 992 q 264 955 235 964 q 324 969 302 957 q 352 996 346 982 q 346 1022 357 1010 q 307 1039 334 1034 "},"0":{"x_min":44.390625,"x_max":637.53125,"ha":657,"o":"m 226 -3 q 115 54 157 6 q 57 174 74 102 q 45 334 40 245 q 72 514 50 423 q 133 691 94 605 q 223 845 172 777 q 333 955 274 913 q 459 1000 393 997 q 562 973 526 1000 q 615 908 598 947 q 634 824 632 869 q 637 744 637 780 q 627 628 637 701 q 595 473 617 556 q 539 305 573 390 q 460 152 505 220 q 356 40 415 83 q 226 -3 298 -3 m 166 630 q 150 557 161 607 q 130 445 139 507 q 119 317 122 383 q 124 196 116 251 q 156 105 132 142 q 226 66 180 68 q 323 97 278 63 q 407 188 368 131 q 476 321 446 246 q 525 475 505 395 q 554 633 545 556 q 558 774 562 710 q 537 880 554 838 q 486 932 519 922 q 392 910 431 932 q 325 855 352 889 q 281 775 298 820 q 252 685 264 731 q 233 596 241 640 q 218 518 226 551 q 192 539 202 523 q 177 574 183 556 q 169 608 172 592 q 166 630 166 625 "},"ō":{"x_min":9.640625,"x_max":476.25,"ha":467,"o":"m 23 246 q 59 539 35 422 q 118 727 84 656 q 193 825 153 797 q 279 848 234 853 q 372 808 335 845 q 429 712 409 772 q 453 577 450 652 q 446 423 457 502 q 411 268 435 344 q 349 133 386 192 q 263 36 311 73 q 157 -4 215 -1 q 80 21 107 -4 q 40 86 52 47 q 25 168 27 124 q 23 246 23 211 m 279 792 q 218 764 246 794 q 166 682 189 733 q 124 564 142 630 q 96 427 107 497 q 83 291 85 357 q 88 173 81 225 q 111 92 94 121 q 158 64 128 62 q 264 130 218 73 q 339 266 310 187 q 381 436 368 345 q 388 605 394 527 q 355 735 382 683 q 279 792 328 787 m 9 913 q 15 942 9 924 q 27 968 20 961 l 472 953 l 476 895 l 9 913 "},"”":{"x_min":93.59375,"x_max":328.265625,"ha":378,"o":"m 222 588 q 238 651 227 618 q 252 723 248 685 q 252 805 257 761 q 222 900 246 849 q 236 927 222 919 q 267 936 250 936 q 314 866 299 911 q 328 769 328 822 q 316 665 328 717 q 282 575 303 613 q 269 565 279 568 q 250 562 260 561 q 231 570 240 564 q 222 588 222 576 m 93 584 q 109 644 99 613 q 124 714 119 676 q 124 794 130 751 q 94 889 119 838 q 109 916 94 908 q 139 925 123 925 q 186 855 172 900 q 200 758 200 811 q 188 654 200 706 q 154 564 176 602 q 142 554 151 557 q 122 554 132 552 q 102 564 111 557 q 93 584 93 572 "},"ŵ":{"x_min":8.140625,"x_max":1041.75,"ha":1089,"o":"m 8 829 q 37 857 18 861 q 67 838 55 854 l 176 148 q 206 215 192 165 q 233 330 219 265 q 265 464 248 394 q 310 591 283 534 q 375 684 337 649 q 466 716 412 720 q 529 682 501 716 q 579 596 557 649 q 622 478 602 543 q 663 349 642 413 q 706 231 683 286 q 759 143 729 176 q 769 255 762 177 q 792 427 777 332 q 830 620 807 522 q 889 796 854 718 q 969 918 933 889 q 1041 919 1005 947 q 955 794 988 874 q 900 619 922 714 q 866 422 878 523 q 843 232 854 321 q 817 78 831 143 q 781 -12 804 12 q 706 95 740 30 q 644 233 672 160 q 591 380 615 306 q 545 513 567 454 q 505 609 524 572 q 469 647 486 647 q 402 619 427 651 q 359 533 377 587 q 328 410 341 480 q 298 268 316 341 q 255 123 280 195 q 188 -3 230 52 q 158 30 173 -3 q 128 121 143 64 q 97 249 112 177 q 69 397 82 321 q 45 547 56 473 q 25 682 33 622 q 12 781 17 741 q 8 829 8 821 m 451 1022 q 472 1044 462 1041 q 499 1047 481 1047 l 596 915 q 590 895 592 907 q 582 876 587 884 q 567 867 576 867 q 541 880 557 866 l 481 953 l 432 874 q 397 860 417 855 q 367 882 377 865 l 451 1022 "},"Ķ":{"x_min":58.09375,"x_max":884.203125,"ha":912,"o":"m 142 8 q 124 -12 135 -8 q 102 -12 113 -16 q 83 2 91 -8 q 73 29 75 13 q 71 127 72 61 q 67 277 69 193 q 63 454 65 361 q 60 634 61 547 q 58 793 59 720 q 59 908 57 866 q 104 929 76 933 q 123 807 117 882 q 131 651 128 733 q 136 489 134 568 q 149 351 139 410 q 249 410 200 370 q 343 501 298 449 q 431 611 389 552 q 510 725 473 669 q 579 831 547 781 q 637 914 611 880 q 681 961 663 948 q 710 958 699 974 q 700 885 720 931 q 642 784 680 840 q 551 665 603 729 q 444 541 500 602 q 336 421 389 479 q 242 319 283 364 q 413 199 329 246 q 578 124 497 152 q 734 81 659 95 q 882 63 810 68 q 883 56 882 60 q 884 52 884 53 q 876 28 884 36 q 855 18 867 21 q 829 15 843 14 q 806 16 816 16 q 663 36 732 17 q 530 82 593 55 q 412 141 467 109 q 308 199 356 173 q 220 243 260 226 q 149 258 180 260 l 142 8 m 338 -326 q 333 -327 339 -325 q 319 -332 327 -329 q 305 -337 312 -334 q 298 -339 298 -340 q 277 -320 283 -347 q 274 -251 271 -292 q 288 -164 278 -210 q 314 -87 298 -117 q 350 -51 329 -56 q 396 -86 371 -46 l 338 -326 "},"ö":{"x_min":23.0625,"x_max":454.546875,"ha":467,"o":"m 23 246 q 59 539 35 422 q 118 727 84 656 q 193 825 153 797 q 279 848 234 853 q 372 808 335 845 q 429 712 409 772 q 453 577 450 652 q 446 423 457 502 q 411 268 435 344 q 349 133 386 192 q 263 36 311 73 q 157 -4 215 -1 q 80 21 107 -4 q 40 86 52 47 q 25 168 27 124 q 23 246 23 211 m 279 792 q 218 764 246 794 q 166 682 189 733 q 124 564 142 630 q 96 427 107 497 q 83 291 85 357 q 88 173 81 225 q 111 92 94 121 q 158 64 128 62 q 264 130 218 73 q 339 266 310 187 q 381 436 368 345 q 388 605 394 527 q 355 735 382 683 q 279 792 328 787 m 138 913 q 132 949 127 929 q 150 982 137 970 q 180 996 163 995 q 214 974 198 997 q 222 938 226 959 q 203 905 217 918 q 171 891 190 892 q 138 913 153 890 m 313 918 q 306 952 302 932 q 323 986 310 972 q 354 1001 336 999 q 389 979 373 1002 q 401 943 403 964 q 386 908 399 922 q 353 893 373 894 q 313 918 333 892 "},"ǽ":{"x_min":22.703125,"x_max":787.765625,"ha":823,"o":"m 309 849 q 229 791 268 835 q 155 685 189 747 q 94 549 122 624 q 48 398 66 474 q 25 250 31 322 q 28 123 18 178 q 63 32 37 67 q 134 -3 88 -1 q 192 9 165 -3 q 244 43 219 21 q 289 93 268 64 q 328 153 310 121 q 383 66 343 102 q 472 31 424 31 q 538 43 499 28 q 618 85 577 59 q 696 144 659 111 q 757 211 733 177 q 786 275 781 245 q 769 326 792 306 q 735 275 759 307 q 679 211 712 244 q 609 149 647 178 q 533 107 571 120 q 461 100 495 93 q 402 145 427 107 q 594 378 524 273 q 697 565 664 482 q 735 706 731 647 q 728 803 739 765 q 699 860 717 842 q 671 877 680 879 q 573 860 619 894 q 488 762 527 827 q 462 802 480 782 q 421 835 444 822 q 368 854 397 849 q 309 849 339 858 m 311 789 q 364 786 341 793 q 404 763 387 778 q 432 726 421 747 q 446 685 442 705 q 404 585 423 637 q 370 481 386 534 q 344 378 355 428 q 328 286 333 328 q 284 194 307 237 q 236 120 260 151 q 189 73 212 89 q 145 62 166 58 q 93 109 109 73 q 75 199 77 146 q 86 316 74 252 q 117 446 97 381 q 162 572 137 511 q 214 681 187 633 q 266 758 241 729 q 311 789 291 788 m 633 801 q 661 749 663 793 q 640 644 660 705 q 587 513 621 583 q 516 385 553 443 q 446 289 480 326 q 392 253 412 252 q 405 322 393 274 q 436 432 417 371 q 479 558 455 493 q 529 678 503 623 q 582 767 556 732 q 633 801 609 801 m 443 947 q 417 934 427 933 q 402 943 408 935 q 394 962 397 951 q 387 982 392 974 l 480 1106 q 507 1103 497 1106 q 527 1081 516 1100 l 443 947 "},"Ļ":{"x_min":25,"x_max":689.265625,"ha":712,"o":"m 66 44 q 51 169 57 97 q 41 320 45 240 q 35 487 37 401 q 31 657 33 573 q 27 816 29 740 q 25 951 26 891 q 76 942 62 951 q 93 916 91 933 q 91 874 95 899 q 87 816 87 849 q 90 733 87 792 q 98 601 93 675 q 108 445 103 527 q 117 290 112 363 q 125 158 122 217 q 130 76 129 100 q 184 77 143 69 q 279 101 225 85 q 395 136 333 116 q 510 173 457 156 q 604 203 564 191 q 656 217 644 215 q 677 204 672 217 q 689 177 681 192 q 631 152 675 169 q 527 115 587 135 q 398 73 466 95 q 271 34 331 51 q 167 7 211 17 q 111 0 123 -2 q 99 6 107 1 q 85 19 92 12 q 73 33 78 25 q 66 44 68 40 m 416 -344 q 411 -345 417 -343 q 397 -350 405 -347 q 383 -355 390 -352 q 376 -357 376 -358 q 355 -338 361 -365 q 352 -269 349 -310 q 366 -182 356 -228 q 392 -105 376 -135 q 428 -69 407 -74 q 474 -104 449 -64 l 416 -344 "},"Õ":{"x_min":21.34375,"x_max":541.625,"ha":547,"o":"m 191 0 q 107 45 142 3 q 51 153 71 86 q 24 303 31 219 q 25 473 17 386 q 56 643 33 560 q 117 792 80 726 q 206 899 154 858 q 326 944 259 941 q 423 893 385 938 q 482 779 462 849 q 506 624 503 710 q 497 449 510 538 q 459 277 485 360 q 393 130 432 193 q 303 30 354 66 q 191 0 252 -5 m 317 882 q 240 848 276 880 q 176 762 204 815 q 126 642 147 709 q 94 503 105 575 q 83 361 84 431 q 94 231 82 290 q 129 130 105 172 q 192 73 153 88 q 280 98 240 69 q 352 178 320 127 q 405 297 383 229 q 438 437 427 365 q 448 582 448 510 q 433 716 447 655 q 390 821 419 777 q 317 882 362 865 m 34 989 q 39 1025 34 1001 q 54 1072 43 1048 q 84 1114 65 1096 q 130 1132 103 1132 q 193 1114 166 1132 q 247 1077 221 1097 q 301 1040 273 1057 q 367 1023 330 1023 q 421 1034 397 1021 q 462 1065 444 1046 q 493 1106 480 1085 q 514 1141 506 1127 q 523 1138 518 1143 q 534 1126 529 1133 q 541 1111 539 1119 q 539 1099 542 1103 q 522 1056 539 1078 q 480 1017 505 1034 q 426 989 455 1000 q 372 978 397 978 q 254 1011 306 979 q 146 1087 202 1043 q 108 1072 120 1088 q 90 1032 95 1055 q 82 985 84 1009 q 74 950 79 961 q 46 965 57 950 q 34 989 34 981 "},"ć":{"x_min":39.4375,"x_max":535.875,"ha":578,"o":"m 166 0 q 83 44 112 5 q 44 145 54 84 q 42 281 35 206 q 70 435 50 356 q 121 588 90 514 q 187 722 151 663 q 261 818 223 781 q 336 856 299 854 q 421 826 387 854 q 467 756 454 797 q 476 669 481 715 q 447 589 472 623 q 420 610 427 594 q 412 648 413 627 q 411 692 411 669 q 407 734 412 715 q 388 766 402 754 q 344 779 374 779 q 281 745 311 779 q 225 660 250 712 q 177 546 199 609 q 141 422 155 483 q 118 312 126 362 q 109 236 109 261 q 109 190 109 219 q 113 133 108 161 q 133 85 119 105 q 177 65 147 65 q 272 98 222 65 q 371 177 322 131 q 463 273 420 223 q 534 355 505 322 q 524 274 539 315 q 482 193 510 233 q 415 119 454 154 q 334 58 377 85 q 248 16 291 32 q 166 0 204 0 m 315 923 q 289 910 298 909 q 274 919 279 911 q 266 938 269 927 q 259 958 263 950 l 351 1082 q 378 1079 369 1082 q 399 1057 388 1076 l 315 923 "},"þ":{"x_min":19.90625,"x_max":553,"ha":581,"o":"m 47 967 q 65 993 55 987 q 85 996 75 999 q 100 986 94 994 q 105 971 106 977 l 101 636 q 134 719 116 675 q 178 800 152 763 q 241 862 204 838 q 329 887 277 887 q 434 847 391 887 q 503 751 477 808 q 541 630 529 694 q 553 518 553 566 q 536 378 550 448 q 490 249 521 307 q 409 154 459 191 q 289 117 360 117 q 238 120 266 116 q 182 132 211 123 q 125 155 152 141 q 72 193 97 170 l 74 -19 l 19 -14 l 47 967 m 97 272 q 120 229 97 248 q 174 199 143 211 q 236 180 204 187 q 284 173 268 173 q 396 225 355 183 q 457 323 436 267 q 482 438 477 379 q 487 542 487 497 q 477 624 487 576 q 447 716 468 672 q 394 790 427 759 q 317 822 362 822 q 241 788 274 822 q 184 701 208 754 q 143 583 160 648 q 116 458 126 519 q 101 347 105 397 q 97 272 97 297 "},"]":{"x_min":45.828125,"x_max":633.546875,"ha":622,"o":"m 632 950 q 587 800 601 893 q 568 600 573 708 q 565 374 563 491 q 572 151 567 258 q 580 -44 577 43 q 580 -184 584 -132 l 45 -143 q 86 -111 53 -117 q 177 -108 119 -105 q 321 -118 235 -110 q 526 -127 408 -125 q 518 211 520 68 q 517 458 516 354 q 521 635 517 563 q 530 764 524 708 q 546 865 536 819 q 566 960 555 910 q 477 998 527 983 q 376 1023 428 1013 q 273 1038 323 1032 q 185 1050 223 1044 q 192 1071 185 1063 q 209 1082 199 1078 q 230 1085 219 1085 q 253 1085 242 1085 q 311 1080 273 1084 q 391 1068 348 1076 q 479 1049 435 1061 q 559 1023 524 1038 q 615 990 594 1008 q 632 950 636 971 "},"ẁ":{"x_min":8.140625,"x_max":1041.75,"ha":1089,"o":"m 8 829 q 37 857 18 861 q 67 838 55 854 l 176 148 q 206 215 192 165 q 233 330 219 265 q 265 464 248 394 q 310 591 283 534 q 375 684 337 649 q 466 716 412 720 q 529 682 501 716 q 579 596 557 649 q 622 478 602 543 q 663 349 642 413 q 706 231 683 286 q 759 143 729 176 q 769 255 762 177 q 792 427 777 332 q 830 620 807 522 q 889 796 854 718 q 969 918 933 889 q 1041 919 1005 947 q 955 794 988 874 q 900 619 922 714 q 866 422 878 523 q 843 232 854 321 q 817 78 831 143 q 781 -12 804 12 q 706 95 740 30 q 644 233 672 160 q 591 380 615 306 q 545 513 567 454 q 505 609 524 572 q 469 647 486 647 q 402 619 427 651 q 359 533 377 587 q 328 410 341 480 q 298 268 316 341 q 255 123 280 195 q 188 -3 230 52 q 158 30 173 -3 q 128 121 143 64 q 97 249 112 177 q 69 397 82 321 q 45 547 56 473 q 25 682 33 622 q 12 781 17 741 q 8 829 8 821 m 398 1040 q 418 1062 409 1059 q 446 1065 428 1065 l 538 941 q 531 921 534 933 q 523 902 528 910 q 508 893 517 894 q 482 906 498 892 l 398 1040 "},"ĭ":{"x_min":-60.640625,"x_max":214.0625,"ha":209,"o":"m 97 825 q 139 628 123 736 q 163 411 154 519 q 175 203 172 302 q 181 38 179 104 q 166 6 181 11 q 126 5 150 1 q 96 403 108 203 q 52 801 84 603 l 97 825 m -18 976 q 20 923 0 937 q 63 910 41 908 q 106 923 85 911 q 146 947 127 934 q 177 969 164 960 q 195 976 190 979 q 214 969 214 984 q 197 932 213 954 q 152 887 180 910 q 89 859 123 865 q 15 872 54 853 q -60 949 -24 891 l -18 976 "},"8":{"x_min":9.828125,"x_max":646,"ha":660,"o":"m 272 5 q 188 52 220 18 q 144 129 157 85 q 131 224 130 173 q 142 323 131 275 q 171 413 153 371 q 207 478 188 454 q 174 491 197 478 q 129 519 152 503 q 88 552 106 535 q 69 577 70 568 q 55 545 57 561 q 50 518 53 530 q 40 501 47 507 q 9 501 32 496 q 24 612 9 553 q 66 729 39 671 q 129 840 92 788 q 211 931 167 893 q 308 985 256 968 q 415 990 359 1002 q 478 940 458 973 q 500 866 498 907 q 494 781 503 826 q 468 697 484 736 q 435 627 453 657 q 404 583 418 596 q 498 567 454 581 q 575 522 542 552 q 626 448 608 493 q 646 341 644 404 q 614 193 646 261 q 530 78 582 124 q 410 10 477 31 q 272 5 343 -10 m 451 511 q 343 501 391 522 q 261 440 295 481 q 210 347 227 400 q 192 241 192 294 q 212 142 192 188 q 272 70 231 96 q 381 78 326 58 q 478 141 435 99 q 547 241 520 183 q 575 363 575 299 q 564 414 572 389 q 541 459 556 439 q 503 494 526 480 q 451 511 481 508 m 124 670 q 128 641 124 657 q 141 609 132 625 q 162 582 149 594 q 193 567 174 571 q 257 571 223 557 q 323 615 291 585 q 381 685 355 644 q 421 768 406 725 q 436 853 436 811 q 415 927 435 895 q 367 940 396 944 q 307 919 339 937 q 244 872 276 902 q 187 809 212 843 q 144 738 161 774 q 124 670 127 702 "},"R":{"x_min":38,"x_max":711.390625,"ha":717,"o":"m 70 16 q 53 358 67 183 q 38 718 39 534 q 116 826 66 777 q 224 905 166 874 q 342 946 282 935 q 451 942 403 957 q 530 881 499 926 q 562 754 562 835 q 540 638 562 693 q 484 537 518 584 q 405 448 449 489 q 315 371 361 408 q 379 325 335 355 q 474 259 423 295 q 576 185 525 223 q 663 112 628 146 q 708 52 697 78 q 689 16 719 27 q 589 86 637 43 q 482 177 541 130 q 345 269 422 223 q 157 349 267 316 q 158 361 157 352 q 159 371 159 370 q 280 430 217 394 q 395 515 343 466 q 482 625 448 564 q 516 760 516 686 q 476 855 516 826 q 380 885 437 885 q 302 868 340 885 q 229 823 264 850 q 165 764 195 796 q 115 705 136 732 l 115 572 q 115 444 115 500 q 118 330 116 387 q 124 210 120 274 q 136 61 128 146 q 118 20 139 28 q 70 16 97 12 "},"ť":{"x_min":-26.984375,"x_max":538.1875,"ha":472,"o":"m 248 892 q 263 952 253 921 q 279 1022 274 984 q 279 1102 284 1059 q 249 1197 274 1146 q 263 1224 249 1216 q 294 1233 278 1233 q 341 1163 326 1208 q 355 1066 355 1119 q 343 962 355 1014 q 309 872 330 910 q 297 862 306 865 q 276 862 287 859 q 257 872 265 865 q 248 892 248 880 m 129 688 q 63 681 95 688 q -3 667 31 673 q -15 679 -9 667 q -26 726 -21 691 q 11 735 -9 732 q 54 744 32 739 q 95 757 76 749 q 129 778 115 764 l 129 983 q 133 999 129 989 q 147 1016 138 1008 q 168 1027 155 1023 q 195 1027 180 1032 l 197 789 l 538 854 q 530 827 538 839 q 512 805 523 815 q 489 789 501 796 q 467 781 477 783 q 401 764 439 772 q 324 748 363 756 q 251 730 285 740 q 195 711 216 721 l 195 21 q 185 6 195 11 q 164 -2 176 1 q 142 -6 153 -5 q 129 -7 131 -7 l 129 688 "},"Ľ":{"x_min":25,"x_max":689.265625,"ha":712,"o":"m 311 641 q 307 640 313 642 q 293 636 301 638 q 279 630 286 633 q 272 629 272 628 q 250 649 256 622 q 248 716 245 675 q 262 804 252 758 q 288 881 272 850 q 324 916 303 911 q 370 881 345 922 l 311 641 m 66 44 q 51 168 57 97 q 41 320 45 240 q 35 487 37 401 q 31 657 33 573 q 27 815 29 740 q 25 950 26 891 q 76 942 62 950 q 93 916 91 933 q 91 874 95 899 q 87 816 87 849 q 90 733 87 792 q 98 601 93 675 q 108 445 103 527 q 117 290 112 363 q 125 158 122 217 q 130 75 129 100 q 184 77 143 69 q 279 101 225 85 q 395 136 333 116 q 510 173 457 155 q 604 203 564 191 q 656 217 644 215 q 677 204 672 217 q 689 177 681 192 q 631 152 675 169 q 527 115 587 135 q 398 73 466 94 q 271 34 331 51 q 167 7 211 17 q 111 0 123 -2 q 99 6 107 1 q 85 18 92 12 q 73 33 78 25 q 66 44 68 40 "},"Ż":{"x_min":20.34375,"x_max":827.59375,"ha":845,"o":"m 248 -49 q 150 -18 176 -47 q 128 55 124 10 q 155 155 131 100 q 204 260 179 210 q 249 353 230 311 q 263 416 268 395 q 213 410 238 420 q 166 391 188 401 q 129 382 145 382 q 107 405 113 382 q 121 445 107 431 q 157 467 135 459 q 205 480 179 475 q 257 490 231 484 q 302 508 282 497 q 332 539 322 519 q 366 616 348 576 q 401 697 385 656 q 427 781 417 739 q 438 866 438 824 q 307 858 364 870 q 206 826 250 846 q 126 785 161 806 q 62 752 92 764 q 35 760 47 752 q 20 783 23 768 q 58 827 28 805 q 129 868 88 848 q 219 903 170 888 q 315 929 268 919 q 401 943 362 939 q 465 939 440 946 q 501 909 492 931 q 508 855 511 886 q 495 785 505 824 q 470 705 484 747 q 442 621 457 663 q 420 539 428 579 q 583 566 511 554 q 732 583 655 577 q 722 528 736 546 q 683 500 709 509 q 622 488 657 490 q 547 481 587 485 q 464 468 507 477 q 382 439 421 459 q 337 351 366 404 q 278 243 307 299 q 225 134 248 188 q 200 43 203 81 q 286 18 233 20 q 401 31 339 17 q 530 70 463 44 q 654 126 596 96 q 755 190 712 157 q 816 252 798 223 q 817 172 838 210 q 747 103 796 135 q 630 45 698 71 q 492 0 562 18 q 356 -32 421 -19 q 248 -49 291 -44 m 329 1050 q 328 1088 321 1067 q 351 1124 335 1110 q 385 1140 366 1138 q 420 1119 404 1143 q 424 1083 431 1107 q 401 1041 416 1060 q 365 1021 385 1023 q 329 1050 344 1019 "},"o":{"x_min":23.0625,"x_max":454.546875,"ha":467,"o":"m 23 246 q 59 539 35 422 q 118 727 84 656 q 193 825 153 797 q 279 848 234 853 q 372 808 335 845 q 429 712 409 772 q 453 577 450 652 q 446 423 457 502 q 411 268 435 344 q 349 133 386 192 q 263 36 311 73 q 157 -4 215 -1 q 80 21 107 -4 q 40 86 52 47 q 25 168 27 124 q 23 246 23 211 m 279 792 q 218 764 246 794 q 166 682 189 733 q 124 564 142 630 q 96 427 107 497 q 83 291 85 357 q 88 173 81 225 q 111 92 94 121 q 158 64 128 62 q 264 130 218 73 q 339 266 310 187 q 381 436 368 345 q 388 605 394 527 q 355 735 382 683 q 279 792 328 787 "},"5":{"x_min":27.125,"x_max":757.59375,"ha":608,"o":"m 122 54 q 126 65 123 58 q 135 80 130 73 q 148 92 141 88 q 165 97 155 97 q 274 69 215 69 q 383 91 332 70 q 471 150 434 112 q 515 235 508 188 q 502 425 531 345 q 412 539 473 504 q 263 560 351 575 q 74 466 176 545 q 32 480 37 466 q 27 518 27 495 q 29 577 27 537 q 38 668 32 617 q 54 774 44 718 q 77 879 63 830 q 111 967 92 929 q 157 1020 131 1005 q 177 1004 173 1015 q 180 979 181 992 q 174 954 179 967 q 170 934 170 942 q 333 952 248 939 q 497 975 417 964 q 644 996 576 987 q 754 1009 712 1006 q 741 958 765 976 q 671 931 717 941 q 562 914 625 920 q 430 901 499 908 q 293 884 362 895 q 168 851 225 873 q 139 814 150 840 q 121 751 127 788 q 114 670 115 714 q 119 577 113 625 q 261 634 195 623 q 381 630 326 645 q 478 575 436 614 q 547 483 520 537 q 584 365 573 429 q 588 233 595 301 q 558 147 583 187 q 496 79 534 108 q 411 31 458 50 q 314 8 364 13 q 214 14 264 4 q 122 54 164 25 "},"ħ":{"x_min":-126.359375,"x_max":688.875,"ha":712,"o":"m 106 2 q 87 201 93 111 q 78 370 81 291 q 74 522 75 450 q 71 665 73 594 q 62 810 68 736 q 44 969 56 884 q 75 990 54 983 q 112 994 97 996 l 151 261 q 171 338 157 290 q 205 442 185 386 q 252 554 226 497 q 309 656 277 610 q 375 731 340 702 q 450 760 410 760 q 530 708 494 756 q 591 585 565 659 q 635 425 616 512 q 665 257 653 337 q 682 114 676 177 q 688 25 687 51 q 655 29 669 8 q 629 97 641 51 q 605 207 616 143 q 582 340 593 271 q 557 476 570 409 q 526 594 543 542 q 486 674 508 645 q 436 697 465 704 q 362 616 398 675 q 295 480 326 557 q 237 320 264 404 q 193 166 211 237 q 167 49 176 96 q 161 0 158 2 q 145 -10 155 -8 q 125 -12 135 -13 q 110 -8 116 -12 q 106 2 104 -4 m -126 831 q -120 860 -126 842 q -108 886 -115 879 l 336 871 l 340 813 l -126 831 "},"õ":{"x_min":-14.390625,"x_max":511.015625,"ha":467,"o":"m 23 246 q 59 539 35 422 q 118 727 84 656 q 193 825 153 797 q 279 848 234 853 q 372 808 335 845 q 429 712 409 772 q 453 577 450 652 q 446 423 457 502 q 411 268 435 344 q 349 133 386 192 q 263 36 311 73 q 157 -4 215 -1 q 80 21 107 -4 q 40 86 52 47 q 25 168 27 124 q 23 246 23 211 m 279 792 q 218 764 246 794 q 166 682 189 733 q 124 564 142 630 q 96 427 107 497 q 83 291 85 357 q 88 173 81 225 q 111 92 94 121 q 158 64 128 62 q 264 130 218 73 q 339 266 310 187 q 381 436 368 345 q 388 605 394 527 q 355 735 382 683 q 279 792 328 787 m -14 899 q -9 942 -14 914 q 6 999 -5 971 q 37 1049 17 1028 q 84 1070 56 1070 q 150 1050 122 1070 q 205 1005 178 1029 q 262 960 232 981 q 330 940 292 940 q 386 953 361 938 q 429 991 410 968 q 461 1039 447 1014 q 482 1082 474 1065 q 492 1078 486 1084 q 503 1064 498 1073 q 510 1046 508 1055 q 508 1031 512 1036 q 491 980 508 1006 q 447 933 473 954 q 391 899 422 913 q 335 886 361 886 q 213 926 267 887 q 101 1017 159 964 q 61 998 74 1018 q 42 951 48 979 q 34 895 37 923 q 26 852 31 866 q -2 871 8 852 q -14 899 -14 890 "},",":{"x_min":64.578125,"x_max":187.1875,"ha":209,"o":"m 128 -73 q 124 -73 130 -71 q 110 -78 118 -75 q 96 -84 103 -81 q 89 -85 89 -86 q 68 -66 74 -93 q 65 2 62 -39 q 79 89 69 43 q 105 166 89 135 q 141 202 120 196 q 187 166 162 207 l 128 -73 "},"d":{"x_min":32,"x_max":593.828125,"ha":623,"o":"m 501 198 q 447 142 480 175 q 375 76 414 108 q 291 21 336 44 q 201 -1 246 -1 q 122 19 154 -1 q 70 72 90 39 q 40 144 49 104 q 32 221 32 183 q 42 313 32 259 q 72 427 52 367 q 119 546 91 487 q 184 651 147 605 q 264 727 220 698 q 357 757 307 757 q 418 727 397 757 q 439 659 439 698 q 407 663 418 659 q 387 675 397 668 q 369 686 378 681 q 344 691 360 691 q 280 665 311 691 q 222 598 249 639 q 172 505 194 556 q 133 403 150 454 q 108 306 117 351 q 100 230 100 260 q 104 172 100 202 q 120 118 108 142 q 154 79 132 95 q 212 64 177 64 q 298 92 257 64 q 375 161 340 120 q 437 249 410 202 q 480 332 465 295 q 473 536 478 438 q 465 719 467 633 q 465 879 462 805 q 484 1012 467 953 q 499 1025 489 1020 q 520 1032 509 1031 q 539 1029 530 1033 q 550 1012 548 1025 q 533 824 535 910 q 537 660 531 738 q 553 508 543 582 q 573 356 563 434 q 589 193 583 279 q 593 5 595 107 q 582 -28 591 -21 q 562 -29 573 -34 q 540 -9 550 -24 q 524 21 530 5 q 518 55 522 30 q 511 109 515 80 q 505 163 508 137 q 501 198 503 188 "},"\"":{"x_min":93.59375,"x_max":328.265625,"ha":378,"o":"m 222 588 q 238 651 227 618 q 252 723 248 685 q 252 805 257 761 q 222 900 246 849 q 236 927 222 919 q 267 936 250 936 q 314 866 299 911 q 328 769 328 822 q 316 665 328 717 q 282 575 303 613 q 269 565 279 568 q 250 562 260 561 q 231 570 240 564 q 222 588 222 576 m 93 584 q 109 644 99 613 q 124 714 119 676 q 124 794 130 751 q 94 889 119 838 q 109 916 94 908 q 139 925 123 925 q 186 855 172 900 q 200 758 200 811 q 188 654 200 706 q 154 564 176 602 q 142 554 151 557 q 122 554 132 552 q 102 564 111 557 q 93 584 93 572 "},"˙":{"x_min":14.5625,"x_max":116.296875,"ha":133,"o":"m 18 885 q 17 923 10 902 q 40 959 24 945 q 74 975 55 973 q 109 954 93 978 q 113 918 120 942 q 90 876 105 895 q 54 856 74 858 q 18 885 33 854 "},"ê":{"x_min":29.84375,"x_max":496.125,"ha":533,"o":"m 29 170 q 42 289 29 216 q 76 443 54 363 q 130 604 99 524 q 201 744 162 684 q 284 836 240 805 q 379 851 329 867 q 407 834 389 852 q 436 777 425 816 q 443 679 447 738 q 406 538 439 620 q 303 352 373 456 q 111 118 233 247 q 169 74 135 80 q 241 80 203 67 q 317 123 279 94 q 387 185 355 152 q 444 249 420 217 q 477 300 467 281 q 495 249 500 280 q 465 185 489 219 q 404 118 442 151 q 326 59 367 85 q 246 17 286 33 q 180 5 207 2 q 124 19 151 5 q 76 56 97 33 q 42 109 55 79 q 29 170 29 139 m 341 775 q 282 739 313 775 q 223 648 252 703 q 170 527 195 593 q 127 400 145 462 q 101 290 109 338 q 97 222 93 242 q 155 258 119 220 q 229 355 191 296 q 301 484 267 414 q 354 616 335 554 q 373 723 374 679 q 341 775 373 767 m 321 1113 q 342 1135 332 1132 q 369 1138 351 1138 l 466 1006 q 460 986 462 998 q 452 967 457 975 q 437 958 446 958 q 411 971 427 957 l 351 1044 l 302 965 q 267 951 287 946 q 237 973 247 956 l 321 1113 "},"„":{"x_min":70.53125,"x_max":318.765625,"ha":366,"o":"m 70 -19 q 86 40 75 9 q 101 110 96 72 q 101 190 107 147 q 71 285 96 234 q 86 312 71 304 q 116 321 100 321 q 163 251 149 296 q 177 154 177 207 q 165 50 177 102 q 131 -39 153 -1 q 119 -49 128 -46 q 99 -49 109 -52 q 79 -39 88 -46 q 70 -19 70 -31 m 211 -21 q 227 38 217 7 q 242 108 237 70 q 242 188 248 145 q 212 283 237 232 q 227 310 212 302 q 257 319 241 319 q 304 249 290 294 q 318 152 318 205 q 306 48 318 100 q 272 -41 294 -3 q 260 -51 269 -48 q 240 -51 250 -54 q 220 -41 229 -48 q 211 -21 211 -33 "},"ľ":{"x_min":27.125,"x_max":278.078125,"ha":324,"o":"m 170 638 q 186 699 176 667 q 202 768 196 731 q 202 849 207 805 q 172 944 196 892 q 186 971 172 963 q 217 979 200 979 q 263 910 249 954 q 278 813 278 865 q 265 708 278 760 q 231 618 253 656 q 219 609 229 611 q 199 609 210 606 q 179 619 188 611 q 170 638 170 626 m 84 960 q 109 552 100 710 q 124 299 119 393 q 130 163 128 206 q 132 102 131 120 q 137 76 134 84 q 146 46 139 69 q 141 22 149 33 q 122 4 134 10 q 96 2 111 -1 q 70 21 82 5 l 27 965 q 35 999 28 986 q 52 1013 43 1011 q 69 1002 61 1014 q 84 960 78 990 "},"Â":{"x_min":12.203125,"x_max":740.625,"ha":779,"o":"m 12 -82 q 27 -27 12 -63 q 63 47 43 8 q 101 121 84 87 q 123 172 119 156 q 138 228 126 186 q 166 327 150 270 q 200 447 181 383 q 233 568 218 511 q 261 667 249 625 q 276 724 272 710 q 291 792 283 749 q 313 876 299 835 q 347 945 326 916 q 401 975 368 975 q 421 966 412 975 q 438 947 431 958 q 451 925 446 937 q 457 905 455 914 q 505 714 485 793 q 540 584 526 636 q 564 503 554 533 q 579 460 573 474 q 586 442 584 446 q 590 439 588 439 q 636 461 614 453 q 686 466 659 469 q 674 430 686 444 q 647 404 661 416 q 621 377 633 392 q 610 341 610 363 q 630 249 610 293 q 675 161 651 205 q 720 75 699 118 q 740 -13 740 32 q 684 -17 706 -30 q 644 28 661 -3 q 615 104 628 59 q 588 193 603 149 q 552 274 572 237 q 503 331 533 312 q 475 323 499 331 q 418 303 451 316 q 347 273 385 290 q 276 238 309 256 q 219 204 242 221 q 189 172 195 187 l 101 -94 q 82 -116 94 -113 q 56 -119 70 -119 q 25 -110 39 -119 q 12 -82 12 -102 m 234 305 q 282 316 248 309 q 360 337 317 324 q 446 369 402 350 q 519 417 489 389 q 505 474 515 435 q 482 560 495 512 q 454 661 469 608 q 425 760 439 714 q 398 842 411 806 q 377 889 385 877 l 234 305 m 357 1181 q 378 1203 368 1200 q 405 1206 387 1206 l 502 1074 q 496 1054 498 1066 q 488 1035 493 1043 q 473 1026 482 1026 q 447 1039 463 1025 l 387 1112 l 338 1033 q 303 1019 323 1014 q 273 1041 283 1024 l 357 1181 "},"Į":{"x_min":-15.0625,"x_max":182.984375,"ha":178,"o":"m 44 89 q 40 160 42 112 q 36 271 38 208 q 32 408 34 334 q 29 554 30 481 q 27 696 28 627 q 28 817 26 765 q 31 902 29 869 q 38 936 33 934 l 76 936 q 81 803 80 885 q 82 625 82 720 q 82 435 82 531 q 87 261 83 340 q 99 132 91 182 q 123 78 108 81 q 126 53 123 67 q 129 27 129 40 q 123 5 129 14 q 99 -3 117 -3 q 76 8 86 -3 q 60 35 67 20 q 49 66 53 51 q 44 89 45 81 m 182 -137 q 129 -166 162 -158 q 63 -169 96 -175 q 8 -141 31 -163 q -15 -75 -15 -118 q -10 -47 -15 -67 q 2 -6 -6 -27 q 27 33 12 14 q 66 59 43 52 l 93 35 q 53 -7 69 19 q 35 -60 37 -34 q 46 -105 33 -86 q 90 -124 59 -124 q 133 -122 115 -124 q 182 -137 151 -120 "},"ė":{"x_min":29.84375,"x_max":496.125,"ha":533,"o":"m 29 170 q 42 289 29 216 q 76 443 54 363 q 130 604 99 524 q 201 744 162 684 q 284 836 240 805 q 379 851 329 867 q 407 834 389 852 q 436 777 425 816 q 443 679 447 738 q 406 538 439 620 q 303 352 373 456 q 111 118 233 247 q 169 74 135 80 q 241 80 203 67 q 317 123 279 94 q 387 185 355 152 q 444 249 420 217 q 477 300 467 281 q 495 249 500 280 q 465 185 489 219 q 404 118 442 151 q 326 59 367 85 q 246 17 286 33 q 180 5 207 2 q 124 19 151 5 q 76 56 97 33 q 42 109 55 79 q 29 170 29 139 m 341 775 q 282 739 313 775 q 223 648 252 703 q 170 527 195 593 q 127 400 145 462 q 101 290 109 338 q 97 222 93 242 q 155 258 119 220 q 229 355 191 296 q 301 484 267 414 q 354 616 335 554 q 373 723 374 679 q 341 775 373 767 m 285 946 q 284 984 277 963 q 307 1020 291 1006 q 341 1036 322 1034 q 376 1015 360 1039 q 380 979 387 1003 q 357 937 372 956 q 321 917 341 919 q 285 946 300 915 "},"Ţ":{"x_min":13.84375,"x_max":979.53125,"ha":1001,"o":"m 13 789 q 36 822 13 809 q 89 845 58 835 q 149 859 119 854 q 194 868 179 864 q 392 915 295 892 q 584 956 488 938 q 777 986 679 975 q 979 998 875 998 l 979 959 q 818 941 895 954 q 668 911 740 927 q 531 877 597 895 q 409 846 466 859 q 428 824 420 838 q 438 796 436 811 q 442 719 439 771 q 447 598 444 667 q 452 452 450 530 q 457 300 455 374 q 461 163 459 226 q 461 59 462 100 q 448 8 459 24 q 398 -1 438 -6 q 398 85 398 25 q 397 211 398 145 q 395 337 396 278 q 395 423 395 397 q 392 466 395 434 q 388 541 390 499 q 383 632 386 584 q 378 722 380 680 q 374 796 376 765 q 373 838 373 827 q 61 754 206 798 q 28 761 43 754 q 13 789 13 769 m 401 -341 q 396 -342 402 -340 q 382 -347 390 -344 q 368 -352 375 -349 q 361 -354 361 -355 q 340 -335 346 -362 q 337 -266 334 -307 q 351 -179 341 -225 q 377 -102 361 -132 q 413 -66 392 -71 q 459 -101 434 -61 l 401 -341 "},"´":{"x_min":32.5625,"x_max":172.265625,"ha":195,"o":"m 88 871 q 62 858 71 857 q 47 867 52 859 q 39 886 42 875 q 32 906 36 898 l 124 1030 q 151 1027 142 1030 q 172 1005 161 1024 l 88 871 "},"Í":{"x_min":27.140625,"x_max":175.265625,"ha":178,"o":"m 44 89 q 40 160 42 112 q 36 271 38 208 q 32 408 34 334 q 29 554 30 481 q 27 696 28 627 q 28 817 26 765 q 31 902 29 869 q 38 936 33 934 l 76 936 q 81 803 80 885 q 82 625 82 720 q 82 435 82 531 q 87 261 83 340 q 99 132 91 182 q 123 78 108 81 q 126 53 123 67 q 129 27 129 40 q 123 5 129 14 q 99 -3 117 -3 q 76 8 86 -3 q 60 35 67 20 q 49 66 53 51 q 44 89 45 81 m 91 1031 q 65 1018 74 1017 q 50 1027 55 1019 q 42 1046 45 1035 q 35 1066 39 1058 l 127 1190 q 154 1187 145 1190 q 175 1165 164 1184 l 91 1031 "},"Ú":{"x_min":11.453125,"x_max":577.46875,"ha":623,"o":"m 181 5 q 90 104 124 46 q 38 230 55 161 q 16 374 21 298 q 11 525 10 449 q 14 673 12 601 q 13 810 16 746 q 37 829 23 823 q 67 833 52 836 q 72 707 73 774 q 70 569 71 640 q 71 427 69 498 q 86 291 74 355 q 122 171 97 226 q 189 76 146 115 q 302 91 250 57 q 394 192 354 125 q 461 351 434 259 q 503 540 489 443 q 516 728 518 636 q 499 887 515 819 q 470 817 482 834 q 448 806 457 800 q 438 835 440 812 q 442 882 436 857 q 461 928 447 907 q 499 954 474 949 q 552 885 533 937 q 575 759 571 833 q 571 596 580 685 q 541 419 562 507 q 484 250 519 331 q 404 109 450 168 q 303 20 359 50 q 181 5 248 -9 m 240 963 q 214 950 223 949 q 199 959 204 951 q 191 978 194 967 q 184 998 188 990 l 276 1122 q 303 1119 294 1122 q 324 1097 313 1116 l 240 963 "},"Ŷ":{"x_min":13.5625,"x_max":542.578125,"ha":578,"o":"m 328 347 q 151 584 233 454 q 13 846 70 714 q 46 859 25 873 q 94 809 67 846 q 151 717 120 771 q 214 607 181 663 q 280 502 246 552 q 344 425 313 453 q 362 516 352 455 q 385 649 371 577 q 415 791 398 720 q 450 912 431 862 q 492 978 469 961 q 542 960 515 995 q 465 739 497 850 q 414 511 434 629 q 385 263 394 393 q 379 -16 377 132 q 352 -49 367 -43 q 316 -21 336 -55 l 328 347 m 238 1166 q 259 1188 249 1185 q 286 1191 268 1191 l 383 1059 q 377 1039 379 1051 q 369 1020 374 1028 q 354 1011 363 1011 q 328 1024 344 1010 l 268 1097 l 219 1018 q 184 1004 204 999 q 154 1026 164 1009 l 238 1166 "},"ŝ":{"x_min":32.8125,"x_max":482.671875,"ha":511,"o":"m 260 -3 q 177 5 216 0 q 107 22 138 11 q 56 49 76 33 q 32 89 36 66 q 83 83 57 89 q 136 69 109 77 q 190 55 162 61 q 246 49 218 49 q 304 56 273 49 q 361 79 336 63 q 404 119 387 95 q 421 177 421 143 q 395 263 421 222 q 328 343 368 304 q 242 422 288 382 q 156 502 196 461 q 90 588 116 544 q 64 683 64 633 q 85 751 64 720 q 138 802 107 781 q 207 835 170 823 q 277 848 245 848 q 328 842 302 850 q 372 815 353 834 q 400 769 391 797 q 399 706 409 741 q 389 673 395 683 q 374 665 382 664 q 358 675 367 667 q 340 694 349 683 q 339 728 340 710 q 334 760 338 745 q 320 783 330 774 q 290 792 310 792 q 235 783 264 792 q 184 760 207 775 q 145 722 161 744 q 130 669 130 699 q 149 608 123 644 q 218 531 176 573 q 310 443 260 489 q 401 349 360 397 q 465 252 441 300 q 479 159 489 204 q 457 79 475 110 q 409 28 439 47 q 341 3 379 10 q 260 -3 303 -3 m 220 1065 q 241 1087 231 1084 q 268 1090 250 1090 l 365 958 q 359 938 361 950 q 351 919 356 927 q 336 910 345 910 q 310 923 326 909 l 250 996 l 201 917 q 166 903 186 898 q 136 925 146 908 l 220 1065 "},"Ý":{"x_min":13.5625,"x_max":542.578125,"ha":578,"o":"m 328 347 q 151 584 233 454 q 13 846 70 714 q 46 859 25 873 q 94 809 67 846 q 151 717 120 771 q 214 607 181 663 q 280 502 246 552 q 344 425 313 453 q 362 516 352 455 q 385 649 371 577 q 415 791 398 720 q 450 912 431 862 q 492 978 469 961 q 542 960 515 995 q 465 739 497 850 q 414 511 434 629 q 385 263 394 393 q 379 -16 377 132 q 352 -49 367 -43 q 316 -21 336 -55 l 328 347 m 277 990 q 251 977 260 976 q 236 986 241 978 q 228 1005 231 994 q 221 1025 225 1017 l 313 1149 q 340 1146 331 1149 q 361 1124 350 1143 l 277 990 "},"Ĉ":{"x_min":42,"x_max":694.625,"ha":712,"o":"m 42 286 q 48 398 42 332 q 69 537 54 465 q 107 680 84 609 q 166 808 131 751 q 250 899 202 864 q 360 935 298 935 q 434 909 409 935 q 471 846 459 883 q 483 764 483 808 q 484 684 484 720 q 445 699 457 684 q 429 737 434 715 q 422 787 424 759 q 413 836 420 814 q 388 874 405 858 q 336 890 371 890 q 261 855 294 890 q 202 765 228 820 q 160 644 177 710 q 131 513 142 577 q 114 394 119 448 q 110 311 110 340 q 109 228 107 275 q 126 140 112 181 q 169 74 141 100 q 247 54 198 48 q 400 91 331 54 q 524 185 470 128 q 614 311 577 242 q 667 444 651 380 l 694 444 q 650 285 694 364 q 538 141 606 205 q 388 37 470 77 q 229 -3 306 -3 q 133 24 169 -3 q 76 94 96 51 q 48 187 55 136 q 42 286 42 238 m 304 1164 q 325 1186 315 1183 q 352 1189 334 1189 l 449 1057 q 443 1037 445 1049 q 435 1018 440 1026 q 420 1009 429 1009 q 394 1022 410 1008 l 334 1095 l 285 1016 q 250 1002 270 997 q 220 1024 230 1007 l 304 1164 "},"ą":{"x_min":22.703125,"x_max":793.890625,"ha":738,"o":"m 134 -3 q 63 32 88 -1 q 28 123 37 67 q 25 250 18 178 q 48 398 31 322 q 94 549 66 474 q 155 685 122 623 q 229 791 189 747 q 309 849 268 835 q 366 836 343 849 q 406 801 390 823 q 433 752 423 779 q 450 697 443 725 q 459 733 451 709 q 476 777 466 758 q 498 804 486 797 q 520 789 510 811 q 496 543 503 646 q 491 368 489 440 q 501 252 492 296 q 527 181 511 207 q 565 143 543 155 q 613 124 587 131 q 676 130 649 117 q 722 165 702 143 q 758 210 743 186 q 789 246 774 233 q 788 185 798 218 q 753 125 777 153 q 695 80 729 97 q 622 64 660 63 q 526 96 564 64 q 467 174 489 127 q 435 276 444 222 q 423 378 425 330 q 383 274 408 338 q 324 148 359 210 q 242 41 290 86 q 134 -3 195 -3 m 311 789 q 266 758 291 787 q 214 681 241 729 q 162 571 187 633 q 117 445 137 510 q 86 316 97 380 q 75 198 74 251 q 93 109 77 146 q 145 61 109 72 q 198 79 169 56 q 254 143 226 102 q 307 239 282 184 q 356 354 333 295 q 394 473 378 414 q 417 582 409 532 q 412 642 417 607 q 394 710 406 677 q 362 765 382 742 q 311 789 341 789 m 647 -75 q 594 -104 627 -96 q 528 -107 561 -113 q 473 -79 496 -101 q 449 -13 449 -56 q 454 14 449 -5 q 467 55 458 34 q 492 95 477 76 q 531 121 508 114 l 558 97 q 518 54 534 81 q 500 1 502 27 q 511 -43 498 -24 q 555 -62 524 -62 q 598 -60 580 -62 q 647 -75 616 -58 "},"Ö":{"x_min":21.34375,"x_max":507.375,"ha":522,"o":"m 191 0 q 107 45 142 3 q 51 153 71 86 q 24 303 31 219 q 25 473 17 386 q 56 643 33 560 q 117 792 80 726 q 206 899 154 858 q 326 944 259 941 q 423 893 385 938 q 482 779 462 849 q 506 624 503 710 q 497 449 510 538 q 459 277 485 360 q 393 130 432 193 q 303 30 354 66 q 191 0 252 -5 m 317 882 q 240 848 276 880 q 176 762 204 815 q 126 642 147 709 q 94 503 105 575 q 83 361 84 431 q 94 231 82 290 q 129 130 105 172 q 192 73 153 88 q 280 98 240 69 q 352 178 320 127 q 405 297 383 229 q 438 437 427 365 q 448 582 448 510 q 433 716 447 655 q 390 821 419 777 q 317 882 362 865 m 151 1005 q 145 1041 140 1021 q 163 1074 150 1062 q 193 1088 176 1087 q 227 1066 211 1089 q 235 1030 239 1051 q 216 997 230 1010 q 184 983 203 984 q 151 1005 166 982 m 326 1010 q 319 1044 315 1024 q 336 1078 323 1064 q 367 1093 349 1091 q 402 1071 386 1094 q 414 1035 416 1056 q 399 1000 412 1014 q 366 985 386 986 q 326 1010 346 984 "},"z":{"x_min":16.734375,"x_max":625.71875,"ha":643,"o":"m 248 -10 q 159 25 187 -5 q 127 103 131 56 q 137 207 123 150 q 174 322 151 265 q 221 429 196 379 q 263 512 245 480 l 17 448 q 27 500 13 481 q 67 530 42 519 q 124 547 92 541 q 189 559 155 553 q 254 575 223 565 q 307 602 284 584 l 402 796 q 307 792 349 805 q 223 759 264 778 q 141 721 183 739 q 47 706 99 704 q 54 744 37 725 q 103 780 70 763 q 181 813 135 797 q 274 839 226 829 q 366 856 321 850 q 447 863 412 863 q 492 832 486 848 q 482 788 497 816 q 440 712 467 759 q 386 588 412 666 l 533 636 q 538 604 549 624 q 498 564 527 584 q 425 527 469 543 q 332 505 382 511 q 294 434 316 478 q 252 340 272 390 q 215 239 231 290 q 196 148 199 189 q 204 82 192 108 q 249 58 215 56 q 370 72 311 49 q 480 129 430 94 q 567 205 530 165 q 625 272 604 245 q 590 163 629 215 q 493 71 552 110 q 368 9 435 32 q 248 -10 301 -12 "},"™":{"x_min":14.625,"x_max":1558.734375,"ha":1587,"o":"m 1356 816 q 1343 777 1352 802 q 1324 718 1335 751 q 1301 648 1314 684 q 1278 579 1289 611 q 1257 520 1266 546 q 1244 482 1248 495 q 1215 390 1232 447 q 1172 279 1197 333 q 1115 186 1148 225 q 1035 148 1082 148 q 954 173 988 148 q 896 236 920 199 q 854 316 871 274 q 823 394 836 359 l 823 105 q 816 83 825 93 q 795 68 808 73 q 771 66 783 63 q 755 82 759 69 q 752 162 753 108 q 748 283 751 215 q 743 426 745 351 q 739 569 741 501 q 735 691 737 637 q 733 771 733 745 q 732 786 733 777 q 732 805 732 795 q 734 823 732 814 q 744 836 737 832 q 604 811 675 825 q 466 782 534 797 q 335 751 398 767 q 218 722 272 736 q 193 715 212 722 q 150 701 173 709 q 108 687 128 694 q 83 679 89 680 q 73 677 82 679 q 62 676 64 676 q 29 684 44 676 q 14 711 14 691 q 37 745 14 732 q 89 767 59 757 q 150 781 120 776 q 195 790 180 786 q 391 832 296 814 q 581 861 486 850 q 772 879 676 873 q 973 885 868 885 l 973 857 q 868 850 921 855 q 759 838 816 846 q 807 807 789 835 q 838 735 825 779 q 859 635 851 691 q 876 521 867 578 q 896 407 885 463 q 924 309 907 352 q 968 240 942 266 q 1033 214 993 214 q 1039 215 1035 214 q 1045 216 1042 216 q 1138 401 1099 307 q 1210 591 1177 496 q 1278 781 1244 686 q 1356 972 1312 877 q 1407 964 1394 984 q 1422 905 1421 945 l 1556 148 q 1558 117 1556 138 q 1557 73 1559 96 q 1548 33 1555 51 q 1525 13 1541 15 q 1486 60 1502 13 q 1457 180 1470 106 q 1434 346 1444 254 q 1413 527 1425 437 q 1388 693 1402 616 q 1356 816 1375 770 m 396 -122 q 396 -67 396 -104 q 397 16 397 -29 q 397 113 397 62 q 397 210 397 164 q 396 292 397 256 q 396 345 396 328 q 394 381 396 354 q 390 446 393 409 q 385 523 387 482 q 379 600 382 564 q 375 664 377 637 q 373 701 373 691 q 381 739 373 732 q 399 739 389 746 q 421 714 410 732 q 439 679 432 697 q 446 517 443 599 q 452 349 449 435 q 457 168 455 263 q 462 -29 459 74 q 460 -61 462 -46 q 452 -90 459 -77 q 432 -111 445 -103 q 396 -122 418 -120 "},"Ř":{"x_min":38,"x_max":711.390625,"ha":734,"o":"m 70 16 q 53 358 67 183 q 38 718 39 534 q 116 826 66 777 q 224 905 166 874 q 342 946 282 935 q 451 942 403 957 q 530 881 499 926 q 562 754 562 835 q 540 638 562 693 q 484 537 518 584 q 405 448 449 489 q 315 371 361 408 q 379 325 335 355 q 474 259 423 295 q 576 185 525 223 q 663 112 628 146 q 708 52 697 78 q 689 16 719 27 q 589 86 637 43 q 482 177 541 130 q 345 269 422 223 q 157 349 267 316 q 158 361 157 352 q 159 371 159 370 q 280 430 217 394 q 395 515 343 466 q 482 625 448 564 q 516 760 516 686 q 476 855 516 826 q 380 885 437 885 q 302 868 340 885 q 229 823 264 850 q 165 764 195 796 q 115 705 136 732 l 115 572 q 115 444 115 500 q 118 330 116 387 q 124 210 120 274 q 136 61 128 146 q 118 20 139 28 q 70 16 97 12 m 353 1000 q 332 978 342 981 q 305 976 323 976 l 182 1125 q 188 1143 186 1133 q 194 1160 190 1153 q 206 1167 198 1167 q 231 1153 214 1167 l 316 1043 l 406 1152 q 439 1171 429 1179 q 454 1136 450 1163 l 353 1000 "},"ã":{"x_min":22.703125,"x_max":793.890625,"ha":738,"o":"m 134 -3 q 63 32 88 -1 q 28 123 37 67 q 25 250 18 178 q 48 398 31 322 q 94 549 66 474 q 155 685 122 623 q 229 791 189 747 q 309 849 268 835 q 366 836 343 849 q 406 801 390 823 q 433 752 423 779 q 450 697 443 725 q 459 733 451 709 q 476 777 466 758 q 498 804 486 797 q 520 789 510 811 q 496 543 503 646 q 491 368 489 440 q 501 252 492 296 q 527 181 511 207 q 565 143 543 155 q 613 124 587 131 q 676 130 649 117 q 722 165 702 143 q 758 210 743 186 q 789 246 774 233 q 788 185 798 218 q 753 125 777 153 q 695 80 729 97 q 622 64 660 63 q 526 96 564 64 q 467 174 489 127 q 435 276 444 222 q 423 378 425 330 q 383 274 408 338 q 324 148 359 210 q 242 41 290 86 q 134 -3 195 -3 m 311 789 q 266 758 291 787 q 214 681 241 729 q 162 571 187 633 q 117 445 137 510 q 86 316 97 380 q 75 198 74 251 q 93 109 77 146 q 145 61 109 72 q 198 79 169 56 q 254 143 226 102 q 307 239 282 184 q 356 354 333 295 q 394 473 378 414 q 417 582 409 532 q 412 642 417 607 q 394 710 406 677 q 362 765 382 742 q 311 789 341 789 m 54 933 q 59 975 54 947 q 77 1031 64 1003 q 111 1079 89 1059 q 164 1100 133 1100 q 238 1080 206 1100 q 299 1036 269 1060 q 363 993 330 1013 q 439 973 396 973 q 501 986 473 971 q 549 1023 528 1000 q 585 1070 570 1045 q 609 1112 600 1095 q 619 1108 613 1113 q 632 1094 626 1103 q 640 1076 637 1086 q 637 1062 642 1067 q 618 1012 637 1038 q 570 966 599 987 q 507 933 541 946 q 445 920 473 920 q 308 959 368 922 q 183 1048 248 996 q 138 1030 153 1049 q 118 984 124 1011 q 108 929 111 957 q 100 887 105 901 q 66 906 79 887 q 54 933 54 924 "},"Ň":{"x_min":17.90625,"x_max":686.484375,"ha":779,"o":"m 56 669 q 18 740 19 708 q 31 797 16 773 q 68 834 46 820 q 100 850 89 848 q 131 837 122 850 q 143 804 141 825 q 143 759 146 784 q 139 709 141 734 q 139 661 138 683 q 150 624 141 639 q 197 555 171 601 q 256 453 223 510 q 327 334 289 396 q 411 215 366 271 q 508 117 457 160 q 618 57 560 74 l 595 912 q 605 928 595 923 q 628 936 615 934 q 653 940 641 939 q 666 941 664 941 q 648 673 649 804 q 653 432 647 543 q 669 231 659 320 q 686 88 679 142 q 685 59 686 74 q 680 30 685 43 q 666 7 675 16 q 639 -1 656 -1 q 534 38 590 -1 q 427 131 478 77 q 331 242 375 186 q 261 335 287 299 q 231 381 253 345 q 183 457 209 416 q 137 533 158 497 q 110 581 116 569 l 116 53 q 119 10 116 22 q 101 -1 122 -1 q 89 0 96 -1 q 74 2 81 0 q 61 9 66 4 q 56 23 56 13 l 56 669 l 56 669 m 355 911 q 334 889 344 892 q 307 887 325 887 l 184 1036 q 190 1054 188 1044 q 196 1071 192 1064 q 208 1078 200 1078 q 233 1064 216 1078 l 318 954 l 408 1063 q 441 1082 431 1090 q 456 1047 452 1074 l 355 911 "},"æ":{"x_min":22.703125,"x_max":787.765625,"ha":807,"o":"m 309 848 q 368 853 339 858 q 421 835 397 848 q 462 802 444 821 q 488 762 480 782 q 573 860 527 827 q 671 877 619 893 q 699 860 680 878 q 728 803 717 842 q 735 705 739 764 q 697 564 731 646 q 594 378 664 482 q 402 144 524 273 q 461 100 427 106 q 533 106 495 93 q 609 149 571 120 q 679 211 647 178 q 735 275 712 243 q 769 326 759 307 q 786 275 792 306 q 757 211 781 245 q 696 144 733 177 q 618 85 659 110 q 538 43 577 59 q 472 30 499 28 q 383 66 424 30 q 328 153 343 102 q 289 93 310 121 q 244 43 268 64 q 192 9 219 21 q 134 -3 165 -3 q 63 32 88 -1 q 28 123 37 67 q 25 250 18 178 q 48 398 31 322 q 94 549 66 474 q 155 685 122 623 q 229 791 189 747 q 309 848 268 835 m 311 789 q 266 758 291 788 q 214 681 241 729 q 162 572 187 633 q 117 446 137 511 q 86 316 97 381 q 75 199 74 252 q 93 109 77 146 q 145 62 109 73 q 189 73 166 58 q 236 120 212 89 q 284 194 260 151 q 328 286 307 237 q 344 378 333 328 q 370 481 355 428 q 404 585 386 534 q 446 685 423 637 q 432 726 442 705 q 404 763 421 747 q 364 786 387 778 q 311 789 341 793 m 633 801 q 582 767 609 801 q 529 678 556 732 q 479 558 503 623 q 436 432 455 493 q 405 322 417 371 q 392 253 393 274 q 446 289 412 252 q 516 385 480 326 q 587 513 553 443 q 640 644 621 583 q 661 749 660 705 q 633 801 663 793 "},"ĩ":{"x_min":-175.296875,"x_max":378.125,"ha":209,"o":"m 97 825 q 139 628 123 736 q 163 411 154 519 q 175 203 172 302 q 181 38 179 104 q 166 6 181 11 q 126 5 150 1 q 96 403 108 203 q 52 801 84 603 l 97 825 m -175 895 q -170 932 -175 907 q -153 981 -165 956 q -121 1023 -141 1005 q -70 1042 -100 1042 q -1 1024 -31 1042 q 56 986 28 1006 q 116 947 85 965 q 188 930 147 930 q 246 941 220 928 q 292 974 272 954 q 325 1015 311 993 q 348 1052 340 1037 q 358 1048 352 1053 q 369 1036 364 1043 q 377 1020 375 1029 q 375 1008 379 1012 q 357 964 375 986 q 311 924 338 942 q 252 895 284 907 q 193 884 220 884 q 64 918 121 885 q -53 996 7 950 q -95 980 -81 997 q -114 939 -108 963 q -123 891 -121 916 q -131 855 -126 867 q -163 871 -150 855 q -175 895 -175 887 "},"É":{"x_min":41.921875,"x_max":782.4375,"ha":800,"o":"m 42 163 q 61 253 40 208 q 108 336 81 298 q 157 406 134 375 q 184 452 180 436 q 158 456 182 454 q 108 468 134 458 q 61 499 81 478 q 45 556 40 519 q 79 681 53 614 q 148 805 105 748 q 246 898 191 861 q 368 936 302 936 q 420 915 397 934 q 455 874 444 896 q 462 834 466 853 q 431 815 458 816 q 385 868 420 850 q 309 878 349 886 q 245 842 279 871 q 181 772 211 813 q 130 686 151 732 q 104 602 108 641 q 117 537 100 564 q 184 509 135 511 q 255 527 220 509 q 322 566 290 545 q 385 605 355 587 q 444 625 416 623 q 457 624 450 625 q 471 621 465 623 q 484 614 478 619 q 489 600 489 610 q 461 555 489 579 q 391 506 433 532 q 300 448 349 480 q 208 377 250 416 q 138 292 166 338 q 111 188 111 245 q 123 127 111 151 q 157 89 135 102 q 207 70 178 75 q 266 65 235 65 q 409 90 341 65 q 538 157 477 116 q 654 250 600 199 q 756 355 709 302 l 782 355 q 754 275 782 317 q 682 193 726 233 q 583 118 638 154 q 472 55 527 82 q 368 12 417 28 q 287 -3 319 -3 q 205 4 248 -3 q 125 31 162 11 q 65 83 89 51 q 42 163 42 115 m 313 982 q 287 969 296 968 q 272 978 277 970 q 264 997 267 986 q 257 1017 261 1009 l 349 1141 q 376 1138 367 1141 q 397 1116 386 1135 l 313 982 "},"ŀ":{"x_min":43.125,"x_max":264.296875,"ha":277,"o":"m 100 987 q 125 579 116 737 q 140 326 135 420 q 146 190 144 233 q 148 129 147 147 q 153 103 150 111 q 162 73 155 96 q 157 49 165 60 q 138 31 150 37 q 112 29 127 25 q 86 48 98 32 l 43 992 q 51 1026 44 1013 q 68 1040 59 1038 q 85 1029 77 1041 q 100 987 94 1017 m 166 463 q 165 501 158 480 q 188 537 172 523 q 222 553 203 551 q 257 532 241 556 q 261 496 268 520 q 238 454 253 473 q 202 434 222 436 q 166 463 181 432 "},"~":{"x_min":41.96875,"x_max":1563.8125,"ha":1579,"o":"m 884 420 q 687 409 785 420 q 489 385 588 398 q 286 360 389 372 q 77 347 184 348 q 78 364 77 353 q 81 386 78 375 q 89 407 84 398 q 105 420 94 415 q 497 444 299 428 q 884 508 695 460 l 884 667 l 206 595 q 177 595 198 595 q 134 596 157 596 q 90 597 111 596 q 61 597 69 597 q 44 606 47 597 q 42 625 40 614 q 50 648 44 637 q 61 664 55 658 l 860 747 q 853 813 860 781 q 840 871 847 844 q 826 918 832 897 q 820 950 820 938 q 836 977 820 971 q 873 978 852 983 q 910 958 893 973 q 929 921 927 944 l 1563 912 q 1527 796 1559 868 q 1443 641 1494 725 q 1329 467 1392 557 q 1199 295 1266 377 q 1067 148 1132 214 q 947 45 1002 81 l 884 420 m 929 842 q 934 764 930 816 q 945 646 938 711 q 959 509 952 581 q 974 371 966 437 q 987 253 981 306 q 995 174 992 201 q 1065 234 1021 185 q 1160 353 1109 284 q 1263 502 1211 422 q 1358 652 1315 581 q 1430 774 1402 722 q 1462 842 1459 827 l 929 842 "},"Ċ":{"x_min":42,"x_max":694.625,"ha":712,"o":"m 42 286 q 48 398 42 332 q 69 537 54 465 q 107 680 84 609 q 166 808 131 751 q 250 899 202 864 q 360 935 298 935 q 434 909 409 935 q 471 846 459 883 q 483 764 483 808 q 484 684 484 720 q 445 699 457 684 q 429 737 434 715 q 422 787 424 759 q 413 836 420 814 q 388 874 405 858 q 336 890 371 890 q 261 855 294 890 q 202 765 228 820 q 160 644 177 710 q 131 513 142 577 q 114 394 119 448 q 110 311 110 340 q 109 228 107 275 q 126 140 112 181 q 169 74 141 100 q 247 54 198 48 q 400 91 331 54 q 524 185 470 128 q 614 311 577 242 q 667 444 651 380 l 694 444 q 650 285 694 364 q 538 141 606 205 q 388 37 470 77 q 229 -3 306 -3 q 133 24 169 -3 q 76 94 96 51 q 48 187 55 136 q 42 286 42 238 m 281 1021 q 280 1059 273 1038 q 303 1095 287 1081 q 337 1111 318 1109 q 372 1090 356 1114 q 376 1054 383 1078 q 353 1012 368 1031 q 317 992 337 994 q 281 1021 296 990 "},"¡":{"x_min":39.078125,"x_max":134.84375,"ha":160,"o":"m 122 738 q 110 753 118 748 q 93 759 103 758 q 72 760 83 760 q 51 758 61 759 l 59 21 q 67 8 59 13 q 87 3 76 3 q 107 7 97 2 q 119 23 116 12 l 122 738 m 113 909 q 78 912 96 915 q 49 898 60 908 q 39 874 38 888 q 63 846 39 861 q 93 840 76 836 q 122 856 110 845 q 134 882 134 867 q 113 909 135 898 "},"ẅ":{"x_min":8.140625,"x_max":1041.75,"ha":1089,"o":"m 8 829 q 37 857 18 861 q 67 838 55 854 l 176 148 q 206 215 192 165 q 233 330 219 265 q 265 464 248 394 q 310 591 283 534 q 375 684 337 649 q 466 716 412 720 q 529 682 501 716 q 579 596 557 649 q 622 478 602 543 q 663 349 642 413 q 706 231 683 286 q 759 143 729 176 q 769 255 762 177 q 792 427 777 332 q 830 620 807 522 q 889 796 854 718 q 969 918 933 889 q 1041 919 1005 947 q 955 794 988 874 q 900 619 922 714 q 866 422 878 523 q 843 232 854 321 q 817 78 831 143 q 781 -12 804 12 q 706 95 740 30 q 644 233 672 160 q 591 380 615 306 q 545 513 567 454 q 505 609 524 572 q 469 647 486 647 q 402 619 427 651 q 359 533 377 587 q 328 410 341 480 q 298 268 316 341 q 255 123 280 195 q 188 -3 230 52 q 158 30 173 -3 q 128 121 143 64 q 97 249 112 177 q 69 397 82 321 q 45 547 56 473 q 25 682 33 622 q 12 781 17 741 q 8 829 8 821 m 381 968 q 375 1004 370 984 q 393 1037 380 1025 q 423 1051 406 1050 q 457 1029 441 1052 q 465 993 469 1014 q 446 960 460 973 q 414 946 433 947 q 381 968 396 945 m 556 973 q 549 1007 545 987 q 566 1041 553 1027 q 597 1056 579 1054 q 632 1034 616 1057 q 644 998 646 1019 q 629 963 642 977 q 596 948 616 949 q 556 973 576 947 "},"[":{"x_min":60.453125,"x_max":648.171875,"ha":689,"o":"m 61 950 q 78 990 57 971 q 134 1023 99 1008 q 214 1049 169 1038 q 302 1068 258 1061 q 382 1080 345 1076 q 440 1085 420 1084 q 462 1085 450 1085 q 484 1082 474 1085 q 501 1071 494 1078 q 508 1050 508 1063 q 419 1038 469 1044 q 317 1023 370 1032 q 215 998 265 1013 q 127 960 165 983 q 147 865 138 910 q 163 764 157 819 q 172 635 169 708 q 176 458 176 563 q 175 211 177 354 q 168 -127 173 68 q 372 -118 286 -125 q 516 -108 458 -110 q 607 -111 574 -105 q 648 -143 640 -117 l 114 -184 q 113 -44 109 -132 q 121 151 116 43 q 128 374 126 258 q 125 600 130 491 q 105 800 120 708 q 61 950 90 893 "},"%":{"x_min":33.375,"x_max":789.265625,"ha":803,"o":"m 504 930 q 395 895 432 930 q 339 808 358 860 q 313 696 321 756 q 290 583 305 635 q 246 496 275 531 q 155 462 217 462 q 104 500 123 468 q 77 570 85 532 q 70 643 69 608 q 78 693 71 679 q 67 688 75 693 q 55 684 59 683 q 48 695 52 688 q 40 708 44 702 q 34 721 36 715 q 33 729 32 727 q 68 761 36 737 q 148 814 100 784 q 253 877 196 844 q 362 936 310 909 q 455 980 415 962 q 511 998 496 998 q 554 989 538 998 q 569 951 569 980 q 568 940 569 949 q 567 930 567 931 q 538 778 552 847 q 512 643 524 708 q 486 510 499 577 q 461 367 473 444 q 436 198 448 291 q 412 -10 424 106 q 373 -12 392 -10 q 341 6 355 -15 l 504 930 m 476 150 q 489 242 476 195 q 528 327 503 288 q 591 390 553 366 q 678 415 629 415 q 759 371 733 406 q 788 288 785 336 q 776 188 792 241 q 733 90 760 135 q 671 16 706 46 q 600 -10 636 -12 q 538 3 562 -10 q 500 39 513 17 q 481 91 486 62 q 476 150 476 120 m 590 258 q 580 197 591 229 q 563 135 569 164 q 564 85 557 107 q 611 58 572 64 q 675 111 644 72 q 721 198 706 150 q 729 294 736 245 q 680 372 722 342 q 625 357 651 370 q 580 321 599 343 q 552 270 561 298 q 545 213 542 241 l 590 258 m 234 774 q 170 732 192 767 q 140 655 147 697 q 138 577 132 614 q 158 531 143 541 q 193 531 176 520 q 225 566 211 542 q 249 621 240 590 q 261 682 259 652 q 257 738 263 713 q 234 774 250 763 "},"P":{"x_min":23,"x_max":621.046875,"ha":635,"o":"m 68 656 q 23 712 38 670 q 43 782 23 750 q 97 840 64 815 q 172 886 130 866 q 256 918 214 906 q 339 938 299 931 q 408 945 379 945 q 486 932 448 945 q 554 896 524 919 q 602 840 584 873 q 620 766 620 807 q 595 670 622 721 q 524 571 568 618 q 427 482 481 523 q 323 417 374 442 q 232 388 273 393 q 172 408 191 383 q 195 435 172 421 q 256 465 219 448 q 337 505 292 482 q 424 562 382 527 q 502 643 467 596 q 554 756 536 690 q 527 833 550 805 q 468 872 504 861 q 388 879 432 883 q 300 863 344 876 q 218 831 257 850 q 151 790 178 812 q 151 514 151 625 q 153 331 152 402 q 157 221 155 260 q 161 159 159 181 q 165 124 163 137 q 169 94 167 112 q 169 68 169 86 q 165 31 169 50 q 154 0 162 13 q 133 -13 147 -13 q 109 -12 118 -18 q 96 8 100 -5 q 92 39 92 21 q 90 73 91 56 q 88 134 90 89 q 85 238 87 179 q 80 365 83 298 q 75 491 77 432 q 71 595 73 550 q 68 656 69 640 "},"_":{"x_min":19.53125,"x_max":743.65625,"ha":762,"o":"m 43 0 q 24 18 32 8 q 21 44 16 29 l 727 65 q 738 33 752 46 q 680 12 724 20 q 566 1 636 5 q 413 -2 497 -1 q 233 -2 328 -2 q 43 0 138 -1 "},"Ŕ":{"x_min":38,"x_max":711.390625,"ha":741,"o":"m 70 16 q 53 358 67 183 q 38 718 39 534 q 116 826 66 777 q 224 905 166 874 q 342 946 282 935 q 451 942 403 957 q 530 881 499 926 q 562 754 562 835 q 540 638 562 693 q 484 537 518 584 q 405 448 449 489 q 315 371 361 408 q 379 325 335 355 q 474 259 423 295 q 576 185 525 223 q 663 112 628 146 q 708 52 697 78 q 689 16 719 27 q 589 86 637 43 q 482 177 541 130 q 345 269 422 223 q 157 349 267 316 q 158 361 157 352 q 159 371 159 370 q 280 430 217 394 q 395 515 343 466 q 482 625 448 564 q 516 760 516 686 q 476 855 516 826 q 380 885 437 885 q 302 868 340 885 q 229 823 264 850 q 165 764 195 796 q 115 705 136 732 l 115 572 q 115 444 115 500 q 118 330 116 387 q 124 210 120 274 q 136 61 128 146 q 118 20 139 28 q 70 16 97 12 m 260 982 q 234 969 243 968 q 219 978 224 970 q 211 997 214 986 q 204 1017 208 1009 l 296 1141 q 323 1138 314 1141 q 344 1116 333 1135 l 260 982 "},"ñ":{"x_min":21.859375,"x_max":604.640625,"ha":601,"o":"m 111 400 q 115 472 109 428 q 135 568 121 517 q 170 670 148 619 q 218 761 191 721 q 280 826 246 802 q 355 848 314 850 q 433 817 402 848 q 483 744 465 787 q 510 655 501 701 q 523 579 519 609 q 528 517 527 560 q 531 418 530 473 q 534 303 532 363 q 540 189 536 243 q 549 96 543 136 q 564 41 554 56 q 553 17 565 28 q 524 0 540 5 q 493 -2 508 -6 q 474 19 478 0 q 455 161 459 80 q 450 329 451 243 q 448 497 448 415 q 439 644 447 579 q 411 745 431 708 q 355 779 391 783 q 282 741 314 776 q 226 649 250 706 q 184 522 201 593 q 155 377 167 451 q 135 234 143 303 q 122 112 127 164 q 114 29 117 59 q 108 6 111 0 q 93 5 104 6 q 71 5 82 4 q 53 9 61 6 q 45 22 45 13 l 45 689 q 60 747 45 721 q 111 774 75 774 l 111 400 m 21 930 q 26 975 21 945 q 44 1037 31 1006 q 78 1090 57 1067 q 131 1113 100 1113 q 204 1091 173 1113 q 266 1043 236 1069 q 328 995 296 1017 q 404 973 361 973 q 466 987 438 971 q 513 1028 493 1003 q 549 1080 534 1053 q 573 1126 564 1107 q 583 1122 577 1128 q 596 1106 590 1116 q 603 1087 601 1097 q 601 1071 606 1077 q 582 1016 601 1044 q 534 966 563 988 q 472 929 506 944 q 410 915 438 915 q 274 958 334 917 q 150 1055 214 999 q 106 1036 120 1057 q 85 985 91 1015 q 76 924 79 955 q 67 879 73 894 q 34 899 47 879 q 21 930 21 919 "},"‚":{"x_min":71.890625,"x_max":179.046875,"ha":244,"o":"m 71 -14 q 87 45 77 14 q 103 115 97 77 q 103 195 108 152 q 73 290 97 239 q 87 317 73 309 q 118 326 101 326 q 164 256 150 301 q 179 159 179 212 q 166 55 179 107 q 132 -34 154 3 q 120 -44 130 -41 q 100 -44 111 -47 q 80 -34 89 -41 q 71 -14 71 -26 "},"Æ":{"x_min":35.09375,"x_max":1136.4375,"ha":1154,"o":"m 396 219 q 404 281 394 250 q 431 342 414 313 q 362 314 398 330 q 294 281 325 298 q 239 247 262 264 q 212 216 216 230 l 124 -50 q 105 -72 117 -69 q 79 -75 93 -75 q 48 -66 62 -75 q 35 -38 35 -58 q 50 16 35 -19 q 86 91 66 52 q 124 165 106 131 q 146 216 142 200 q 161 272 149 230 q 189 371 173 314 q 222 492 204 428 q 256 612 241 555 q 284 712 272 669 q 299 768 295 755 q 314 837 306 794 q 336 920 322 880 q 370 990 349 961 q 424 1020 391 1020 q 437 998 427 1020 q 460 948 448 976 q 483 892 473 919 q 494 855 493 865 q 526 901 507 876 q 574 947 546 926 q 639 981 603 968 q 722 992 676 994 q 774 971 751 990 q 809 930 798 952 q 816 890 820 909 q 785 871 812 872 q 739 924 774 906 q 663 934 703 942 q 608 904 637 929 q 551 839 578 880 q 500 740 524 797 q 463 609 477 682 q 538 565 478 567 q 609 583 574 565 q 676 622 644 601 q 739 661 709 643 q 798 681 770 679 q 811 680 804 681 q 825 677 819 679 q 838 670 832 675 q 843 656 843 666 q 815 611 843 635 q 745 562 787 588 q 654 504 703 536 q 562 433 604 472 q 492 348 520 394 q 465 244 465 301 q 477 183 465 207 q 511 145 489 158 q 561 126 532 131 q 620 121 589 121 q 763 146 695 121 q 892 213 831 172 q 1008 306 954 255 q 1110 411 1063 358 l 1136 411 q 1108 331 1136 373 q 1036 249 1080 289 q 937 174 992 210 q 826 111 881 138 q 722 68 771 84 q 641 53 673 53 q 559 60 602 53 q 479 87 516 67 q 419 139 443 107 q 396 219 396 170 m 538 508 q 499 508 524 504 q 450 524 474 512 q 411 558 427 536 q 399 611 394 580 q 415 689 402 648 q 447 770 428 729 q 421 880 433 839 q 400 934 409 921 l 257 349 q 285 355 264 351 q 335 364 306 359 q 395 377 363 370 q 455 393 427 385 l 538 508 "},"ğ":{"x_min":78.625,"x_max":710.71875,"ha":738,"o":"m 246 -514 q 227 -485 230 -501 q 231 -455 225 -468 q 250 -437 237 -442 q 275 -443 263 -432 q 390 -479 337 -481 q 485 -449 443 -477 q 558 -371 527 -420 q 607 -264 588 -322 q 634 -145 626 -206 q 638 -31 643 -84 l 587 614 q 470 335 526 447 q 364 153 413 223 q 272 50 314 84 q 195 7 229 17 q 136 4 161 -2 q 97 25 111 12 q 78 130 80 65 q 88 273 77 196 q 124 434 100 351 q 181 594 149 518 q 255 730 214 670 q 344 822 297 790 q 442 851 392 854 q 546 796 493 847 q 556 834 546 820 q 579 851 565 849 q 608 848 594 854 q 633 826 622 842 l 709 -23 q 708 -114 712 -55 q 690 -240 705 -173 q 645 -373 675 -307 q 561 -481 614 -438 q 432 -538 508 -525 q 246 -514 355 -552 m 419 785 q 343 729 382 777 q 270 612 305 682 q 206 459 234 542 q 162 300 177 377 q 145 161 146 223 q 164 70 143 98 q 223 95 187 65 q 299 179 259 126 q 379 301 339 233 q 451 440 419 370 q 502 574 483 509 q 522 683 522 638 q 512 722 522 703 q 489 754 503 740 q 455 777 474 769 q 419 785 436 785 m 345 1044 q 384 991 363 1005 q 427 978 405 976 q 470 991 449 979 q 510 1015 491 1002 q 541 1037 528 1028 q 559 1044 554 1047 q 578 1037 578 1052 q 561 1000 577 1022 q 516 955 544 978 q 453 927 487 933 q 379 940 418 921 q 303 1017 339 959 l 345 1044 "},"Ū":{"x_min":11.453125,"x_max":577.46875,"ha":623,"o":"m 181 5 q 90 104 124 46 q 38 230 55 161 q 16 374 21 298 q 11 525 10 449 q 14 673 12 601 q 13 810 16 746 q 37 829 23 823 q 67 833 52 836 q 72 707 73 774 q 70 569 71 640 q 71 427 69 498 q 86 291 74 355 q 122 171 97 226 q 189 76 146 115 q 302 91 250 57 q 394 192 354 125 q 461 351 434 259 q 503 540 489 443 q 516 728 518 636 q 499 887 515 819 q 470 817 482 834 q 448 806 457 800 q 438 835 440 812 q 442 882 436 857 q 461 928 447 907 q 499 954 474 949 q 552 885 533 937 q 575 759 571 833 q 571 596 580 685 q 541 419 562 507 q 484 250 519 331 q 404 109 450 168 q 303 20 359 50 q 181 5 248 -9 m 31 1006 q 37 1035 31 1017 q 49 1061 42 1054 l 494 1046 l 498 988 l 31 1006 "},"Œ":{"x_min":46.21875,"x_max":996.4375,"ha":1012,"o":"m 190 0 q 110 56 141 9 q 63 172 79 103 q 46 326 46 242 q 59 494 45 411 q 102 652 74 577 q 172 776 131 727 q 268 843 213 826 q 391 829 323 860 q 478 897 430 871 q 582 924 527 924 q 634 903 611 922 q 669 862 658 884 q 676 822 680 841 q 645 803 672 804 q 599 856 634 838 q 523 866 563 874 q 459 830 493 859 q 395 760 425 801 q 343 674 365 720 q 318 590 322 629 q 331 525 314 552 q 398 497 349 499 q 469 515 434 497 q 536 554 504 533 q 599 593 569 575 q 658 613 630 611 q 671 612 664 613 q 685 609 679 611 q 698 602 692 607 q 703 588 703 598 q 675 543 703 567 q 605 494 647 520 q 514 436 563 468 q 422 365 464 404 q 352 280 380 326 q 325 176 325 233 q 337 115 325 139 q 371 77 349 90 q 421 58 392 63 q 480 53 449 53 q 623 78 555 53 q 752 145 691 104 q 868 238 814 187 q 970 343 923 290 l 996 343 q 968 263 996 305 q 896 181 940 221 q 797 106 852 142 q 686 43 741 70 q 582 0 631 16 q 501 -15 533 -15 q 397 -2 452 -15 q 303 43 342 10 q 276 28 291 36 q 246 13 261 20 q 217 2 231 6 q 190 0 202 -1 m 256 151 q 275 241 254 196 q 322 324 295 286 q 371 394 348 363 q 398 440 394 424 q 372 444 396 442 q 322 456 348 446 q 275 486 295 466 q 259 543 254 507 q 291 666 265 602 q 359 788 317 731 q 279 791 317 807 q 209 736 241 775 q 153 638 177 697 q 115 514 129 580 q 97 379 101 448 q 102 250 93 310 q 132 143 110 189 q 192 73 154 96 q 268 90 228 69 q 256 151 256 116 "},"Ą":{"x_min":12.203125,"x_max":801.984375,"ha":779,"o":"m 12 -82 q 27 -27 12 -63 q 63 47 43 8 q 101 121 84 87 q 123 172 119 156 q 138 228 126 186 q 166 327 150 270 q 200 447 181 383 q 233 568 218 511 q 261 667 249 625 q 276 724 272 710 q 291 792 283 749 q 313 876 299 835 q 347 945 326 916 q 401 975 368 975 q 421 966 412 975 q 438 947 431 958 q 451 925 446 937 q 457 905 455 914 q 505 714 485 793 q 540 584 526 636 q 564 503 554 533 q 579 460 573 474 q 586 442 584 446 q 590 439 588 439 q 636 461 614 453 q 686 466 659 469 q 674 430 686 444 q 647 404 661 416 q 621 377 633 392 q 610 341 610 363 q 630 249 610 293 q 675 161 651 205 q 720 75 699 118 q 740 -13 740 32 q 684 -17 706 -30 q 644 28 661 -3 q 615 104 628 59 q 588 193 603 149 q 552 274 572 237 q 503 331 533 312 q 475 323 499 331 q 418 303 451 316 q 347 273 385 290 q 276 238 309 256 q 219 204 242 221 q 189 172 195 187 l 101 -94 q 82 -116 94 -113 q 56 -119 70 -119 q 25 -110 39 -119 q 12 -82 12 -102 m 234 305 q 282 316 248 309 q 360 337 317 324 q 446 369 402 350 q 519 417 489 389 q 505 474 515 435 q 482 560 495 512 q 454 661 469 608 q 425 760 439 714 q 398 842 411 806 q 377 889 385 877 l 234 305 m 801 -155 q 748 -184 781 -176 q 682 -187 715 -193 q 627 -159 650 -181 q 603 -93 603 -136 q 608 -65 603 -85 q 621 -24 612 -45 q 646 15 631 -3 q 685 41 662 34 l 712 17 q 672 -25 688 1 q 654 -78 656 -52 q 665 -123 652 -104 q 709 -142 678 -142 q 752 -140 734 -142 q 801 -155 770 -138 "},"T":{"x_min":13.84375,"x_max":979.53125,"ha":589,"o":"m 13 789 q 36 822 13 809 q 89 845 58 835 q 149 859 119 854 q 194 868 179 864 q 392 915 295 892 q 584 956 488 938 q 777 986 679 975 q 979 998 875 998 l 979 959 q 818 941 895 954 q 668 911 740 927 q 531 877 597 895 q 409 846 466 859 q 428 824 420 838 q 438 796 436 811 q 442 719 439 771 q 447 598 444 667 q 452 452 450 530 q 457 300 455 374 q 461 163 459 226 q 461 59 462 100 q 448 8 459 24 q 398 -1 438 -6 q 398 85 398 25 q 397 211 398 145 q 395 337 396 278 q 395 423 395 397 q 392 466 395 434 q 388 541 390 499 q 383 632 386 584 q 378 722 380 680 q 374 796 376 765 q 373 838 373 827 q 61 754 206 798 q 28 761 43 754 q 13 789 13 769 "},"š":{"x_min":32.8125,"x_max":482.671875,"ha":511,"o":"m 260 -3 q 177 5 216 0 q 107 22 138 11 q 56 49 76 33 q 32 89 36 66 q 83 83 57 89 q 136 69 109 77 q 190 55 162 61 q 246 49 218 49 q 304 56 273 49 q 361 79 336 63 q 404 119 387 95 q 421 177 421 143 q 395 263 421 222 q 328 343 368 304 q 242 422 288 382 q 156 502 196 461 q 90 588 116 544 q 64 683 64 633 q 85 751 64 720 q 138 802 107 781 q 207 835 170 823 q 277 848 245 848 q 328 842 302 850 q 372 815 353 834 q 400 769 391 797 q 399 706 409 741 q 389 673 395 683 q 374 665 382 664 q 358 675 367 667 q 340 694 349 683 q 339 728 340 710 q 334 760 338 745 q 320 783 330 774 q 290 792 310 792 q 235 783 264 792 q 184 760 207 775 q 145 722 161 744 q 130 669 130 699 q 149 608 123 644 q 218 531 176 573 q 310 443 260 489 q 401 349 360 397 q 465 252 441 300 q 479 159 489 204 q 457 79 475 110 q 409 28 439 47 q 341 3 379 10 q 260 -3 303 -3 m 239 942 q 218 920 228 923 q 191 918 209 918 l 68 1067 q 74 1085 72 1075 q 80 1102 76 1095 q 92 1109 84 1109 q 117 1095 100 1109 l 202 985 l 292 1094 q 325 1113 315 1121 q 340 1078 336 1105 l 239 942 "},"Þ":{"x_min":26.4375,"x_max":624,"ha":644,"o":"m 59 -315 q 78 425 90 115 q 26 914 67 736 q 27 945 26 930 q 35 971 29 960 q 53 989 41 983 q 86 995 65 996 l 154 489 q 190 575 169 528 q 240 663 211 622 q 309 730 269 703 q 400 758 348 758 q 505 718 462 758 q 574 622 547 679 q 612 501 600 565 q 624 389 624 438 q 607 249 621 320 q 561 120 592 179 q 480 25 530 62 q 360 -10 431 -10 q 309 -8 337 -12 q 252 3 281 -5 q 195 27 223 12 q 143 65 167 42 l 124 -328 l 59 -315 m 168 143 q 191 100 168 119 q 244 70 214 82 q 307 51 275 58 q 355 44 339 44 q 466 96 426 54 q 528 194 507 138 q 553 309 548 250 q 558 413 558 368 q 548 495 558 447 q 518 587 538 543 q 465 661 498 630 q 388 693 432 693 q 312 659 344 693 q 254 572 279 625 q 213 454 230 519 q 186 329 196 390 q 172 218 176 268 q 168 143 168 168 "},"j":{"x_min":-218.6875,"x_max":239,"ha":266,"o":"m -216 -465 q -216 -441 -220 -451 q -205 -425 -212 -431 q -190 -420 -197 -420 q -180 -427 -182 -420 q -48 -491 -112 -480 q 64 -486 15 -503 q 142 -432 112 -470 q 174 -344 172 -393 q 168 -235 172 -303 q 158 -82 164 -166 q 144 99 152 2 q 127 290 136 195 q 110 473 119 385 q 95 631 102 561 q 82 746 88 701 q 73 800 76 790 q 79 809 73 804 q 93 818 84 813 q 114 825 103 823 q 136 824 125 827 q 159 660 146 756 q 182 453 171 564 q 203 225 192 343 q 220 -1 213 108 q 232 -205 228 -111 q 239 -363 237 -299 q 211 -468 239 -428 q 138 -529 183 -508 q 40 -552 93 -549 q -64 -543 -13 -554 q -156 -512 -114 -533 q -216 -465 -197 -492 m 43 991 q 71 987 58 994 q 93 968 85 980 q 101 941 101 956 q 89 911 101 926 q 29 909 47 899 q 10 937 12 919 q 19 971 9 954 q 43 991 29 988 "},"1":{"x_min":41.96875,"x_max":102.71875,"ha":163,"o":"m 102 995 l 100 14 q 90 -11 95 -7 q 78 -13 85 -16 q 62 -4 71 -11 q 43 5 53 2 q 42 240 43 110 q 42 504 41 369 q 45 766 43 638 q 51 998 47 894 l 102 995 "},"<":{"x_min":54.265625,"x_max":534.140625,"ha":578,"o":"m 54 465 q 161 563 105 511 q 267 659 217 614 q 361 736 318 704 q 430 780 404 769 q 469 782 457 791 q 474 740 481 774 l 165 442 q 242 349 202 386 q 326 285 282 312 q 421 234 371 257 q 530 180 472 210 q 531 148 537 165 q 496 125 526 130 q 427 143 469 125 q 337 190 385 161 q 242 257 290 219 q 153 332 193 294 q 86 405 113 370 q 54 465 59 439 "},"t":{"x_min":-26.984375,"x_max":538.1875,"ha":458,"o":"m 129 688 q 63 681 95 688 q -3 667 31 673 q -15 679 -9 667 q -26 726 -21 691 q 11 735 -9 732 q 54 744 32 739 q 95 757 76 749 q 129 778 115 764 l 129 983 q 133 999 129 989 q 147 1016 138 1008 q 168 1027 155 1023 q 195 1027 180 1032 l 197 789 l 538 854 q 530 827 538 839 q 512 805 523 815 q 489 789 501 796 q 467 781 477 783 q 401 764 439 772 q 324 748 363 756 q 251 730 285 740 q 195 711 216 721 l 195 21 q 185 6 195 11 q 164 -2 176 1 q 142 -6 153 -5 q 129 -7 131 -7 l 129 688 l 129 688 "},"ù":{"x_min":37.984375,"x_max":500.6875,"ha":533,"o":"m 166 -2 q 114 27 137 -9 q 77 129 92 65 q 53 274 62 192 q 41 438 44 355 q 37 595 37 521 q 40 721 37 670 q 44 736 40 725 q 55 757 47 747 q 77 771 63 766 q 113 770 92 777 q 109 731 112 763 q 105 649 107 698 q 103 541 104 601 q 104 420 103 481 q 109 300 105 359 q 122 194 113 241 q 141 118 130 148 q 170 84 153 88 q 241 133 204 89 q 311 244 278 177 q 371 391 344 310 q 413 552 398 472 q 429 706 428 633 q 409 828 430 778 q 417 835 411 831 q 430 843 423 839 q 443 849 436 846 q 453 852 450 852 q 481 831 472 852 q 495 784 491 811 q 499 731 499 757 q 500 696 500 705 q 491 599 501 662 q 461 462 481 537 q 413 309 442 388 q 345 164 383 230 q 263 52 307 97 q 166 -2 218 6 m 161 1020 q 181 1042 172 1039 q 209 1045 191 1045 l 301 921 q 294 901 297 913 q 286 882 291 890 q 271 873 280 874 q 245 886 261 872 l 161 1020 "},"ĉ":{"x_min":39.4375,"x_max":535.875,"ha":578,"o":"m 166 0 q 83 44 112 5 q 44 145 54 84 q 42 281 35 206 q 70 435 50 356 q 121 588 90 514 q 187 722 151 663 q 261 818 223 781 q 336 856 299 854 q 421 826 387 854 q 467 756 454 797 q 476 669 481 715 q 447 589 472 623 q 420 610 427 594 q 412 648 413 627 q 411 692 411 669 q 407 734 412 715 q 388 766 402 754 q 344 779 374 779 q 281 745 311 779 q 225 660 250 712 q 177 546 199 609 q 141 422 155 483 q 118 312 126 362 q 109 236 109 261 q 109 190 109 219 q 113 133 108 161 q 133 85 119 105 q 177 65 147 65 q 272 98 222 65 q 371 177 322 131 q 463 273 420 223 q 534 355 505 322 q 524 274 539 315 q 482 193 510 233 q 415 119 454 154 q 334 58 377 85 q 248 16 291 32 q 166 0 204 0 m 307 1073 q 328 1095 318 1092 q 355 1098 337 1098 l 452 966 q 446 946 448 958 q 438 927 443 935 q 423 918 432 918 q 397 931 413 917 l 337 1004 l 288 925 q 253 911 273 906 q 223 933 233 916 l 307 1073 "},"ï":{"x_min":-30.953125,"x_max":239.34375,"ha":209,"o":"m 97 825 q 139 628 123 736 q 163 411 154 519 q 175 203 172 302 q 181 38 179 104 q 166 6 181 11 q 126 5 150 1 q 96 403 108 203 q 52 801 84 603 l 97 825 m -23 887 q -29 923 -34 903 q -11 956 -24 944 q 18 970 1 969 q 52 948 36 971 q 60 912 64 933 q 41 879 55 892 q 9 865 28 866 q -23 887 -8 864 m 151 892 q 144 926 140 906 q 161 960 148 946 q 192 975 174 973 q 227 953 211 976 q 239 917 241 938 q 224 882 237 896 q 191 867 211 868 q 151 892 171 866 "},"ī":{"x_min":-127.359375,"x_max":339.25,"ha":209,"o":"m 97 825 q 139 628 123 736 q 163 411 154 519 q 175 203 172 302 q 181 38 179 104 q 166 6 181 11 q 126 5 150 1 q 96 403 108 203 q 52 801 84 603 l 97 825 m -127 912 q -121 941 -127 923 q -109 967 -116 960 l 335 952 l 339 894 l -127 912 "},"Ò":{"x_min":21.34375,"x_max":507.375,"ha":526,"o":"m 191 0 q 107 45 142 3 q 51 153 71 86 q 24 303 31 219 q 25 473 17 386 q 56 643 33 560 q 117 792 80 726 q 206 899 154 858 q 326 944 259 941 q 423 893 385 938 q 482 779 462 849 q 506 624 503 710 q 497 449 510 538 q 459 277 485 360 q 393 130 432 193 q 303 30 354 66 q 191 0 252 -5 m 317 882 q 240 848 276 880 q 176 762 204 815 q 126 642 147 709 q 94 503 105 575 q 83 361 84 431 q 94 231 82 290 q 129 130 105 172 q 192 73 153 88 q 280 98 240 69 q 352 178 320 127 q 405 297 383 229 q 438 437 427 365 q 448 582 448 510 q 433 716 447 655 q 390 821 419 777 q 317 882 362 865 m 191 1143 q 211 1165 202 1162 q 239 1168 221 1168 l 331 1044 q 324 1024 327 1036 q 316 1005 321 1013 q 301 996 310 997 q 275 1009 291 995 l 191 1143 "},"Ď":{"x_min":31.875,"x_max":762,"ha":800,"o":"m 121 832 q 88 813 108 823 q 53 802 68 804 q 32 808 37 800 q 44 844 28 817 q 148 904 87 886 q 269 925 208 922 q 384 924 330 928 q 471 916 439 919 q 588 870 536 900 q 677 800 639 840 q 736 710 714 759 q 762 607 757 661 q 737 471 762 542 q 671 333 713 401 q 572 204 629 265 q 450 97 515 143 q 316 24 386 51 q 180 -3 246 -3 q 173 195 180 93 q 158 399 166 296 q 142 603 150 501 q 134 800 135 705 l 121 832 m 198 865 q 206 580 202 701 q 215 373 211 459 q 223 231 219 287 q 229 139 226 176 q 235 81 233 102 q 238 46 237 60 q 343 79 288 48 q 451 157 398 109 q 551 265 504 204 q 635 387 599 325 q 691 507 671 448 q 712 611 712 565 q 686 712 712 667 q 620 792 661 758 q 525 847 579 825 q 414 878 471 869 q 300 884 356 888 q 198 865 244 881 m 386 1036 q 365 1014 375 1017 q 338 1012 356 1012 l 215 1161 q 221 1179 219 1169 q 227 1196 223 1189 q 239 1203 231 1203 q 264 1189 247 1203 l 349 1079 l 439 1188 q 472 1207 462 1215 q 487 1172 483 1199 l 386 1036 "},"&":{"x_min":47.171875,"x_max":774.53125,"ha":806,"o":"m 444 143 q 417 293 421 217 q 402 444 413 370 q 349 428 386 439 q 268 411 313 417 q 177 406 223 405 q 94 427 131 408 q 67 444 78 436 q 50 461 55 451 q 47 482 46 470 q 58 511 48 493 q 94 577 67 539 q 159 655 122 615 q 240 732 196 694 q 328 798 284 770 q 413 843 373 827 q 484 853 453 858 l 473 530 q 588 577 542 553 q 666 618 633 602 q 722 637 698 634 q 774 619 747 640 q 604 520 664 556 q 515 468 543 485 q 480 447 486 451 q 474 442 474 443 q 460 382 459 413 q 469 318 461 351 q 489 252 477 286 q 508 185 500 218 q 516 120 516 151 q 501 61 516 89 q 461 58 476 52 q 437 77 447 63 q 418 109 427 90 q 394 145 409 128 l 444 143 m 396 519 q 408 560 402 529 q 417 629 413 592 q 421 697 420 666 q 421 739 423 728 q 381 748 406 752 q 325 725 355 743 q 263 680 295 708 q 203 621 231 653 q 153 554 174 588 q 122 486 131 519 q 181 472 139 477 q 265 471 222 467 q 346 486 309 474 q 396 519 383 497 "},"˝":{"x_min":32.5625,"x_max":288.921875,"ha":317,"o":"m 88 871 q 55 867 66 864 q 39 878 44 871 q 33 894 33 886 q 32 906 32 902 l 124 1030 q 151 1027 142 1030 q 172 1005 161 1024 l 88 871 m 204 858 q 181 857 189 853 q 168 868 173 861 q 158 883 162 874 q 149 893 154 891 l 241 1017 q 268 1014 259 1017 q 288 992 278 1011 l 204 858 "},"I":{"x_min":41.140625,"x_max":143.78125,"ha":178,"o":"m 58 89 q 54 160 56 112 q 50 271 52 208 q 46 408 48 334 q 43 554 44 481 q 41 696 42 627 q 42 817 40 765 q 45 902 43 869 q 52 936 47 934 l 90 936 q 95 803 94 885 q 96 625 96 720 q 96 435 96 531 q 101 261 97 340 q 113 132 105 182 q 137 78 122 81 q 140 53 137 67 q 143 27 143 40 q 137 5 143 14 q 113 -3 131 -3 q 90 8 100 -3 q 74 35 81 20 q 63 66 67 51 q 58 89 59 81 "},"G":{"x_min":42.046875,"x_max":800.296875,"ha":823,"o":"m 42 284 q 52 380 42 318 q 82 514 62 442 q 129 662 101 587 q 192 799 157 737 q 269 899 227 861 q 356 938 310 938 q 381 939 368 939 q 406 932 394 938 q 429 914 419 926 q 447 878 440 901 q 432 851 447 861 q 400 844 416 842 q 389 857 397 850 q 367 866 381 863 q 307 849 340 878 q 240 762 274 819 q 177 629 207 705 q 128 472 147 553 q 103 315 108 391 q 111 179 97 238 q 164 88 126 120 q 271 65 202 56 q 392 91 322 65 q 522 162 461 117 q 627 262 584 206 q 670 378 670 318 q 664 422 670 396 q 647 474 659 449 q 619 517 636 499 q 580 536 602 536 q 476 516 523 538 q 394 464 428 493 q 338 408 359 435 q 313 375 317 381 q 301 376 309 375 q 285 379 293 377 q 272 386 278 381 q 267 400 267 390 q 285 450 267 426 q 333 498 303 474 q 397 539 362 521 q 467 572 432 558 q 531 593 501 585 q 576 602 560 602 q 642 587 615 602 q 685 547 668 572 q 713 489 702 522 q 733 421 724 456 q 747 366 737 406 q 767 280 756 326 q 788 192 778 234 q 800 132 797 150 l 800 121 l 800 111 q 796 100 800 107 q 790 86 793 93 q 783 73 786 79 q 778 66 779 67 q 774 65 777 65 l 767 65 l 760 65 q 756 66 758 65 q 744 77 752 69 q 733 89 736 85 q 724 124 731 98 q 710 177 717 149 q 696 231 702 206 q 689 267 690 256 q 608 172 653 219 q 509 85 562 124 q 396 21 455 45 q 274 -3 336 -3 q 156 17 202 -3 q 86 75 111 37 q 51 166 61 113 q 42 284 42 219 "},"`":{"x_min":32.5625,"x_max":172.265625,"ha":193,"o":"m 32 1005 q 52 1027 43 1024 q 80 1030 62 1030 l 172 906 q 165 886 168 898 q 157 867 162 875 q 142 858 151 859 q 116 871 132 857 l 32 1005 "},"ŏ":{"x_min":23.0625,"x_max":454.546875,"ha":467,"o":"m 23 246 q 59 539 35 422 q 118 727 84 656 q 193 825 153 797 q 279 848 234 853 q 372 808 335 845 q 429 712 409 772 q 453 577 450 652 q 446 423 457 502 q 411 268 435 344 q 349 133 386 192 q 263 36 311 73 q 157 -4 215 -1 q 80 21 107 -4 q 40 86 52 47 q 25 168 27 124 q 23 246 23 211 m 279 792 q 218 764 246 794 q 166 682 189 733 q 124 564 142 630 q 96 427 107 497 q 83 291 85 357 q 88 173 81 225 q 111 92 94 121 q 158 64 128 62 q 264 130 218 73 q 339 266 310 187 q 381 436 368 345 q 388 605 394 527 q 355 735 382 683 q 279 792 328 787 m 160 1010 q 199 957 178 971 q 242 944 220 942 q 285 957 264 945 q 325 981 306 968 q 356 1003 343 994 q 374 1010 369 1013 q 393 1003 393 1018 q 376 966 392 988 q 331 921 359 944 q 268 893 302 899 q 194 906 233 887 q 118 983 154 925 l 160 1010 "},"¿":{"x_min":44.625,"x_max":627.15625,"ha":652,"o":"m 462 924 q 444 900 458 911 q 416 883 430 889 q 388 876 401 876 q 370 887 375 876 q 370 922 364 898 q 399 987 376 946 q 427 993 416 995 q 447 979 439 990 q 458 954 455 969 q 462 924 462 939 m 125 165 q 137 128 125 144 q 167 102 149 113 q 205 86 185 92 q 241 81 225 81 q 353 107 301 81 q 450 175 405 133 q 533 270 495 217 q 601 377 571 323 l 627 377 q 589 229 627 297 q 493 111 551 161 q 368 33 436 62 q 241 5 301 5 q 186 15 221 5 q 119 45 152 26 q 64 92 87 64 q 45 154 41 119 q 75 258 50 202 q 136 368 99 313 q 219 474 173 423 q 315 564 265 525 q 413 627 364 603 q 504 650 462 650 q 476 590 504 621 q 405 526 448 559 q 314 454 363 492 q 223 372 265 416 q 152 277 180 328 q 125 165 125 225 "},"ý":{"x_min":25.375,"x_max":628.21875,"ha":712,"o":"m 428 -553 q 362 -550 398 -553 q 294 -542 326 -548 q 236 -526 261 -536 q 203 -498 211 -516 q 199 -486 196 -496 q 210 -468 201 -477 q 229 -455 218 -460 q 252 -455 241 -449 q 402 -487 343 -497 q 494 -439 461 -478 q 543 -341 528 -401 q 562 -222 558 -281 q 561 -114 565 -163 q 556 -45 557 -64 q 549 50 553 -9 q 540 182 545 110 q 530 331 535 254 q 518 479 524 408 q 507 611 512 551 q 497 708 501 671 q 448 555 475 637 q 391 391 421 472 q 328 234 360 309 q 263 104 295 159 q 198 19 230 49 q 139 0 166 -10 q 77 53 101 9 q 39 161 52 96 q 25 309 26 226 q 30 481 24 392 q 49 664 36 571 q 79 842 62 757 q 120 840 101 849 q 146 798 139 830 q 109 635 121 718 q 94 473 97 552 q 94 325 90 395 q 108 204 98 256 q 132 121 117 152 q 162 89 146 91 q 201 132 178 91 q 252 239 225 174 q 309 386 279 305 q 368 547 338 467 q 425 700 397 628 q 475 818 452 772 q 503 842 484 841 q 542 841 522 844 q 554 734 547 800 q 568 588 561 667 q 584 422 576 509 q 598 256 592 335 q 609 109 604 176 q 618 3 615 42 q 623 -89 619 -37 q 628 -196 627 -140 q 621 -309 628 -253 q 592 -413 613 -365 q 531 -499 570 -462 q 428 -553 492 -536 m 355 942 q 329 929 338 928 q 314 938 319 930 q 306 957 309 946 q 299 977 303 969 l 391 1101 q 418 1098 409 1101 q 439 1076 428 1095 l 355 942 "},"ź":{"x_min":16.734375,"x_max":625.71875,"ha":734,"o":"m 248 -10 q 159 25 187 -5 q 127 103 131 56 q 137 207 123 150 q 174 322 151 265 q 221 429 196 379 q 263 512 245 480 l 17 448 q 27 500 13 481 q 67 530 42 519 q 124 547 92 541 q 189 559 155 553 q 254 575 223 565 q 307 602 284 584 l 402 796 q 307 792 349 805 q 223 759 264 778 q 141 721 183 739 q 47 706 99 704 q 54 744 37 725 q 103 780 70 763 q 181 813 135 797 q 274 839 226 829 q 366 856 321 850 q 447 863 412 863 q 492 832 486 848 q 482 788 497 816 q 440 712 467 759 q 386 588 412 666 l 533 636 q 538 604 549 624 q 498 564 527 584 q 425 527 469 543 q 332 505 382 511 q 294 434 316 478 q 252 340 272 390 q 215 239 231 290 q 196 148 199 189 q 204 82 192 108 q 249 58 215 56 q 370 72 311 49 q 480 129 430 94 q 567 205 530 165 q 625 272 604 245 q 590 163 629 215 q 493 71 552 110 q 368 9 435 32 q 248 -10 301 -12 m 346 939 q 320 926 329 925 q 305 935 310 927 q 297 954 300 943 q 290 974 294 966 l 382 1098 q 409 1095 400 1098 q 430 1073 419 1092 l 346 939 "},"ű":{"x_min":37.984375,"x_max":500.6875,"ha":515,"o":"m 166 -2 q 114 27 137 -9 q 77 129 92 65 q 53 274 62 192 q 41 438 44 355 q 37 595 37 521 q 40 721 37 670 q 44 736 40 725 q 55 757 47 747 q 77 771 63 766 q 113 770 92 777 q 109 731 112 763 q 105 649 107 698 q 103 541 104 601 q 104 420 103 481 q 109 300 105 359 q 122 194 113 241 q 141 118 130 148 q 170 84 153 88 q 241 133 204 89 q 311 244 278 177 q 371 391 344 310 q 413 552 398 472 q 429 706 428 633 q 409 828 430 778 q 417 835 411 831 q 430 843 423 839 q 443 849 436 846 q 453 852 450 852 q 481 831 472 852 q 495 784 491 811 q 499 731 499 757 q 500 696 500 705 q 491 599 501 662 q 461 462 481 537 q 413 309 442 388 q 345 164 383 230 q 263 52 307 97 q 166 -2 218 6 m 186 871 q 153 867 164 864 q 137 878 142 871 q 131 894 131 886 q 130 906 130 902 l 222 1030 q 249 1027 240 1030 q 270 1005 259 1024 l 186 871 m 302 858 q 279 857 287 853 q 266 868 271 861 q 256 883 260 874 q 247 893 252 891 l 339 1017 q 366 1014 357 1017 q 386 992 376 1011 l 302 858 "},"Ǽ":{"x_min":35.09375,"x_max":1136.4375,"ha":1154,"o":"m 396 219 q 404 281 394 250 q 431 342 414 313 q 362 314 398 330 q 294 281 325 298 q 239 247 262 264 q 212 216 216 230 l 124 -50 q 105 -72 117 -69 q 79 -75 93 -75 q 48 -66 62 -75 q 35 -38 35 -58 q 50 16 35 -19 q 86 91 66 52 q 124 165 106 131 q 146 216 142 200 q 161 272 149 230 q 189 371 173 314 q 222 492 204 428 q 256 612 241 555 q 284 712 272 669 q 299 768 295 755 q 314 837 306 794 q 336 920 322 880 q 370 990 349 961 q 424 1020 391 1020 q 437 998 427 1020 q 460 948 448 976 q 483 892 473 919 q 494 855 493 865 q 526 901 507 876 q 574 947 546 926 q 639 981 603 968 q 722 992 676 994 q 774 971 751 990 q 809 930 798 952 q 816 890 820 909 q 785 871 812 872 q 739 924 774 906 q 663 934 703 942 q 608 904 637 929 q 551 839 578 880 q 500 740 524 797 q 463 609 477 682 q 538 565 478 567 q 609 583 574 565 q 676 622 644 601 q 739 661 709 643 q 798 681 770 679 q 811 680 804 681 q 825 677 819 679 q 838 670 832 675 q 843 656 843 666 q 815 611 843 635 q 745 562 787 588 q 654 504 703 536 q 562 433 604 472 q 492 348 520 394 q 465 244 465 301 q 477 183 465 207 q 511 145 489 158 q 561 126 532 131 q 620 121 589 121 q 763 146 695 121 q 892 213 831 172 q 1008 306 954 255 q 1110 411 1063 358 l 1136 411 q 1108 331 1136 373 q 1036 249 1080 289 q 937 174 992 210 q 826 111 881 138 q 722 68 771 84 q 641 53 673 53 q 559 60 602 53 q 479 87 516 67 q 419 139 443 107 q 396 219 396 170 m 538 508 q 499 508 524 504 q 450 524 474 512 q 411 558 427 536 q 399 611 394 580 q 415 689 402 648 q 447 770 428 729 q 421 880 433 839 q 400 934 409 921 l 257 349 q 285 355 264 351 q 335 364 306 359 q 395 377 363 370 q 455 393 427 385 l 538 508 m 563 1018 q 537 1005 546 1004 q 522 1014 527 1006 q 514 1033 517 1022 q 507 1053 511 1045 l 599 1177 q 626 1174 617 1177 q 647 1152 636 1171 l 563 1018 "},"ń":{"x_min":45,"x_max":564.1875,"ha":601,"o":"m 111 400 q 115 472 109 428 q 135 568 121 517 q 170 670 148 619 q 218 761 191 721 q 280 826 246 802 q 355 848 314 850 q 433 817 402 848 q 483 744 465 787 q 510 655 501 701 q 523 579 519 609 q 528 517 527 560 q 531 418 530 473 q 534 303 532 363 q 540 189 536 243 q 549 96 543 136 q 564 41 554 56 q 553 17 565 28 q 524 0 540 5 q 493 -2 508 -6 q 474 19 478 0 q 455 161 459 80 q 450 329 451 243 q 448 497 448 415 q 439 644 447 579 q 411 745 431 708 q 355 779 391 783 q 282 741 314 776 q 226 649 250 706 q 184 522 201 593 q 155 377 167 451 q 135 234 143 303 q 122 112 127 164 q 114 29 117 59 q 108 6 111 0 q 93 5 104 6 q 71 5 82 4 q 53 9 61 6 q 45 22 45 13 l 45 689 q 60 747 45 721 q 111 774 75 774 l 111 400 m 327 940 q 301 927 310 926 q 286 936 291 928 q 278 955 281 944 q 271 975 275 967 l 363 1099 q 390 1096 381 1099 q 411 1074 400 1093 l 327 940 "},"Ș":{"x_min":19,"x_max":622,"ha":644,"o":"m 172 69 q 176 75 172 70 q 187 86 181 80 q 198 97 193 92 q 203 103 203 101 q 269 63 242 70 q 336 57 296 57 q 410 74 371 57 q 483 120 450 92 q 538 184 516 149 q 560 256 560 219 q 520 339 560 309 q 419 390 480 370 q 289 426 359 411 q 159 462 219 441 q 59 514 99 483 q 19 598 19 545 q 42 717 19 656 q 107 825 66 777 q 201 904 148 873 q 314 935 255 935 q 382 921 352 935 q 431 883 411 907 q 462 828 451 860 q 473 761 473 797 q 472 715 473 736 q 467 672 470 693 q 459 628 464 651 q 447 579 454 606 q 443 575 446 576 q 436 575 439 575 q 407 597 412 575 q 403 651 401 618 q 408 723 405 685 q 404 794 411 761 q 375 849 397 827 q 304 871 352 871 q 224 849 263 871 q 154 795 184 828 q 105 718 123 761 q 87 632 87 675 q 126 557 87 587 q 225 505 166 527 q 354 465 284 484 q 483 424 424 447 q 582 369 542 401 q 622 288 622 337 q 599 187 622 238 q 539 93 577 135 q 453 24 501 51 q 355 -3 405 -3 q 306 0 337 -3 q 245 12 275 3 q 193 33 215 20 q 172 69 172 47 m 289 -325 q 284 -326 290 -324 q 270 -331 278 -328 q 256 -336 263 -333 q 249 -338 249 -339 q 228 -319 234 -346 q 225 -250 222 -291 q 239 -163 229 -209 q 265 -86 249 -116 q 301 -50 280 -55 q 347 -85 322 -45 l 289 -325 "},";":{"x_min":111.234375,"x_max":298.421875,"ha":385,"o":"m 111 -221 q 170 -121 138 -174 q 216 -14 202 -67 q 217 91 230 39 q 143 188 204 143 q 150 207 143 200 q 166 217 157 214 q 187 221 176 221 q 207 221 198 221 q 255 202 237 221 q 282 157 272 184 q 295 98 291 130 q 298 40 298 66 q 282 -25 291 12 q 252 -100 272 -63 q 202 -170 233 -138 q 122 -222 170 -203 q 116 -221 119 -222 q 111 -221 113 -221 m 236 493 q 245 467 242 488 q 240 426 248 446 q 213 398 233 406 q 157 406 193 389 q 151 449 146 428 q 170 484 157 470 q 202 501 184 497 q 236 493 219 505 "},"Ġ":{"x_min":42.046875,"x_max":800.296875,"ha":823,"o":"m 42 284 q 52 380 42 318 q 82 514 62 442 q 129 662 101 587 q 192 799 157 737 q 269 899 227 861 q 356 938 310 938 q 381 939 368 939 q 406 932 394 938 q 429 914 419 926 q 447 878 440 901 q 432 851 447 861 q 400 844 416 842 q 389 857 397 850 q 367 866 381 863 q 307 849 340 878 q 240 762 274 819 q 177 629 207 705 q 128 472 147 553 q 103 315 108 391 q 111 179 97 238 q 164 88 126 120 q 271 65 202 56 q 392 91 322 65 q 522 162 461 117 q 627 262 584 206 q 670 378 670 318 q 664 422 670 396 q 647 474 659 449 q 619 517 636 499 q 580 536 602 536 q 476 516 523 538 q 394 464 428 493 q 338 408 359 435 q 313 375 317 381 q 301 376 309 375 q 285 379 293 377 q 272 386 278 381 q 267 400 267 390 q 285 450 267 426 q 333 498 303 474 q 397 539 362 521 q 467 572 432 558 q 531 593 501 585 q 576 602 560 602 q 642 587 615 602 q 685 547 668 572 q 713 489 702 522 q 733 421 724 456 q 747 366 737 406 q 767 280 756 326 q 788 192 778 234 q 800 132 797 150 l 800 121 l 800 111 q 796 100 800 107 q 790 86 793 93 q 783 73 786 79 q 778 66 779 67 q 774 65 777 65 l 767 65 l 760 65 q 756 66 758 65 q 744 77 752 69 q 733 89 736 85 q 724 124 731 98 q 710 177 717 149 q 696 231 702 206 q 689 267 690 256 q 608 172 653 219 q 509 85 562 124 q 396 21 455 45 q 274 -3 336 -3 q 156 17 202 -3 q 86 75 111 37 q 51 166 61 113 q 42 284 42 219 m 304 1013 q 303 1051 296 1030 q 326 1087 310 1073 q 360 1103 341 1101 q 395 1082 379 1106 q 399 1046 406 1070 q 376 1004 391 1023 q 340 984 360 986 q 304 1013 319 982 "},"6":{"x_min":27.390625,"x_max":589.25,"ha":600,"o":"m 28 306 q 29 402 25 337 q 44 546 33 467 q 73 709 55 626 q 115 859 90 793 q 172 966 141 926 q 244 997 204 1006 q 221 915 240 965 q 179 803 202 866 q 134 664 155 740 q 105 502 113 588 q 105 323 96 417 q 154 129 115 228 q 189 213 164 162 q 249 319 214 265 q 326 423 284 373 q 413 503 368 472 q 499 538 457 534 q 580 504 542 542 q 582 386 596 447 q 535 267 568 325 q 457 158 503 209 q 362 68 411 106 q 267 8 313 30 q 187 -14 221 -14 q 118 29 147 -8 q 67 117 88 67 q 37 219 47 167 q 28 306 27 272 m 518 463 q 470 457 497 474 q 411 404 442 439 q 347 324 379 370 q 285 231 314 278 q 233 141 256 184 q 200 70 211 97 q 233 73 204 55 q 300 127 261 90 q 382 212 339 164 q 459 310 425 261 q 511 400 493 359 q 518 463 529 442 "},"n":{"x_min":45,"x_max":564.1875,"ha":601,"o":"m 111 400 q 115 472 109 428 q 135 568 121 517 q 170 670 148 619 q 218 761 191 721 q 280 826 246 802 q 355 848 314 850 q 433 817 402 848 q 483 744 465 787 q 510 655 501 701 q 523 579 519 609 q 528 517 527 560 q 531 418 530 473 q 534 303 532 363 q 540 189 536 243 q 549 96 543 136 q 564 41 554 56 q 553 17 565 28 q 524 0 540 5 q 493 -2 508 -6 q 474 19 478 0 q 455 161 459 80 q 450 329 451 243 q 448 497 448 415 q 439 644 447 579 q 411 745 431 708 q 355 779 391 783 q 282 741 314 776 q 226 649 250 706 q 184 522 201 593 q 155 377 167 451 q 135 234 143 303 q 122 112 127 164 q 114 29 117 59 q 108 6 111 0 q 93 5 104 6 q 71 5 82 4 q 53 9 61 6 q 45 22 45 13 l 45 689 q 60 747 45 721 q 111 774 75 774 l 111 400 "},"ģ":{"x_min":55.46875,"x_max":687.5625,"ha":734,"o":"m 240 967 q 255 1027 245 996 q 271 1097 265 1059 q 271 1177 276 1134 q 241 1272 265 1221 q 255 1299 241 1291 q 286 1308 269 1308 q 333 1238 318 1283 q 347 1141 347 1194 q 335 1037 347 1089 q 301 947 322 985 q 288 937 298 940 q 268 937 279 934 q 248 947 257 940 q 240 967 240 955 m 223 -522 q 204 -493 207 -510 q 208 -463 202 -476 q 227 -445 214 -450 q 252 -451 240 -440 q 367 -487 314 -489 q 462 -457 420 -485 q 535 -379 504 -428 q 584 -272 565 -330 q 611 -153 603 -214 q 615 -39 619 -92 l 564 606 q 446 327 503 439 q 341 145 390 215 q 248 42 291 75 q 172 0 206 9 q 113 -3 138 -10 q 74 17 88 4 q 55 122 56 56 q 65 265 54 188 q 101 426 77 343 q 158 585 126 510 q 232 722 191 661 q 321 814 274 782 q 419 843 368 846 q 523 788 470 839 q 533 826 523 812 q 556 843 542 841 q 585 840 571 846 q 610 817 599 834 l 686 -31 q 685 -122 689 -63 q 667 -248 682 -181 q 621 -381 652 -316 q 538 -489 591 -446 q 408 -546 485 -533 q 223 -522 332 -560 m 396 777 q 320 721 359 769 q 246 604 282 674 q 183 451 211 534 q 139 292 154 368 q 122 153 123 215 q 141 62 120 90 q 200 87 164 56 q 276 171 236 118 q 356 293 316 225 q 427 432 396 362 q 479 566 459 501 q 499 675 499 630 q 489 714 499 695 q 465 746 480 732 q 432 769 451 760 q 396 777 413 777 "},"Ĝ":{"x_min":42.046875,"x_max":800.296875,"ha":823,"o":"m 42 284 q 52 380 42 318 q 82 514 62 442 q 129 662 101 587 q 192 799 157 737 q 269 899 227 861 q 356 938 310 938 q 381 939 368 939 q 406 932 394 938 q 429 914 419 926 q 447 878 440 901 q 432 851 447 861 q 400 844 416 842 q 389 857 397 850 q 367 866 381 863 q 307 849 340 878 q 240 762 274 819 q 177 629 207 705 q 128 472 147 553 q 103 315 108 391 q 111 179 97 238 q 164 88 126 120 q 271 65 202 56 q 392 91 322 65 q 522 162 461 117 q 627 262 584 206 q 670 378 670 318 q 664 422 670 396 q 647 474 659 449 q 619 517 636 499 q 580 536 602 536 q 476 516 523 538 q 394 464 428 493 q 338 408 359 435 q 313 375 317 381 q 301 376 309 375 q 285 379 293 377 q 272 386 278 381 q 267 400 267 390 q 285 450 267 426 q 333 498 303 474 q 397 539 362 521 q 467 572 432 558 q 531 593 501 585 q 576 602 560 602 q 642 587 615 602 q 685 547 668 572 q 713 489 702 522 q 733 421 724 456 q 747 366 737 406 q 767 280 756 326 q 788 192 778 234 q 800 132 797 150 l 800 121 l 800 111 q 796 100 800 107 q 790 86 793 93 q 783 73 786 79 q 778 66 779 67 q 774 65 777 65 l 767 65 l 760 65 q 756 66 758 65 q 744 77 752 69 q 733 89 736 85 q 724 124 731 98 q 710 177 717 149 q 696 231 702 206 q 689 267 690 256 q 608 172 653 219 q 509 85 562 124 q 396 21 455 45 q 274 -3 336 -3 q 156 17 202 -3 q 86 75 111 37 q 51 166 61 113 q 42 284 42 219 m 329 1139 q 350 1161 340 1158 q 377 1164 359 1164 l 474 1032 q 468 1012 470 1024 q 460 993 465 1001 q 445 984 454 984 q 419 997 435 983 l 359 1070 l 310 991 q 275 977 295 972 q 245 999 255 982 l 329 1139 "},"p":{"x_min":4.96875,"x_max":515,"ha":534,"o":"m 37 783 q 35 813 30 801 q 49 832 40 825 q 71 842 59 839 q 94 846 83 846 q 242 835 167 846 q 377 790 316 824 q 477 693 439 756 q 515 526 515 630 q 483 360 513 441 q 405 211 453 279 q 295 94 356 143 q 173 25 235 46 l 184 -526 q 150 -512 163 -526 q 131 -480 137 -498 q 120 -442 124 -462 q 117 -410 117 -422 q 115 -362 117 -395 q 111 -287 113 -329 q 107 -197 109 -245 q 103 -108 105 -150 q 101 -33 102 -66 q 99 13 99 -1 q 68 11 79 13 q 47 11 56 9 q 30 22 38 13 q 4 51 21 31 q 60 53 44 44 q 97 75 76 62 l 37 783 m 170 97 q 282 160 231 118 q 371 261 333 203 q 431 386 409 318 q 458 523 453 454 q 430 651 459 598 q 353 737 402 704 q 240 784 304 770 q 108 792 177 797 l 170 97 "},"ň":{"x_min":45,"x_max":564.1875,"ha":601,"o":"m 111 400 q 115 472 109 428 q 135 568 121 517 q 170 670 148 619 q 218 761 191 721 q 280 826 246 802 q 355 848 314 850 q 433 817 402 848 q 483 744 465 787 q 510 655 501 701 q 523 579 519 609 q 528 517 527 560 q 531 418 530 473 q 534 303 532 363 q 540 189 536 243 q 549 96 543 136 q 564 41 554 56 q 553 17 565 28 q 524 0 540 5 q 493 -2 508 -6 q 474 19 478 0 q 455 161 459 80 q 450 329 451 243 q 448 497 448 415 q 439 644 447 579 q 411 745 431 708 q 355 779 391 783 q 282 741 314 776 q 226 649 250 706 q 184 522 201 593 q 155 377 167 451 q 135 234 143 303 q 122 112 127 164 q 114 29 117 59 q 108 6 111 0 q 93 5 104 6 q 71 5 82 4 q 53 9 61 6 q 45 22 45 13 l 45 689 q 60 747 45 721 q 111 774 75 774 l 111 400 m 357 966 q 336 944 346 947 q 309 942 327 942 l 186 1091 q 192 1109 190 1099 q 198 1126 194 1119 q 210 1133 202 1133 q 235 1119 218 1133 l 320 1009 l 410 1118 q 443 1137 433 1145 q 458 1102 454 1129 l 357 966 "},"ę":{"x_min":29.84375,"x_max":496.125,"ha":533,"o":"m 29 170 q 42 289 29 216 q 76 443 54 363 q 130 604 99 524 q 201 744 162 684 q 284 836 240 805 q 379 851 329 867 q 407 834 389 852 q 436 777 425 816 q 443 679 447 738 q 406 538 439 620 q 303 352 373 456 q 111 118 233 247 q 169 74 135 80 q 241 80 203 67 q 317 123 279 94 q 387 185 355 152 q 444 249 420 217 q 477 300 467 281 q 495 249 500 280 q 465 185 489 219 q 404 118 442 151 q 326 59 367 85 q 246 17 286 33 q 180 5 207 2 q 124 19 151 5 q 76 56 97 33 q 42 109 55 79 q 29 170 29 139 m 341 775 q 282 739 313 775 q 223 648 252 703 q 170 527 195 593 q 127 400 145 462 q 101 290 109 338 q 97 222 93 242 q 155 258 119 220 q 229 355 191 296 q 301 484 267 414 q 354 616 335 554 q 373 723 374 679 q 341 775 373 767 m 403 -102 q 350 -131 383 -123 q 284 -134 317 -140 q 229 -106 252 -128 q 205 -40 205 -83 q 210 -12 205 -32 q 223 28 214 7 q 248 68 233 49 q 287 94 264 87 l 314 70 q 274 27 290 54 q 256 -25 258 0 q 267 -70 254 -51 q 311 -89 280 -89 q 354 -87 336 -89 q 403 -102 372 -85 "},"S":{"x_min":19,"x_max":622,"ha":644,"o":"m 172 69 q 176 75 172 70 q 187 86 181 80 q 198 97 193 92 q 203 103 203 101 q 269 63 242 70 q 336 57 296 57 q 410 74 371 57 q 483 120 450 92 q 538 184 516 149 q 560 256 560 219 q 520 339 560 309 q 419 390 480 370 q 289 426 359 411 q 159 462 219 441 q 59 514 99 483 q 19 598 19 545 q 42 717 19 656 q 107 825 66 777 q 201 904 148 873 q 314 935 255 935 q 382 921 352 935 q 431 883 411 907 q 462 828 451 860 q 473 761 473 797 q 472 715 473 736 q 467 672 470 693 q 459 628 464 651 q 447 579 454 606 q 443 575 446 576 q 436 575 439 575 q 407 597 412 575 q 403 651 401 618 q 408 723 405 685 q 404 794 411 761 q 375 849 397 827 q 304 871 352 871 q 224 849 263 871 q 154 795 184 828 q 105 718 123 761 q 87 632 87 675 q 126 557 87 587 q 225 505 166 527 q 354 465 284 484 q 483 424 424 447 q 582 369 542 401 q 622 288 622 337 q 599 187 622 238 q 539 93 577 135 q 453 24 501 51 q 355 -3 405 -3 q 306 0 337 -3 q 245 12 275 3 q 193 33 215 20 q 172 69 172 47 "},"/":{"x_min":-4.0625,"x_max":529.203125,"ha":545,"o":"m 40 -73 q 10 -64 17 -73 q -4 -28 2 -55 l 482 995 q 505 1000 496 1002 q 520 991 515 998 q 528 972 526 983 q 527 951 530 960 l 40 -73 "},"į":{"x_min":11.484375,"x_max":262.984375,"ha":209,"o":"m 97 824 q 139 628 123 736 q 163 411 154 519 q 175 203 172 302 q 181 37 179 104 q 166 6 181 10 q 126 5 150 1 q 96 403 108 203 q 52 801 84 603 l 97 824 m 81 869 q 48 866 65 862 q 21 881 31 870 q 11 907 10 892 q 33 938 12 922 q 80 939 56 946 q 116 918 104 931 q 123 891 128 906 q 81 869 118 876 m 262 -154 q 209 -183 242 -175 q 143 -186 176 -192 q 88 -158 111 -180 q 64 -92 64 -135 q 69 -64 64 -84 q 82 -23 73 -44 q 107 16 92 -2 q 146 42 123 35 l 173 18 q 133 -24 149 2 q 115 -77 117 -51 q 126 -122 113 -103 q 170 -141 139 -141 q 213 -139 195 -141 q 262 -154 231 -137 "},"Ŧ":{"x_min":13.84375,"x_max":979.53125,"ha":1001,"o":"m 13 789 q 36 822 13 809 q 89 845 58 835 q 149 859 119 854 q 194 868 179 864 q 392 915 295 892 q 584 956 488 938 q 777 986 679 975 q 979 998 875 998 l 979 959 q 818 941 895 954 q 668 911 740 927 q 531 877 597 895 q 409 846 466 859 q 428 824 420 838 q 438 796 436 811 q 442 719 439 771 q 447 598 444 667 q 452 452 450 530 q 457 300 455 374 q 461 163 459 226 q 461 59 462 100 q 448 8 459 24 q 398 -1 438 -6 q 398 85 398 25 q 397 211 398 145 q 395 337 396 278 q 395 423 395 397 q 392 466 395 434 q 388 541 390 499 q 383 632 386 584 q 378 722 380 680 q 374 796 376 765 q 373 838 373 827 q 61 754 206 798 q 28 761 43 754 q 13 789 13 769 m 188 1052 q 194 1081 188 1063 q 206 1107 199 1100 l 651 1092 l 655 1034 l 188 1052 "},"y":{"x_min":25.375,"x_max":628.21875,"ha":640,"o":"m 428 -553 q 362 -550 398 -553 q 294 -542 326 -548 q 236 -526 261 -536 q 203 -498 211 -516 q 199 -486 196 -496 q 210 -468 201 -477 q 229 -455 218 -460 q 252 -455 241 -449 q 402 -487 343 -497 q 494 -439 461 -478 q 543 -341 528 -401 q 562 -222 558 -281 q 561 -114 565 -163 q 556 -45 557 -64 q 549 50 553 -9 q 540 182 545 110 q 530 331 535 254 q 518 479 524 408 q 507 611 512 551 q 497 708 501 671 q 448 555 475 637 q 391 391 421 472 q 328 234 360 309 q 263 104 295 159 q 198 19 230 49 q 139 0 166 -10 q 77 53 101 9 q 39 161 52 96 q 25 309 26 226 q 30 481 24 392 q 49 664 36 571 q 79 842 62 757 q 120 840 101 849 q 146 798 139 830 q 109 635 121 718 q 94 473 97 552 q 94 325 90 395 q 108 204 98 256 q 132 121 117 152 q 162 89 146 91 q 201 132 178 91 q 252 239 225 174 q 309 386 279 305 q 368 547 338 467 q 425 700 397 628 q 475 818 452 772 q 503 842 484 841 q 542 841 522 844 q 554 734 547 800 q 568 588 561 667 q 584 422 576 509 q 598 256 592 335 q 609 109 604 176 q 618 3 615 42 q 623 -89 619 -37 q 628 -196 627 -140 q 621 -309 628 -253 q 592 -413 613 -365 q 531 -499 570 -462 q 428 -553 492 -536 "},"ǿ":{"x_min":-46.046875,"x_max":484.53125,"ha":467,"o":"m 23 246 q 59 539 35 422 q 118 727 84 656 q 193 825 153 797 q 279 848 234 853 q 372 808 335 845 q 429 712 409 772 q 453 577 450 652 q 446 423 457 502 q 411 268 435 344 q 349 133 386 192 q 263 36 311 73 q 157 -4 215 -1 q 80 21 107 -4 q 40 86 52 47 q 25 168 27 124 q 23 246 23 211 m 279 792 q 218 764 246 794 q 166 682 189 733 q 124 564 142 630 q 96 427 107 497 q 83 291 85 357 q 88 173 81 225 q 111 92 94 121 q 158 64 128 62 q 264 130 218 73 q 339 266 310 187 q 381 436 368 345 q 388 605 394 527 q 355 735 382 683 q 279 792 328 787 m -1 -17 q -31 -10 -24 -17 q -46 18 -39 -3 l 438 844 q 461 848 451 849 q 476 840 470 846 q 483 825 481 834 q 482 808 485 815 l -1 -17 m 252 878 q 226 865 235 864 q 211 874 216 866 q 203 893 206 882 q 196 913 200 905 l 288 1037 q 315 1034 306 1037 q 336 1012 325 1031 l 252 878 "},"g":{"x_min":25.625,"x_max":657.71875,"ha":678,"o":"m 193 -518 q 174 -489 177 -505 q 178 -459 172 -472 q 197 -441 184 -446 q 222 -447 210 -436 q 337 -483 284 -485 q 432 -453 390 -481 q 505 -375 474 -424 q 554 -268 535 -326 q 581 -149 573 -210 q 585 -35 590 -88 l 534 610 q 417 331 473 443 q 311 149 360 219 q 219 46 261 80 q 142 3 176 13 q 83 0 108 -6 q 44 21 58 8 q 25 126 27 61 q 35 269 24 192 q 71 430 47 347 q 128 590 96 514 q 202 726 161 666 q 291 818 244 786 q 389 847 339 850 q 493 792 440 843 q 503 830 493 816 q 526 847 512 845 q 555 844 541 850 q 580 822 569 838 l 656 -27 q 655 -118 659 -59 q 637 -244 652 -177 q 592 -377 622 -311 q 508 -485 561 -442 q 379 -542 455 -529 q 193 -518 302 -556 m 366 781 q 290 725 329 773 q 217 608 252 678 q 153 455 181 538 q 109 296 124 373 q 92 157 93 219 q 111 66 90 94 q 170 91 134 61 q 246 175 206 122 q 326 297 286 229 q 398 436 366 366 q 449 570 430 505 q 469 679 469 634 q 459 718 469 699 q 436 750 450 736 q 402 773 421 765 q 366 781 383 781 "},"–":{"x_min":50.59375,"x_max":526.296875,"ha":572,"o":"m 526 376 q 454 370 501 376 q 349 358 406 363 q 234 351 293 353 q 132 355 176 348 q 65 378 88 361 q 55 429 42 395 l 526 448 l 526 376 l 526 376 "},"ë":{"x_min":29.84375,"x_max":496.125,"ha":533,"o":"m 29 170 q 42 289 29 216 q 76 443 54 363 q 130 604 99 524 q 201 744 162 684 q 284 836 240 805 q 379 851 329 867 q 407 834 389 852 q 436 777 425 816 q 443 679 447 738 q 406 538 439 620 q 303 352 373 456 q 111 118 233 247 q 169 74 135 80 q 241 80 203 67 q 317 123 279 94 q 387 185 355 152 q 444 249 420 217 q 477 300 467 281 q 495 249 500 280 q 465 185 489 219 q 404 118 442 151 q 326 59 367 85 q 246 17 286 33 q 180 5 207 2 q 124 19 151 5 q 76 56 97 33 q 42 109 55 79 q 29 170 29 139 m 341 775 q 282 739 313 775 q 223 648 252 703 q 170 527 195 593 q 127 400 145 462 q 101 290 109 338 q 97 222 93 242 q 155 258 119 220 q 229 355 191 296 q 301 484 267 414 q 354 616 335 554 q 373 723 374 679 q 341 775 373 767 m 193 926 q 187 962 182 942 q 205 995 192 983 q 235 1009 218 1008 q 269 987 253 1010 q 277 951 281 972 q 258 918 272 931 q 226 904 245 905 q 193 926 208 903 m 368 931 q 361 965 357 945 q 378 999 365 985 q 409 1014 391 1012 q 444 992 428 1015 q 456 956 458 977 q 441 921 454 935 q 408 906 428 907 q 368 931 388 905 "},"ƒ":{"x_min":25.765625,"x_max":651.09375,"ha":667,"o":"m 85 -370 q 185 -384 145 -397 q 248 -331 225 -371 q 282 -229 272 -291 q 295 -93 293 -166 q 291 58 297 -19 q 278 209 286 136 q 263 342 271 282 q 253 440 256 402 q 240 440 249 440 q 229 439 230 439 q 200 428 222 438 q 151 407 177 419 q 101 385 124 395 q 73 372 78 375 l 62 372 l 50 372 q 39 383 47 374 q 28 394 31 391 q 27 400 27 397 q 25 405 25 402 q 54 445 25 427 q 122 479 84 463 q 197 506 160 495 q 250 527 234 518 q 250 596 252 553 q 248 684 249 638 q 247 773 248 731 q 248 840 246 816 q 261 918 252 881 q 288 982 269 954 q 337 1026 307 1010 q 411 1043 366 1043 q 478 1008 454 1043 q 503 933 503 973 q 497 917 503 922 q 484 908 492 912 q 466 899 476 904 q 448 885 457 895 q 416 954 438 939 q 373 956 394 968 q 334 911 351 943 q 316 840 317 878 l 340 554 q 370 559 348 551 q 420 579 392 566 q 480 608 448 592 q 541 639 512 625 q 592 664 569 653 q 623 676 614 675 q 637 657 626 676 q 651 617 648 637 l 340 461 q 332 368 329 429 q 343 229 335 307 q 360 61 351 150 q 369 -112 368 -27 q 358 -271 370 -196 q 314 -396 347 -346 q 223 -466 282 -447 q 73 -459 165 -485 q 44 -424 52 -445 q 39 -388 36 -404 q 54 -365 42 -371 q 85 -370 66 -358 "},"J":{"x_min":17.90625,"x_max":735,"ha":778,"o":"m 17 244 q 17 276 17 258 q 21 309 17 294 q 36 337 26 325 q 66 355 46 349 q 118 131 47 197 q 342 65 190 65 q 483 92 422 65 q 585 168 544 120 q 647 282 626 216 q 669 421 669 347 q 664 591 673 509 q 644 740 656 672 q 618 858 632 808 q 597 935 605 908 q 647 928 626 948 q 682 867 667 908 q 706 771 697 825 q 720 657 714 716 q 729 545 726 599 q 735 451 732 490 q 713 282 735 363 q 645 138 691 200 q 527 37 599 75 q 355 0 456 0 q 240 14 300 0 q 131 58 180 28 q 49 134 81 88 q 17 244 17 180 "},"Ã":{"x_min":12.203125,"x_max":740.625,"ha":779,"o":"m 12 -82 q 27 -27 12 -63 q 63 47 43 8 q 101 121 84 87 q 123 172 119 156 q 138 228 126 186 q 166 327 150 270 q 200 447 181 383 q 233 568 218 511 q 261 667 249 625 q 276 724 272 710 q 291 792 283 749 q 313 876 299 835 q 347 945 326 916 q 401 975 368 975 q 421 966 412 975 q 438 947 431 958 q 451 925 446 937 q 457 905 455 914 q 505 714 485 793 q 540 584 526 636 q 564 503 554 533 q 579 460 573 474 q 586 442 584 446 q 590 439 588 439 q 636 461 614 453 q 686 466 659 469 q 674 430 686 444 q 647 404 661 416 q 621 377 633 392 q 610 341 610 363 q 630 249 610 293 q 675 161 651 205 q 720 75 699 118 q 740 -13 740 32 q 684 -17 706 -30 q 644 28 661 -3 q 615 104 628 59 q 588 193 603 149 q 552 274 572 237 q 503 331 533 312 q 475 323 499 331 q 418 303 451 316 q 347 273 385 290 q 276 238 309 256 q 219 204 242 221 q 189 172 195 187 l 101 -94 q 82 -116 94 -113 q 56 -119 70 -119 q 25 -110 39 -119 q 12 -82 12 -102 m 234 305 q 282 316 248 309 q 360 337 317 324 q 446 369 402 350 q 519 417 489 389 q 505 474 515 435 q 482 560 495 512 q 454 661 469 608 q 425 760 439 714 q 398 842 411 806 q 377 889 385 877 l 234 305 m 178 1024 q 183 1061 178 1036 q 200 1110 188 1085 q 232 1152 212 1134 q 283 1171 253 1171 q 352 1153 322 1171 q 410 1115 382 1135 q 470 1076 439 1094 q 542 1059 501 1059 q 600 1070 574 1057 q 646 1103 626 1083 q 679 1144 665 1122 q 702 1181 694 1166 q 712 1177 706 1182 q 723 1165 718 1172 q 731 1149 729 1158 q 729 1137 733 1141 q 711 1093 729 1115 q 665 1053 692 1071 q 606 1024 638 1036 q 547 1013 574 1013 q 418 1047 475 1014 q 300 1125 361 1079 q 258 1109 272 1126 q 239 1068 245 1092 q 230 1020 232 1045 q 222 984 227 996 q 190 1000 203 984 q 178 1024 178 1016 "},"ŷ":{"x_min":25.375,"x_max":628.21875,"ha":712,"o":"m 428 -553 q 362 -550 398 -553 q 294 -542 326 -548 q 236 -526 261 -536 q 203 -498 211 -516 q 199 -486 196 -496 q 210 -468 201 -477 q 229 -455 218 -460 q 252 -455 241 -449 q 402 -487 343 -497 q 494 -439 461 -478 q 543 -341 528 -401 q 562 -222 558 -281 q 561 -114 565 -163 q 556 -45 557 -64 q 549 50 553 -9 q 540 182 545 110 q 530 331 535 254 q 518 479 524 408 q 507 611 512 551 q 497 708 501 671 q 448 555 475 637 q 391 391 421 472 q 328 234 360 309 q 263 104 295 159 q 198 19 230 49 q 139 0 166 -10 q 77 53 101 9 q 39 161 52 96 q 25 309 26 226 q 30 481 24 392 q 49 664 36 571 q 79 842 62 757 q 120 840 101 849 q 146 798 139 830 q 109 635 121 718 q 94 473 97 552 q 94 325 90 395 q 108 204 98 256 q 132 121 117 152 q 162 89 146 91 q 201 132 178 91 q 252 239 225 174 q 309 386 279 305 q 368 547 338 467 q 425 700 397 628 q 475 818 452 772 q 503 842 484 841 q 542 841 522 844 q 554 734 547 800 q 568 588 561 667 q 584 422 576 509 q 598 256 592 335 q 609 109 604 176 q 618 3 615 42 q 623 -89 619 -37 q 628 -196 627 -140 q 621 -309 628 -253 q 592 -413 613 -365 q 531 -499 570 -462 q 428 -553 492 -536 m 306 1113 q 327 1135 317 1132 q 354 1138 336 1138 l 451 1006 q 445 986 447 998 q 437 967 442 975 q 422 958 431 958 q 396 971 412 957 l 336 1044 l 287 965 q 252 951 272 946 q 222 973 232 956 l 306 1113 "},"ŕ":{"x_min":29.09375,"x_max":488.546875,"ha":533,"o":"m 84 26 q 78 130 81 83 q 73 221 75 176 q 66 316 70 267 q 57 429 62 366 q 44 574 51 493 q 30 767 38 656 q 29 785 30 773 q 30 809 28 797 q 36 831 31 821 q 54 843 42 841 q 90 817 84 838 q 96 754 96 796 q 98 646 96 711 q 122 488 100 581 q 178 627 146 558 q 254 747 210 695 q 356 830 298 800 q 488 856 413 861 l 488 811 q 363 770 416 805 q 273 680 310 736 q 212 548 236 623 q 174 388 188 473 q 153 212 160 303 q 144 32 146 121 q 123 0 144 0 q 84 26 103 0 m 253 906 q 227 893 236 892 q 212 902 217 894 q 204 921 207 910 q 197 941 201 933 l 289 1065 q 316 1062 307 1065 q 337 1040 326 1059 l 253 906 "},"˘":{"x_min":1.359375,"x_max":276.0625,"ha":285,"o":"m 43 976 q 82 923 61 937 q 125 910 103 908 q 168 923 147 911 q 208 947 189 934 q 239 969 226 960 q 257 976 252 979 q 276 969 276 984 q 259 932 275 954 q 214 887 242 910 q 151 859 185 865 q 77 872 116 853 q 1 949 37 891 l 43 976 "},"Ă":{"x_min":12.203125,"x_max":740.625,"ha":779,"o":"m 12 -82 q 27 -27 12 -63 q 63 47 43 8 q 101 121 84 87 q 123 172 119 156 q 138 228 126 186 q 166 327 150 270 q 200 447 181 383 q 233 568 218 511 q 261 667 249 625 q 276 724 272 710 q 291 792 283 749 q 313 876 299 835 q 347 945 326 916 q 401 975 368 975 q 421 966 412 975 q 438 947 431 958 q 451 925 446 937 q 457 905 455 914 q 505 714 485 793 q 540 584 526 636 q 564 503 554 533 q 579 460 573 474 q 586 442 584 446 q 590 439 588 439 q 636 461 614 453 q 686 466 659 469 q 674 430 686 444 q 647 404 661 416 q 621 377 633 392 q 610 341 610 363 q 630 249 610 293 q 675 161 651 205 q 720 75 699 118 q 740 -13 740 32 q 684 -17 706 -30 q 644 28 661 -3 q 615 104 628 59 q 588 193 603 149 q 552 274 572 237 q 503 331 533 312 q 475 323 499 331 q 418 303 451 316 q 347 273 385 290 q 276 238 309 256 q 219 204 242 221 q 189 172 195 187 l 101 -94 q 82 -116 94 -113 q 56 -119 70 -119 q 25 -110 39 -119 q 12 -82 12 -102 m 234 305 q 282 316 248 309 q 360 337 317 324 q 446 369 402 350 q 519 417 489 389 q 505 474 515 435 q 482 560 495 512 q 454 661 469 608 q 425 760 439 714 q 398 842 411 806 q 377 889 385 877 l 234 305 m 305 1136 q 344 1083 323 1097 q 387 1070 365 1068 q 430 1083 409 1071 q 470 1107 451 1094 q 501 1129 488 1120 q 519 1136 514 1139 q 538 1129 538 1144 q 521 1092 537 1114 q 476 1047 504 1070 q 413 1019 447 1025 q 339 1032 378 1013 q 263 1109 299 1051 l 305 1136 "},"D":{"x_min":31.875,"x_max":762,"ha":784,"o":"m 121 832 q 88 813 108 823 q 53 802 68 804 q 32 808 37 800 q 44 844 28 817 q 148 904 87 886 q 269 925 208 922 q 384 924 330 928 q 471 916 439 919 q 588 870 536 900 q 677 800 639 840 q 736 710 714 759 q 762 607 757 661 q 737 471 762 542 q 671 333 713 401 q 572 204 629 265 q 450 97 515 143 q 316 24 386 51 q 180 -3 246 -3 q 173 195 180 93 q 158 399 166 296 q 142 603 150 501 q 134 800 135 705 l 121 832 m 198 865 q 206 580 202 701 q 215 373 211 459 q 223 231 219 287 q 229 139 226 176 q 235 81 233 102 q 238 46 237 60 q 343 79 288 48 q 451 157 398 109 q 551 265 504 204 q 635 387 599 325 q 691 507 671 448 q 712 611 712 565 q 686 712 712 667 q 620 792 661 758 q 525 847 579 825 q 414 878 471 869 q 300 884 356 888 q 198 865 244 881 "},"ÿ":{"x_min":25.375,"x_max":628.21875,"ha":712,"o":"m 428 -553 q 362 -550 398 -553 q 294 -542 326 -548 q 236 -526 261 -536 q 203 -498 211 -516 q 199 -486 196 -496 q 210 -468 201 -477 q 229 -455 218 -460 q 252 -455 241 -449 q 402 -487 343 -497 q 494 -439 461 -478 q 543 -341 528 -401 q 562 -222 558 -281 q 561 -114 565 -163 q 556 -45 557 -64 q 549 50 553 -9 q 540 182 545 110 q 530 331 535 254 q 518 479 524 408 q 507 611 512 551 q 497 708 501 671 q 448 555 475 637 q 391 391 421 472 q 328 234 360 309 q 263 104 295 159 q 198 19 230 49 q 139 0 166 -10 q 77 53 101 9 q 39 161 52 96 q 25 309 26 226 q 30 481 24 392 q 49 664 36 571 q 79 842 62 757 q 120 840 101 849 q 146 798 139 830 q 109 635 121 718 q 94 473 97 552 q 94 325 90 395 q 108 204 98 256 q 132 121 117 152 q 162 89 146 91 q 201 132 178 91 q 252 239 225 174 q 309 386 279 305 q 368 547 338 467 q 425 700 397 628 q 475 818 452 772 q 503 842 484 841 q 542 841 522 844 q 554 734 547 800 q 568 588 561 667 q 584 422 576 509 q 598 256 592 335 q 609 109 604 176 q 618 3 615 42 q 623 -89 619 -37 q 628 -196 627 -140 q 621 -309 628 -253 q 592 -413 613 -365 q 531 -499 570 -462 q 428 -553 492 -536 m 208 968 q 202 1004 197 984 q 220 1037 207 1025 q 250 1051 233 1050 q 284 1029 268 1052 q 292 993 296 1014 q 273 960 287 973 q 241 946 260 947 q 208 968 223 945 m 383 973 q 376 1007 372 987 q 393 1041 380 1027 q 424 1056 406 1054 q 459 1034 443 1057 q 471 998 473 1019 q 456 963 469 977 q 423 948 443 949 q 383 973 403 947 "},"ĺ":{"x_min":27.125,"x_max":175.265625,"ha":201,"o":"m 84 960 q 109 552 100 710 q 124 299 119 393 q 130 163 128 206 q 132 102 131 120 q 137 76 134 84 q 146 46 139 69 q 141 22 149 33 q 122 4 134 10 q 96 2 111 -1 q 70 21 82 5 l 27 965 q 35 999 28 986 q 52 1013 43 1011 q 69 1002 61 1014 q 84 960 78 990 m 91 1145 q 65 1132 74 1131 q 50 1141 55 1133 q 42 1160 45 1149 q 35 1180 39 1172 l 127 1304 q 154 1301 145 1304 q 175 1279 164 1298 l 91 1145 "},"ł":{"x_min":-44.765625,"x_max":220.765625,"ha":201,"o":"m 84 960 q 109 552 100 710 q 124 299 119 393 q 130 163 128 206 q 132 102 131 120 q 137 76 134 84 q 146 46 139 69 q 141 22 149 33 q 122 4 134 10 q 96 2 111 -1 q 70 21 82 5 l 27 965 q 35 999 28 986 q 52 1013 43 1011 q 69 1002 61 1014 q 84 960 78 990 m 220 482 q 180 476 207 482 q 122 464 154 469 q 57 457 90 459 q 0 461 25 454 q -36 484 -23 467 q -41 535 -49 501 l 220 554 l 220 482 l 220 482 "},"Ł":{"x_min":-98.140625,"x_max":689.5625,"ha":712,"o":"m 66 44 q 48 196 56 108 q 37 384 41 284 q -18 354 6 366 q -61 342 -43 343 q -90 352 -79 341 q -97 390 -100 363 l 34 485 q 28 737 30 614 q 25 951 27 860 q 76 942 62 951 q 93 916 91 933 q 91 874 95 899 q 87 816 87 849 q 88 773 87 801 q 91 707 89 744 q 96 626 93 670 q 102 534 99 582 l 297 675 l 339 614 q 298 581 323 602 q 242 535 273 560 q 177 483 212 510 q 109 431 142 455 q 116 317 113 373 q 122 214 119 261 q 127 130 125 166 q 130 76 129 93 q 184 77 144 69 q 279 101 225 85 q 395 136 334 116 q 511 173 457 156 q 604 203 564 191 q 657 217 644 215 q 677 204 673 217 q 689 177 681 192 q 631 152 676 169 q 527 115 587 135 q 399 73 467 95 q 271 34 331 51 q 168 7 212 17 q 111 0 123 -2 q 100 6 107 1 q 85 19 92 12 q 73 33 79 25 q 66 44 68 40 "},"$":{"x_min":9.4375,"x_max":609.34375,"ha":627,"o":"m 323 40 q 260 41 291 36 q 205 63 230 46 q 165 113 181 81 q 144 196 148 145 q 146 231 142 215 q 157 256 150 246 q 173 267 165 265 q 185 259 181 268 q 192 202 189 233 q 208 147 194 171 q 249 112 222 123 q 329 115 276 101 l 323 396 q 223 402 276 400 q 125 415 170 405 q 47 447 79 426 q 11 507 15 468 q 17 567 5 536 q 55 630 29 599 q 114 687 81 660 q 184 734 148 715 q 254 764 220 754 q 313 772 288 774 q 309 833 311 803 q 304 885 306 858 q 300 930 303 911 q 336 959 319 955 q 363 956 352 963 q 379 937 374 949 q 383 915 384 925 q 387 845 389 885 q 389 774 384 804 q 447 749 416 761 q 503 717 478 738 q 545 664 528 697 q 560 574 561 630 q 557 556 560 560 q 547 550 554 552 q 530 546 541 548 q 503 538 519 545 q 480 641 512 595 q 397 717 448 686 l 412 464 q 524 446 484 461 q 583 412 564 431 q 606 373 602 393 q 609 343 610 354 q 586 255 609 295 q 531 179 564 214 q 461 114 499 145 q 394 58 424 84 l 399 -93 q 385 -130 397 -119 q 361 -143 374 -142 q 336 -135 348 -143 q 323 -115 325 -127 l 323 40 m 412 151 q 460 179 432 155 q 510 232 487 202 q 546 297 534 263 q 553 359 559 330 q 534 385 551 377 q 493 398 516 394 q 446 402 470 402 q 409 401 422 402 l 412 151 m 72 522 q 105 478 72 492 q 183 459 139 464 q 268 456 227 454 q 324 457 309 457 l 308 714 q 227 692 268 711 q 151 647 185 674 q 94 587 116 620 q 72 522 72 553 "},"w":{"x_min":8.140625,"x_max":1041.75,"ha":988,"o":"m 8 829 q 37 857 18 861 q 67 838 55 854 l 176 148 q 206 215 192 165 q 233 330 219 265 q 265 464 248 394 q 310 591 283 534 q 375 684 337 649 q 466 716 412 720 q 529 682 501 716 q 579 596 557 649 q 622 478 602 543 q 663 349 642 413 q 706 231 683 286 q 759 143 729 176 q 769 255 762 177 q 792 427 777 332 q 830 620 807 522 q 889 796 854 718 q 969 918 933 889 q 1041 919 1005 947 q 955 794 988 874 q 900 619 922 714 q 866 422 878 523 q 843 232 854 321 q 817 78 831 143 q 781 -12 804 12 q 706 95 740 30 q 644 233 672 160 q 591 380 615 306 q 545 513 567 454 q 505 609 524 572 q 469 647 486 647 q 402 619 427 651 q 359 533 377 587 q 328 410 341 480 q 298 268 316 341 q 255 123 280 195 q 188 -3 230 52 q 158 30 173 -3 q 128 121 143 64 q 97 249 112 177 q 69 397 82 321 q 45 547 56 473 q 25 682 33 622 q 12 781 17 741 q 8 829 8 821 "},"\\":{"x_min":18.984375,"x_max":550.296875,"ha":556,"o":"m 66 978 q 103 894 77 950 q 161 767 128 838 q 229 619 193 697 q 299 472 265 542 q 360 347 333 402 q 400 265 386 291 q 474 132 442 181 q 526 53 507 84 q 549 4 545 23 q 539 -38 553 -14 q 488 0 520 -38 q 415 101 455 37 q 330 246 375 164 q 242 416 286 328 q 157 593 198 504 q 86 758 116 682 q 37 893 55 835 q 18 978 18 950 l 66 978 "},"Ì":{"x_min":-23.4375,"x_max":129.78125,"ha":178,"o":"m 44 89 q 40 160 42 112 q 36 271 38 208 q 32 408 34 334 q 29 554 30 481 q 27 696 28 627 q 28 817 26 765 q 31 902 29 869 q 38 936 33 934 l 76 936 q 81 803 80 885 q 82 625 82 720 q 82 435 82 531 q 87 261 83 340 q 99 132 91 182 q 123 78 108 81 q 126 53 123 67 q 129 27 129 40 q 123 5 129 14 q 99 -3 117 -3 q 76 8 86 -3 q 60 35 67 20 q 49 66 53 51 q 44 89 45 81 m -23 1147 q -3 1169 -12 1166 q 24 1172 6 1172 l 116 1048 q 109 1028 112 1040 q 101 1009 106 1017 q 86 1000 95 1001 q 60 1013 76 999 l -23 1147 "},"Ç":{"x_min":42,"x_max":694.625,"ha":712,"o":"m 42 286 q 48 398 42 332 q 69 537 54 465 q 107 680 84 609 q 166 808 131 751 q 250 899 202 864 q 360 935 298 935 q 434 909 409 935 q 471 846 459 883 q 483 764 483 808 q 484 684 484 720 q 445 699 457 684 q 429 737 434 715 q 422 787 424 759 q 413 836 420 814 q 388 874 405 858 q 336 890 371 890 q 261 855 294 890 q 202 765 228 820 q 160 644 177 710 q 131 513 142 577 q 114 394 119 448 q 110 311 110 340 q 109 228 107 275 q 126 140 112 181 q 169 74 141 100 q 247 54 198 48 q 400 91 331 54 q 524 185 470 128 q 614 311 577 242 q 667 444 651 380 l 694 444 q 650 285 694 364 q 538 141 606 205 q 388 37 470 77 q 229 -3 306 -3 q 133 24 169 -3 q 76 94 96 51 q 48 187 55 136 q 42 286 42 238 m 177 -233 q 176 -207 172 -218 q 188 -191 180 -196 q 206 -189 196 -187 q 221 -203 215 -192 q 258 -256 232 -237 q 312 -279 284 -275 q 361 -271 339 -283 q 388 -229 383 -259 q 375 -182 388 -200 q 343 -149 362 -164 q 302 -123 324 -135 q 260 -95 279 -111 q 228 -59 241 -80 q 216 -5 216 -37 q 215 46 206 32 q 237 57 224 61 q 260 35 249 54 q 263 -13 270 16 q 300 -52 272 -33 q 358 -95 328 -71 q 411 -149 388 -119 q 437 -221 435 -179 q 404 -312 434 -284 q 333 -339 374 -340 q 249 -309 293 -337 q 177 -233 206 -282 "},"Ŝ":{"x_min":19,"x_max":622,"ha":644,"o":"m 172 69 q 176 75 172 70 q 187 86 181 80 q 198 97 193 92 q 203 103 203 101 q 269 63 242 70 q 336 57 296 57 q 410 74 371 57 q 483 120 450 92 q 538 184 516 149 q 560 256 560 219 q 520 339 560 309 q 419 390 480 370 q 289 426 359 411 q 159 462 219 441 q 59 514 99 483 q 19 598 19 545 q 42 717 19 656 q 107 825 66 777 q 201 904 148 873 q 314 935 255 935 q 382 921 352 935 q 431 883 411 907 q 462 828 451 860 q 473 761 473 797 q 472 715 473 736 q 467 672 470 693 q 459 628 464 651 q 447 579 454 606 q 443 575 446 576 q 436 575 439 575 q 407 597 412 575 q 403 651 401 618 q 408 723 405 685 q 404 794 411 761 q 375 849 397 827 q 304 871 352 871 q 224 849 263 871 q 154 795 184 828 q 105 718 123 761 q 87 632 87 675 q 126 557 87 587 q 225 505 166 527 q 354 465 284 484 q 483 424 424 447 q 582 369 542 401 q 622 288 622 337 q 599 187 622 238 q 539 93 577 135 q 453 24 501 51 q 355 -3 405 -3 q 306 0 337 -3 q 245 12 275 3 q 193 33 215 20 q 172 69 172 47 m 262 1181 q 283 1203 273 1200 q 310 1206 292 1206 l 407 1074 q 401 1054 403 1066 q 393 1035 398 1043 q 378 1026 387 1026 q 352 1039 368 1025 l 292 1112 l 243 1033 q 208 1019 228 1014 q 178 1041 188 1024 l 262 1181 "},"C":{"x_min":42,"x_max":694.625,"ha":712,"o":"m 42 286 q 48 398 42 332 q 69 537 54 465 q 107 680 84 609 q 166 808 131 751 q 250 899 202 864 q 360 935 298 935 q 434 909 409 935 q 471 846 459 883 q 483 764 483 808 q 484 684 484 720 q 445 699 457 684 q 429 737 434 715 q 422 787 424 759 q 413 836 420 814 q 388 874 405 858 q 336 890 371 890 q 261 855 294 890 q 202 765 228 820 q 160 644 177 710 q 131 513 142 577 q 114 394 119 448 q 110 311 110 340 q 109 228 107 275 q 126 140 112 181 q 169 74 141 100 q 247 54 198 48 q 400 91 331 54 q 524 185 470 128 q 614 311 577 242 q 667 444 651 380 l 694 444 q 650 285 694 364 q 538 141 606 205 q 388 37 470 77 q 229 -3 306 -3 q 133 24 169 -3 q 76 94 96 51 q 48 187 55 136 q 42 286 42 238 "},"Ē":{"x_min":41.921875,"x_max":782.4375,"ha":800,"o":"m 42 163 q 61 253 40 208 q 108 336 81 298 q 157 406 134 375 q 184 452 180 436 q 158 456 182 454 q 108 468 134 458 q 61 499 81 478 q 45 556 40 519 q 79 681 53 614 q 148 805 105 748 q 246 898 191 861 q 368 936 302 936 q 420 915 397 934 q 455 874 444 896 q 462 834 466 853 q 431 815 458 816 q 385 868 420 850 q 309 878 349 886 q 245 842 279 871 q 181 772 211 813 q 130 686 151 732 q 104 602 108 641 q 117 537 100 564 q 184 509 135 511 q 255 527 220 509 q 322 566 290 545 q 385 605 355 587 q 444 625 416 623 q 457 624 450 625 q 471 621 465 623 q 484 614 478 619 q 489 600 489 610 q 461 555 489 579 q 391 506 433 532 q 300 448 349 480 q 208 377 250 416 q 138 292 166 338 q 111 188 111 245 q 123 127 111 151 q 157 89 135 102 q 207 70 178 75 q 266 65 235 65 q 409 90 341 65 q 538 157 477 116 q 654 250 600 199 q 756 355 709 302 l 782 355 q 754 275 782 317 q 682 193 726 233 q 583 118 638 154 q 472 55 527 82 q 368 12 417 28 q 287 -3 319 -3 q 205 4 248 -3 q 125 31 162 11 q 65 83 89 51 q 42 163 42 115 m 60 1034 q 66 1063 60 1045 q 78 1089 71 1082 l 523 1074 l 527 1016 l 60 1034 "},"!":{"x_min":44.03125,"x_max":133.625,"ha":157,"o":"m 122 200 q 111 184 117 189 q 95 177 104 179 q 75 177 85 176 q 56 179 65 177 l 62 984 q 70 998 62 992 q 89 1004 78 1003 q 107 999 99 1005 q 119 982 116 994 l 122 200 m 113 13 q 80 10 97 6 q 53 25 63 14 q 44 51 43 36 q 66 82 44 66 q 94 88 78 93 q 122 71 111 84 q 133 42 132 59 q 113 13 134 25 "},"ç":{"x_min":39.4375,"x_max":535.875,"ha":578,"o":"m 166 0 q 83 44 112 5 q 44 145 54 84 q 42 281 35 206 q 70 435 50 356 q 121 588 90 514 q 187 722 151 663 q 261 818 223 781 q 336 856 299 854 q 421 826 387 854 q 467 756 454 797 q 476 669 481 715 q 447 589 472 623 q 420 610 427 594 q 412 648 413 627 q 411 692 411 669 q 407 734 412 715 q 388 766 402 754 q 344 779 374 779 q 281 745 311 779 q 225 660 250 712 q 177 546 199 609 q 141 422 155 483 q 118 312 126 362 q 109 236 109 261 q 109 190 109 219 q 113 133 108 161 q 133 85 119 105 q 177 65 147 65 q 272 98 222 65 q 371 177 322 131 q 463 273 420 223 q 534 355 505 322 q 524 274 539 315 q 482 193 510 233 q 415 119 454 154 q 334 58 377 85 q 248 16 291 32 q 166 0 204 0 m 110 -233 q 109 -207 105 -218 q 121 -191 113 -196 q 139 -189 129 -187 q 154 -203 148 -192 q 191 -256 165 -237 q 245 -279 217 -275 q 294 -271 272 -283 q 321 -229 316 -259 q 308 -182 321 -200 q 276 -149 295 -164 q 235 -123 257 -135 q 193 -95 212 -111 q 161 -59 174 -80 q 149 -5 149 -37 q 148 46 139 32 q 170 57 157 61 q 193 35 182 54 q 196 -13 203 16 q 233 -52 205 -33 q 291 -95 261 -71 q 344 -149 321 -119 q 370 -221 368 -179 q 337 -312 367 -284 q 266 -339 307 -340 q 182 -309 226 -337 q 110 -233 139 -282 "},"Ĵ":{"x_min":17.90625,"x_max":735,"ha":778,"o":"m 17 244 q 17 276 17 258 q 21 309 17 294 q 36 337 26 325 q 66 355 46 349 q 118 131 47 197 q 342 65 190 65 q 483 92 422 65 q 585 168 544 120 q 647 282 626 216 q 669 421 669 347 q 664 591 673 509 q 644 740 656 672 q 618 858 632 808 q 597 935 605 908 q 647 928 626 948 q 682 867 667 908 q 706 771 697 825 q 720 657 714 716 q 729 545 726 599 q 735 451 732 490 q 713 282 735 363 q 645 138 691 200 q 527 37 599 75 q 355 0 456 0 q 240 14 300 0 q 131 58 180 28 q 49 134 81 88 q 17 244 17 180 m 330 1158 q 351 1180 341 1177 q 378 1183 360 1183 l 475 1051 q 469 1031 471 1043 q 461 1012 466 1020 q 446 1003 455 1003 q 420 1016 436 1002 l 360 1089 l 311 1010 q 276 996 296 991 q 246 1018 256 1001 l 330 1158 "},"È":{"x_min":41.921875,"x_max":782.4375,"ha":800,"o":"m 42 163 q 61 253 40 208 q 108 336 81 298 q 157 406 134 375 q 184 452 180 436 q 158 456 182 454 q 108 468 134 458 q 61 499 81 478 q 45 556 40 519 q 79 681 53 614 q 148 805 105 748 q 246 898 191 861 q 368 936 302 936 q 420 915 397 934 q 455 874 444 896 q 462 834 466 853 q 431 815 458 816 q 385 868 420 850 q 309 878 349 886 q 245 842 279 871 q 181 772 211 813 q 130 686 151 732 q 104 602 108 641 q 117 537 100 564 q 184 509 135 511 q 255 527 220 509 q 322 566 290 545 q 385 605 355 587 q 444 625 416 623 q 457 624 450 625 q 471 621 465 623 q 484 614 478 619 q 489 600 489 610 q 461 555 489 579 q 391 506 433 532 q 300 448 349 480 q 208 377 250 416 q 138 292 166 338 q 111 188 111 245 q 123 127 111 151 q 157 89 135 102 q 207 70 178 75 q 266 65 235 65 q 409 90 341 65 q 538 157 477 116 q 654 250 600 199 q 756 355 709 302 l 782 355 q 754 275 782 317 q 682 193 726 233 q 583 118 638 154 q 472 55 527 82 q 368 12 417 28 q 287 -3 319 -3 q 205 4 248 -3 q 125 31 162 11 q 65 83 89 51 q 42 163 42 115 m 238 1131 q 258 1153 249 1150 q 286 1156 268 1156 l 378 1032 q 371 1012 374 1024 q 363 993 368 1001 q 348 984 357 985 q 322 997 338 983 l 238 1131 "},"ﬁ":{"x_min":36.03125,"x_max":725.765625,"ha":769,"o":"m 249 556 q 203 549 225 556 q 159 532 181 542 q 116 510 137 522 q 72 488 94 497 q 47 491 53 488 q 36 515 41 495 q 63 555 36 537 q 125 588 90 573 q 196 615 160 603 q 249 636 232 626 q 253 742 251 687 q 258 846 255 796 q 270 923 262 887 q 297 988 279 960 q 344 1033 314 1016 q 417 1050 373 1050 q 485 1020 461 1050 q 510 950 510 991 q 508 923 512 931 q 495 911 503 915 q 476 906 487 907 q 455 903 465 906 q 423 972 445 957 q 379 974 401 986 q 341 929 358 961 q 323 858 324 896 l 320 659 q 352 664 328 656 q 406 685 376 671 q 471 716 437 700 q 536 748 505 733 q 591 775 567 763 q 624 788 614 786 q 638 792 631 792 q 650 787 646 792 q 654 771 654 782 q 647 744 654 761 l 326 580 q 320 427 323 508 q 318 264 318 346 q 318 107 317 183 q 323 -27 318 31 q 281 -52 297 -55 q 261 -22 266 -48 l 249 556 m 641 819 q 683 623 667 731 q 707 406 698 514 q 719 198 716 297 q 725 32 723 99 q 710 1 725 5 q 670 0 694 -3 q 640 398 652 198 q 596 796 628 598 l 641 819 m 625 864 q 592 861 609 857 q 565 876 575 865 q 555 902 554 887 q 577 933 556 917 q 624 934 600 941 q 660 913 648 926 q 667 886 672 901 q 625 864 662 871 "},"X":{"x_min":16.109375,"x_max":567,"ha":578,"o":"m 36 -9 q 39 8 36 -5 q 57 68 42 21 q 107 205 73 114 q 203 457 141 297 l 16 833 q 24 863 14 852 q 46 877 33 875 q 69 875 58 880 q 82 856 81 869 l 238 544 q 265 585 246 552 q 307 664 283 618 q 358 761 330 709 q 412 856 385 812 q 463 929 439 899 q 505 962 488 959 q 540 955 526 962 q 548 925 554 948 q 509 885 533 911 q 453 809 485 858 q 381 679 421 759 q 290 477 340 599 q 314 409 295 453 q 358 314 332 365 q 413 213 383 264 q 472 125 443 163 q 526 66 501 87 q 567 54 552 45 q 514 7 545 3 q 442 62 482 12 q 356 199 402 111 q 255 401 309 287 l 73 -64 q 43 -40 50 -59 q 36 -9 36 -21 "},"ô":{"x_min":23.0625,"x_max":454.546875,"ha":467,"o":"m 23 246 q 59 539 35 422 q 118 727 84 656 q 193 825 153 797 q 279 848 234 853 q 372 808 335 845 q 429 712 409 772 q 453 577 450 652 q 446 423 457 502 q 411 268 435 344 q 349 133 386 192 q 263 36 311 73 q 157 -4 215 -1 q 80 21 107 -4 q 40 86 52 47 q 25 168 27 124 q 23 246 23 211 m 279 792 q 218 764 246 794 q 166 682 189 733 q 124 564 142 630 q 96 427 107 497 q 83 291 85 357 q 88 173 81 225 q 111 92 94 121 q 158 64 128 62 q 264 130 218 73 q 339 266 310 187 q 381 436 368 345 q 388 605 394 527 q 355 735 382 683 q 279 792 328 787 m 203 1045 q 224 1067 214 1064 q 251 1070 233 1070 l 348 938 q 342 918 344 930 q 334 899 339 907 q 319 890 328 890 q 293 903 309 889 l 233 976 l 184 897 q 149 883 169 878 q 119 905 129 888 l 203 1045 "},"Ė":{"x_min":41.921875,"x_max":782.4375,"ha":800,"o":"m 42 163 q 61 253 40 208 q 108 336 81 298 q 157 406 134 375 q 184 452 180 436 q 158 456 182 454 q 108 468 134 458 q 61 499 81 478 q 45 556 40 519 q 79 681 53 614 q 148 805 105 748 q 246 898 191 861 q 368 936 302 936 q 420 915 397 934 q 455 874 444 896 q 462 834 466 853 q 431 815 458 816 q 385 868 420 850 q 309 878 349 886 q 245 842 279 871 q 181 772 211 813 q 130 686 151 732 q 104 602 108 641 q 117 537 100 564 q 184 509 135 511 q 255 527 220 509 q 322 566 290 545 q 385 605 355 587 q 444 625 416 623 q 457 624 450 625 q 471 621 465 623 q 484 614 478 619 q 489 600 489 610 q 461 555 489 579 q 391 506 433 532 q 300 448 349 480 q 208 377 250 416 q 138 292 166 338 q 111 188 111 245 q 123 127 111 151 q 157 89 135 102 q 207 70 178 75 q 266 65 235 65 q 409 90 341 65 q 538 157 477 116 q 654 250 600 199 q 756 355 709 302 l 782 355 q 754 275 782 317 q 682 193 726 233 q 583 118 638 154 q 472 55 527 82 q 368 12 417 28 q 287 -3 319 -3 q 205 4 248 -3 q 125 31 162 11 q 65 83 89 51 q 42 163 42 115 m 231 1007 q 230 1045 223 1024 q 253 1081 237 1067 q 287 1097 268 1095 q 322 1076 306 1100 q 326 1040 333 1064 q 303 998 318 1017 q 267 978 287 980 q 231 1007 246 976 "},"Ā":{"x_min":12.203125,"x_max":740.625,"ha":779,"o":"m 12 -82 q 27 -27 12 -63 q 63 47 43 8 q 101 121 84 87 q 123 172 119 156 q 138 228 126 186 q 166 327 150 270 q 200 447 181 383 q 233 568 218 511 q 261 667 249 625 q 276 724 272 710 q 291 792 283 749 q 313 876 299 835 q 347 945 326 916 q 401 975 368 975 q 421 966 412 975 q 438 947 431 958 q 451 925 446 937 q 457 905 455 914 q 505 714 485 793 q 540 584 526 636 q 564 503 554 533 q 579 460 573 474 q 586 442 584 446 q 590 439 588 439 q 636 461 614 453 q 686 466 659 469 q 674 430 686 444 q 647 404 661 416 q 621 377 633 392 q 610 341 610 363 q 630 249 610 293 q 675 161 651 205 q 720 75 699 118 q 740 -13 740 32 q 684 -17 706 -30 q 644 28 661 -3 q 615 104 628 59 q 588 193 603 149 q 552 274 572 237 q 503 331 533 312 q 475 323 499 331 q 418 303 451 316 q 347 273 385 290 q 276 238 309 256 q 219 204 242 221 q 189 172 195 187 l 101 -94 q 82 -116 94 -113 q 56 -119 70 -119 q 25 -110 39 -119 q 12 -82 12 -102 m 234 305 q 282 316 248 309 q 360 337 317 324 q 446 369 402 350 q 519 417 489 389 q 505 474 515 435 q 482 560 495 512 q 454 661 469 608 q 425 760 439 714 q 398 842 411 806 q 377 889 385 877 l 234 305 m 124 1087 q 130 1116 124 1098 q 142 1142 135 1135 l 587 1127 l 591 1069 l 124 1087 "},"ċ":{"x_min":39.4375,"x_max":535.875,"ha":578,"o":"m 166 0 q 83 44 112 5 q 44 145 54 84 q 42 281 35 206 q 70 435 50 356 q 121 588 90 514 q 187 722 151 663 q 261 818 223 781 q 336 856 299 854 q 421 826 387 854 q 467 756 454 797 q 476 669 481 715 q 447 589 472 623 q 420 610 427 594 q 412 648 413 627 q 411 692 411 669 q 407 734 412 715 q 388 766 402 754 q 344 779 374 779 q 281 745 311 779 q 225 660 250 712 q 177 546 199 609 q 141 422 155 483 q 118 312 126 362 q 109 236 109 261 q 109 190 109 219 q 113 133 108 161 q 133 85 119 105 q 177 65 147 65 q 272 98 222 65 q 371 177 322 131 q 463 273 420 223 q 534 355 505 322 q 524 274 539 315 q 482 193 510 233 q 415 119 454 154 q 334 58 377 85 q 248 16 291 32 q 166 0 204 0 m 274 939 q 273 977 266 956 q 296 1013 280 999 q 330 1029 311 1027 q 365 1008 349 1032 q 369 972 376 996 q 346 930 361 949 q 310 910 330 912 q 274 939 289 908 "},"đ":{"x_min":32,"x_max":709.296875,"ha":623,"o":"m 501 198 q 447 142 480 175 q 375 76 414 108 q 291 21 336 44 q 201 -1 246 -1 q 122 19 154 -1 q 70 72 90 39 q 40 144 49 104 q 32 221 32 183 q 42 313 32 259 q 72 427 52 367 q 119 546 91 487 q 184 651 147 605 q 264 727 220 698 q 357 757 307 757 q 418 727 397 757 q 439 659 439 698 q 407 663 418 659 q 387 675 397 668 q 369 686 378 681 q 344 691 360 691 q 280 665 311 691 q 222 598 249 639 q 172 505 194 556 q 133 403 150 454 q 108 306 117 351 q 100 230 100 260 q 104 172 100 202 q 120 118 108 142 q 154 79 132 95 q 212 64 177 64 q 298 92 257 64 q 375 161 340 120 q 437 249 410 202 q 480 332 465 295 q 473 536 478 438 q 465 719 467 633 q 465 879 462 805 q 484 1012 467 953 q 499 1025 489 1020 q 520 1032 509 1031 q 539 1029 530 1033 q 550 1012 548 1025 q 533 824 535 910 q 537 660 531 738 q 553 508 543 582 q 573 356 563 434 q 589 193 583 279 q 593 5 595 107 q 582 -28 591 -21 q 562 -29 573 -34 q 540 -9 550 -24 q 524 21 530 5 q 518 55 522 30 q 511 109 515 80 q 505 163 508 137 q 501 198 503 188 m 709 843 q 637 837 684 843 q 532 825 589 830 q 417 818 476 820 q 315 822 359 815 q 248 845 271 828 q 238 896 225 862 l 709 915 l 709 843 l 709 843 "},"Ẃ":{"x_min":9.25,"x_max":1222.15625,"ha":1267,"o":"m 607 615 q 575 543 595 591 q 533 436 556 495 q 487 315 511 378 q 443 196 463 252 q 406 96 423 139 q 382 33 390 52 q 370 6 377 17 q 343 0 364 -5 q 259 231 298 109 q 180 470 219 352 q 100 693 141 587 q 12 878 59 798 q 14 904 5 892 q 33 923 23 916 q 117 792 80 864 q 184 644 154 720 q 238 491 214 568 q 281 345 261 415 q 318 220 301 276 q 351 128 335 164 q 444 354 405 248 q 514 540 484 459 q 569 671 545 621 q 618 729 594 721 q 621 729 619 729 q 625 728 622 728 q 630 727 628 727 q 655 685 647 720 q 674 596 664 649 q 698 475 685 542 q 736 339 712 408 q 798 202 760 269 q 896 82 836 135 q 929 184 914 116 q 961 336 945 252 q 991 512 976 420 q 1024 687 1006 604 q 1064 833 1043 769 q 1110 926 1085 897 q 1151 933 1132 935 q 1184 923 1170 931 q 1208 904 1199 915 q 1222 883 1218 892 l 1222 884 q 1175 887 1192 888 q 1147 877 1158 887 q 1129 847 1136 868 q 1110 793 1121 827 l 940 -1 q 931 -1 938 -1 q 916 -4 925 -2 q 896 -7 907 -5 q 785 121 831 46 q 706 281 739 196 q 649 453 672 366 q 607 615 626 539 m 578 1003 q 552 990 561 989 q 537 999 542 991 q 529 1018 532 1007 q 522 1038 526 1030 l 614 1162 q 641 1159 632 1162 q 662 1137 651 1156 l 578 1003 "},"Ŀ":{"x_min":25,"x_max":689.265625,"ha":712,"o":"m 66 44 q 51 169 57 97 q 41 320 45 240 q 35 487 37 401 q 31 657 33 573 q 27 816 29 740 q 25 951 26 891 q 76 942 62 951 q 93 916 91 933 q 91 874 95 899 q 87 816 87 849 q 90 733 87 792 q 98 601 93 675 q 108 445 103 527 q 117 290 112 363 q 125 158 122 217 q 130 76 129 100 q 184 77 143 69 q 279 101 225 85 q 395 136 333 116 q 510 173 457 156 q 604 203 564 191 q 656 217 644 215 q 677 204 672 217 q 689 177 681 192 q 631 152 675 169 q 527 115 587 135 q 398 73 466 95 q 271 34 331 51 q 167 7 211 17 q 111 0 123 -2 q 99 6 107 1 q 85 19 92 12 q 73 33 78 25 q 66 44 68 40 m 325 642 q 324 680 317 659 q 347 716 331 702 q 381 732 362 730 q 416 711 400 735 q 420 675 427 699 q 397 633 412 652 q 361 613 381 615 q 325 642 340 611 "},"}":{"x_min":42.921875,"x_max":495,"ha":507,"o":"m 329 -88 q 318 -134 329 -111 q 288 -175 307 -157 q 242 -205 268 -193 q 187 -217 217 -217 q 149 -212 169 -217 q 111 -201 130 -208 q 77 -182 92 -193 q 54 -155 62 -170 q 117 -163 82 -160 q 185 -162 153 -166 q 242 -141 218 -158 q 275 -88 267 -124 q 226 9 256 -35 q 168 96 196 54 q 122 185 141 139 q 109 287 104 231 q 163 420 124 366 q 255 524 202 474 q 225 547 242 539 q 194 563 208 555 q 170 581 180 570 q 160 615 160 592 q 162 630 160 618 q 164 645 164 642 q 239 704 196 677 q 322 759 281 732 q 395 816 363 786 q 439 888 428 847 q 422 961 439 926 q 377 1024 406 996 q 308 1069 348 1052 q 223 1086 269 1086 q 190 1081 209 1086 q 151 1069 170 1077 q 116 1049 132 1061 q 97 1020 101 1037 q 91 1010 94 1015 q 82 1001 89 1004 q 67 999 76 999 q 42 1008 57 1000 q 93 1101 42 1071 q 219 1131 144 1131 q 329 1106 278 1131 q 415 1044 379 1082 q 473 959 452 1006 q 495 867 495 912 q 460 806 495 842 q 381 735 425 770 q 294 671 336 699 q 236 631 252 642 q 255 585 233 599 q 305 565 276 572 q 358 550 333 558 q 384 518 382 542 q 369 496 384 505 q 331 475 354 486 q 282 450 307 465 q 233 411 256 435 q 195 353 210 387 q 180 268 180 318 q 204 177 185 219 q 246 93 223 135 q 293 7 269 51 q 329 -88 316 -36 "},"â":{"x_min":22.703125,"x_max":793.890625,"ha":738,"o":"m 134 -3 q 63 32 88 -1 q 28 123 37 67 q 25 250 18 178 q 48 398 31 322 q 94 549 66 474 q 155 685 122 623 q 229 791 189 747 q 309 849 268 835 q 366 836 343 849 q 406 801 390 823 q 433 752 423 779 q 450 697 443 725 q 459 733 451 709 q 476 777 466 758 q 498 804 486 797 q 520 789 510 811 q 496 543 503 646 q 491 368 489 440 q 501 252 492 296 q 527 181 511 207 q 565 143 543 155 q 613 124 587 131 q 676 130 649 117 q 722 165 702 143 q 758 210 743 186 q 789 246 774 233 q 788 185 798 218 q 753 125 777 153 q 695 80 729 97 q 622 64 660 63 q 526 96 564 64 q 467 174 489 127 q 435 276 444 222 q 423 378 425 330 q 383 274 408 338 q 324 148 359 210 q 242 41 290 86 q 134 -3 195 -3 m 311 789 q 266 758 291 787 q 214 681 241 729 q 162 571 187 633 q 117 445 137 510 q 86 316 97 380 q 75 198 74 251 q 93 109 77 146 q 145 61 109 72 q 198 79 169 56 q 254 143 226 102 q 307 239 282 184 q 356 354 333 295 q 394 473 378 414 q 417 582 409 532 q 412 642 417 607 q 394 710 406 677 q 362 765 382 742 q 311 789 341 789 m 262 1094 q 283 1116 273 1113 q 310 1119 292 1119 l 407 987 q 401 967 403 979 q 393 948 398 956 q 378 939 387 939 q 352 952 368 938 l 292 1025 l 243 946 q 208 932 228 927 q 178 954 188 937 l 262 1094 "},"ø":{"x_min":-37.953125,"x_max":480.53125,"ha":467,"o":"m 23 246 q 59 539 35 422 q 118 727 84 656 q 193 825 153 797 q 279 848 234 853 q 372 808 335 845 q 429 712 409 772 q 453 577 450 652 q 446 423 457 502 q 411 268 435 344 q 349 133 386 192 q 263 36 311 73 q 157 -4 215 -1 q 80 21 107 -4 q 40 86 52 47 q 25 168 27 124 q 23 246 23 211 m 279 792 q 218 764 246 794 q 166 682 189 733 q 124 564 142 630 q 96 427 107 497 q 83 291 85 357 q 88 173 81 225 q 111 92 94 121 q 158 64 128 62 q 264 130 218 73 q 339 266 310 187 q 381 436 368 345 q 388 605 394 527 q 355 735 382 683 q 279 792 328 787 m 5 16 q -24 22 -16 16 q -37 50 -31 29 l 435 834 q 457 838 448 839 q 472 830 467 836 q 479 816 477 825 q 479 800 481 807 l 5 16 "},"Ä":{"x_min":12.203125,"x_max":740.625,"ha":779,"o":"m 12 -82 q 27 -27 12 -63 q 63 47 43 8 q 101 121 84 87 q 123 172 119 156 q 138 228 126 186 q 166 327 150 270 q 200 447 181 383 q 233 568 218 511 q 261 667 249 625 q 276 724 272 710 q 291 792 283 749 q 313 876 299 835 q 347 945 326 916 q 401 975 368 975 q 421 966 412 975 q 438 947 431 958 q 451 925 446 937 q 457 905 455 914 q 505 714 485 793 q 540 584 526 636 q 564 503 554 533 q 579 460 573 474 q 586 442 584 446 q 590 439 588 439 q 636 461 614 453 q 686 466 659 469 q 674 430 686 444 q 647 404 661 416 q 621 377 633 392 q 610 341 610 363 q 630 249 610 293 q 675 161 651 205 q 720 75 699 118 q 740 -13 740 32 q 684 -17 706 -30 q 644 28 661 -3 q 615 104 628 59 q 588 193 603 149 q 552 274 572 237 q 503 331 533 312 q 475 323 499 331 q 418 303 451 316 q 347 273 385 290 q 276 238 309 256 q 219 204 242 221 q 189 172 195 187 l 101 -94 q 82 -116 94 -113 q 56 -119 70 -119 q 25 -110 39 -119 q 12 -82 12 -102 m 234 305 q 282 316 248 309 q 360 337 317 324 q 446 369 402 350 q 519 417 489 389 q 505 474 515 435 q 482 560 495 512 q 454 661 469 608 q 425 760 439 714 q 398 842 411 806 q 377 889 385 877 l 234 305 m 284 1072 q 279 1104 274 1086 q 294 1133 283 1121 q 322 1144 306 1144 q 352 1125 337 1145 q 359 1094 363 1112 q 342 1066 354 1077 q 314 1053 330 1054 q 284 1072 297 1052 m 440 1077 q 434 1106 431 1089 q 449 1135 438 1124 q 477 1148 461 1147 q 508 1130 494 1150 q 518 1098 520 1117 q 505 1068 517 1080 q 476 1055 494 1056 q 440 1077 458 1054 "},"ř":{"x_min":29.09375,"x_max":488.546875,"ha":533,"o":"m 84 26 q 78 130 81 83 q 73 221 75 176 q 66 316 70 267 q 57 429 62 366 q 44 574 51 493 q 30 767 38 656 q 29 785 30 773 q 30 809 28 797 q 36 831 31 821 q 54 843 42 841 q 90 817 84 838 q 96 754 96 796 q 98 646 96 711 q 122 488 100 581 q 178 627 146 558 q 254 747 210 695 q 356 830 298 800 q 488 856 413 861 l 488 811 q 363 770 416 805 q 273 680 310 736 q 212 548 236 623 q 174 388 188 473 q 153 212 160 303 q 144 32 146 121 q 123 0 144 0 q 84 26 103 0 m 278 920 q 257 898 267 901 q 230 896 248 896 l 107 1045 q 113 1063 111 1053 q 119 1080 115 1073 q 131 1087 123 1087 q 156 1073 139 1087 l 241 963 l 331 1072 q 364 1091 354 1099 q 379 1056 375 1083 l 278 920 "},"N":{"x_min":17.90625,"x_max":686.484375,"ha":690,"o":"m 56 669 q 18 740 19 708 q 31 797 16 773 q 68 834 46 820 q 100 850 89 848 q 131 837 122 850 q 143 804 141 825 q 143 759 146 784 q 139 709 141 734 q 139 661 138 683 q 150 624 141 639 q 197 555 171 601 q 256 453 223 510 q 327 334 289 396 q 411 215 366 271 q 508 117 457 160 q 618 57 560 74 l 595 912 q 605 928 595 923 q 628 936 615 934 q 653 940 641 939 q 666 941 664 941 q 648 673 649 804 q 653 432 647 543 q 669 231 659 320 q 686 88 679 142 q 685 59 686 74 q 680 30 685 43 q 666 7 675 16 q 639 -1 656 -1 q 534 38 590 -1 q 427 131 478 77 q 331 242 375 186 q 261 335 287 299 q 231 381 253 345 q 183 457 209 416 q 137 533 158 497 q 110 581 116 569 l 116 53 q 119 10 116 22 q 101 -1 122 -1 q 89 0 96 -1 q 74 2 81 0 q 61 9 66 4 q 56 23 56 13 l 56 669 l 56 669 "},"⁄":{"x_min":-44.765625,"x_max":557.5,"ha":578,"o":"m -44 -156 l 466 1155 q 479 1187 472 1167 q 497 1225 486 1207 q 522 1257 508 1243 q 557 1271 537 1271 q 556 1258 557 1269 q 556 1245 556 1247 q 547 1217 553 1237 q 533 1176 541 1197 q 520 1136 526 1154 q 511 1110 514 1117 q 485 1046 504 1093 q 440 934 466 999 q 383 791 415 869 q 320 632 352 713 q 258 473 288 551 q 202 330 227 395 q 158 218 176 265 q 132 154 139 172 q 105 75 119 120 q 76 -19 92 29 q 42 -115 61 -68 q 0 -201 24 -163 q -6 -202 -2 -201 q -10 -203 -9 -203 q -17 -202 -14 -203 q -23 -201 -20 -202 q -33 -190 -25 -198 q -44 -179 -42 -182 l -44 -167 l -44 -156 "},"2":{"x_min":12.0625,"x_max":647.328125,"ha":659,"o":"m 96 17 q 155 124 118 52 q 233 286 192 196 q 312 473 274 375 q 377 656 351 570 q 408 805 402 741 q 390 892 415 869 q 303 909 344 923 q 227 855 263 895 q 161 762 192 816 q 103 659 130 707 q 53 577 75 610 q 12 549 31 545 q 23 631 10 584 q 57 729 35 679 q 111 828 80 779 q 182 914 143 877 q 265 975 221 952 q 359 996 310 998 q 411 981 386 996 q 453 941 435 965 q 480 887 470 916 q 491 832 491 858 q 457 648 488 747 q 383 450 425 550 q 294 252 340 349 q 217 73 248 155 q 276 97 240 83 q 352 126 313 111 q 431 157 392 140 q 500 187 470 173 q 545 213 530 201 q 554 233 561 225 l 488 233 q 522 277 496 268 q 577 277 549 286 q 628 248 606 269 q 647 201 649 227 q 594 153 638 177 q 480 100 550 128 q 321 39 411 71 q 131 -30 231 7 q 104 -15 112 -30 q 96 17 96 0 "},"ü":{"x_min":37.984375,"x_max":500.6875,"ha":533,"o":"m 166 -2 q 114 27 137 -9 q 77 129 92 65 q 53 274 62 192 q 41 438 44 355 q 37 595 37 521 q 40 721 37 670 q 44 736 40 725 q 55 757 47 747 q 77 771 63 766 q 113 770 92 777 q 109 731 112 763 q 105 649 107 698 q 103 541 104 601 q 104 420 103 481 q 109 300 105 359 q 122 194 113 241 q 141 118 130 148 q 170 84 153 88 q 241 133 204 89 q 311 244 278 177 q 371 391 344 310 q 413 552 398 472 q 429 706 428 633 q 409 828 430 778 q 417 835 411 831 q 430 843 423 839 q 443 849 436 846 q 453 852 450 852 q 481 831 472 852 q 495 784 491 811 q 499 731 499 757 q 500 696 500 705 q 491 599 501 662 q 461 462 481 537 q 413 309 442 388 q 345 164 383 230 q 263 52 307 97 q 166 -2 218 6 m 117 928 q 111 964 106 944 q 129 997 116 985 q 159 1011 142 1010 q 193 989 177 1012 q 201 953 205 974 q 182 920 196 933 q 150 906 169 907 q 117 928 132 905 m 292 933 q 285 967 281 947 q 302 1001 289 987 q 333 1016 315 1014 q 368 994 352 1017 q 380 958 382 979 q 365 923 378 937 q 332 908 352 909 q 292 933 312 907 "},"˜":{"x_min":21.703125,"x_max":575.125,"ha":586,"o":"m 21 895 q 26 932 21 907 q 43 981 31 956 q 75 1023 55 1005 q 126 1042 96 1042 q 195 1024 165 1042 q 253 986 225 1006 q 313 947 282 965 q 385 930 344 930 q 443 941 417 928 q 489 974 469 954 q 522 1015 508 993 q 545 1052 537 1037 q 555 1048 549 1053 q 566 1036 561 1043 q 574 1020 572 1029 q 572 1008 576 1012 q 554 964 572 986 q 508 924 535 942 q 449 895 481 907 q 390 884 417 884 q 261 918 318 885 q 143 996 204 950 q 101 980 115 997 q 82 939 88 963 q 73 891 75 916 q 65 855 70 867 q 33 871 46 855 q 21 895 21 887 "},"Ó":{"x_min":21.34375,"x_max":507.375,"ha":530,"o":"m 191 0 q 107 45 142 3 q 51 153 71 86 q 24 303 31 219 q 25 473 17 386 q 56 643 33 560 q 117 792 80 726 q 206 899 154 858 q 326 944 259 941 q 423 893 385 938 q 482 779 462 849 q 506 624 503 710 q 497 449 510 538 q 459 277 485 360 q 393 130 432 193 q 303 30 354 66 q 191 0 252 -5 m 317 882 q 240 848 276 880 q 176 762 204 815 q 126 642 147 709 q 94 503 105 575 q 83 361 84 431 q 94 231 82 290 q 129 130 105 172 q 192 73 153 88 q 280 98 240 69 q 352 178 320 127 q 405 297 383 229 q 438 437 427 365 q 448 582 448 510 q 433 716 447 655 q 390 821 419 777 q 317 882 362 865 m 251 1041 q 225 1028 234 1027 q 210 1037 215 1029 q 202 1056 205 1045 q 195 1076 199 1068 l 287 1200 q 314 1197 305 1200 q 335 1175 324 1194 l 251 1041 "},"ˇ":{"x_min":12.203125,"x_max":284.859375,"ha":347,"o":"m 183 881 q 162 859 172 862 q 135 857 153 857 l 12 1006 q 18 1024 16 1014 q 24 1041 20 1034 q 36 1048 28 1048 q 61 1034 44 1048 l 146 924 l 236 1033 q 269 1052 259 1060 q 284 1017 280 1044 l 183 881 "},"Ÿ":{"x_min":13.5625,"x_max":542.578125,"ha":578,"o":"m 328 347 q 151 584 233 454 q 13 846 70 714 q 46 859 25 873 q 94 809 67 846 q 151 717 120 771 q 214 607 181 663 q 280 502 246 552 q 344 425 313 453 q 362 516 352 455 q 385 649 371 577 q 415 791 398 720 q 450 912 431 862 q 492 978 469 961 q 542 960 515 995 q 465 739 497 850 q 414 511 434 629 q 385 263 394 393 q 379 -16 377 132 q 352 -49 367 -43 q 316 -21 336 -55 l 328 347 m 120 1002 q 114 1038 109 1018 q 132 1071 119 1059 q 162 1085 145 1084 q 196 1063 180 1086 q 204 1027 208 1048 q 185 994 199 1007 q 153 980 172 981 q 120 1002 135 979 m 295 1007 q 288 1041 284 1021 q 305 1075 292 1061 q 336 1090 318 1088 q 371 1068 355 1091 q 383 1032 385 1053 q 368 997 381 1011 q 335 982 355 983 q 295 1007 315 981 "},"ų":{"x_min":37.984375,"x_max":500.6875,"ha":533,"o":"m 166 -2 q 114 27 137 -9 q 77 129 92 65 q 53 274 62 192 q 41 438 44 355 q 37 595 37 521 q 40 721 37 670 q 44 736 40 725 q 55 757 47 747 q 77 771 63 766 q 113 770 92 777 q 109 731 112 763 q 105 649 107 698 q 103 541 104 601 q 104 420 103 481 q 109 300 105 359 q 122 194 113 241 q 141 118 130 148 q 170 84 153 88 q 241 133 204 89 q 311 244 278 177 q 371 391 344 310 q 413 552 398 472 q 429 706 428 633 q 409 828 430 778 q 417 835 411 831 q 430 843 423 839 q 443 849 436 846 q 453 852 450 852 q 481 831 472 852 q 495 784 491 811 q 499 731 499 757 q 500 696 500 705 q 491 599 501 662 q 461 462 481 537 q 413 309 442 388 q 345 164 383 230 q 263 52 307 97 q 166 -2 218 6 m 401 -47 q 348 -76 381 -68 q 282 -79 315 -85 q 227 -51 250 -73 q 203 14 203 -28 q 208 42 203 22 q 221 83 212 62 q 246 123 231 104 q 285 149 262 142 l 312 125 q 272 82 288 109 q 254 29 256 55 q 265 -15 252 3 q 309 -34 278 -34 q 352 -32 334 -34 q 401 -47 370 -30 "}}}
